G04 #@! TF.FileFunction,Legend,Bot*
%FSLAX46Y46*%
G04 Gerber Fmt 4.6, Leading zero omitted, Abs format (unit mm)*
G04 Created by KiCad (PCBNEW 0.201508140901+6091~28~ubuntu14.04.1-product) date Sat 27 Feb 2016 11:06:28 PM EST*
%MOMM*%
G01*
G04 APERTURE LIST*
%ADD10C,0.100000*%
%ADD11C,0.150000*%
G04 APERTURE END LIST*
D10*
D11*
X56134000Y-70358000D02*
X56134000Y-75438000D01*
X56414000Y-67538000D02*
X54864000Y-67538000D01*
X53594000Y-67818000D02*
X53594000Y-70358000D01*
X53594000Y-70358000D02*
X56134000Y-70358000D01*
X56134000Y-75438000D02*
X51054000Y-75438000D01*
X51054000Y-75438000D02*
X51054000Y-70358000D01*
X56414000Y-67538000D02*
X56414000Y-69088000D01*
X51054000Y-67818000D02*
X53594000Y-67818000D01*
X51054000Y-70358000D02*
X51054000Y-67818000D01*
X58053000Y-71282000D02*
X58053000Y-72482000D01*
X59803000Y-72482000D02*
X59803000Y-71282000D01*
X54435333Y-76668381D02*
X54435333Y-77382667D01*
X54482953Y-77525524D01*
X54578191Y-77620762D01*
X54721048Y-77668381D01*
X54816286Y-77668381D01*
X53435333Y-77668381D02*
X54006762Y-77668381D01*
X53721048Y-77668381D02*
X53721048Y-76668381D01*
X53816286Y-76811238D01*
X53911524Y-76906476D01*
X54006762Y-76954095D01*
X59126381Y-75525334D02*
X58650190Y-75192000D01*
X59126381Y-74953905D02*
X58126381Y-74953905D01*
X58126381Y-75334858D01*
X58174000Y-75430096D01*
X58221619Y-75477715D01*
X58316857Y-75525334D01*
X58459714Y-75525334D01*
X58554952Y-75477715D01*
X58602571Y-75430096D01*
X58650190Y-75334858D01*
X58650190Y-74953905D01*
X59126381Y-76477715D02*
X59126381Y-75906286D01*
X59126381Y-76192000D02*
X58126381Y-76192000D01*
X58269238Y-76096762D01*
X58364476Y-76001524D01*
X58412095Y-75906286D01*
M02*
