G04 #@! TF.FileFunction,Copper,L1,Top,Signal*
%FSLAX46Y46*%
G04 Gerber Fmt 4.6, Leading zero omitted, Abs format (unit mm)*
G04 Created by KiCad (PCBNEW 0.201508140901+6091~28~ubuntu14.04.1-product) date Sat 27 Feb 2016 11:06:28 PM EST*
%MOMM*%
G01*
G04 APERTURE LIST*
%ADD10C,0.100000*%
%ADD11R,1.727200X1.727200*%
%ADD12O,1.727200X1.727200*%
%ADD13R,1.000000X3.200000*%
%ADD14R,1.524000X1.270000*%
%ADD15R,2.032000X1.727200*%
%ADD16O,2.032000X1.727200*%
%ADD17R,1.350000X0.400000*%
%ADD18O,0.950000X1.250000*%
%ADD19O,1.550000X1.000000*%
%ADD20O,1.524000X2.032000*%
%ADD21C,1.524000*%
%ADD22R,2.499360X1.800860*%
%ADD23R,1.500000X1.250000*%
%ADD24R,1.500000X1.300000*%
%ADD25C,0.600000*%
%ADD26C,0.250000*%
%ADD27C,0.254000*%
G04 APERTURE END LIST*
D10*
D11*
X54864000Y-69088000D03*
D12*
X52324000Y-69088000D03*
X54864000Y-71628000D03*
X52324000Y-71628000D03*
X54864000Y-74168000D03*
X52324000Y-74168000D03*
D13*
X31528000Y-71784000D03*
X31528000Y-78584000D03*
X35528000Y-78584000D03*
X35528000Y-71784000D03*
D10*
G36*
X38854555Y-33505666D02*
X39243464Y-33116757D01*
X40374835Y-34248128D01*
X39985926Y-34637037D01*
X38854555Y-33505666D01*
X38854555Y-33505666D01*
G37*
G36*
X38288870Y-34071352D02*
X38677779Y-33682443D01*
X39809150Y-34813814D01*
X39420241Y-35202723D01*
X38288870Y-34071352D01*
X38288870Y-34071352D01*
G37*
G36*
X37723184Y-34637037D02*
X38112093Y-34248128D01*
X39243464Y-35379499D01*
X38854555Y-35768408D01*
X37723184Y-34637037D01*
X37723184Y-34637037D01*
G37*
G36*
X37157499Y-35202722D02*
X37546408Y-34813813D01*
X38677779Y-35945184D01*
X38288870Y-36334093D01*
X37157499Y-35202722D01*
X37157499Y-35202722D01*
G37*
G36*
X36591813Y-35768408D02*
X36980722Y-35379499D01*
X38112093Y-36510870D01*
X37723184Y-36899779D01*
X36591813Y-35768408D01*
X36591813Y-35768408D01*
G37*
G36*
X36026128Y-36334093D02*
X36415037Y-35945184D01*
X37546408Y-37076555D01*
X37157499Y-37465464D01*
X36026128Y-36334093D01*
X36026128Y-36334093D01*
G37*
G36*
X35460443Y-36899779D02*
X35849352Y-36510870D01*
X36980723Y-37642241D01*
X36591814Y-38031150D01*
X35460443Y-36899779D01*
X35460443Y-36899779D01*
G37*
G36*
X34894757Y-37465464D02*
X35283666Y-37076555D01*
X36415037Y-38207926D01*
X36026128Y-38596835D01*
X34894757Y-37465464D01*
X34894757Y-37465464D01*
G37*
G36*
X35283666Y-40647445D02*
X34894757Y-40258536D01*
X36026128Y-39127165D01*
X36415037Y-39516074D01*
X35283666Y-40647445D01*
X35283666Y-40647445D01*
G37*
G36*
X35849352Y-41213130D02*
X35460443Y-40824221D01*
X36591814Y-39692850D01*
X36980723Y-40081759D01*
X35849352Y-41213130D01*
X35849352Y-41213130D01*
G37*
G36*
X36415037Y-41778816D02*
X36026128Y-41389907D01*
X37157499Y-40258536D01*
X37546408Y-40647445D01*
X36415037Y-41778816D01*
X36415037Y-41778816D01*
G37*
G36*
X36980722Y-42344501D02*
X36591813Y-41955592D01*
X37723184Y-40824221D01*
X38112093Y-41213130D01*
X36980722Y-42344501D01*
X36980722Y-42344501D01*
G37*
G36*
X37546408Y-42910187D02*
X37157499Y-42521278D01*
X38288870Y-41389907D01*
X38677779Y-41778816D01*
X37546408Y-42910187D01*
X37546408Y-42910187D01*
G37*
G36*
X38112093Y-43475872D02*
X37723184Y-43086963D01*
X38854555Y-41955592D01*
X39243464Y-42344501D01*
X38112093Y-43475872D01*
X38112093Y-43475872D01*
G37*
G36*
X38677779Y-44041557D02*
X38288870Y-43652648D01*
X39420241Y-42521277D01*
X39809150Y-42910186D01*
X38677779Y-44041557D01*
X38677779Y-44041557D01*
G37*
G36*
X39243464Y-44607243D02*
X38854555Y-44218334D01*
X39985926Y-43086963D01*
X40374835Y-43475872D01*
X39243464Y-44607243D01*
X39243464Y-44607243D01*
G37*
G36*
X40905165Y-43475872D02*
X41294074Y-43086963D01*
X42425445Y-44218334D01*
X42036536Y-44607243D01*
X40905165Y-43475872D01*
X40905165Y-43475872D01*
G37*
G36*
X41470850Y-42910186D02*
X41859759Y-42521277D01*
X42991130Y-43652648D01*
X42602221Y-44041557D01*
X41470850Y-42910186D01*
X41470850Y-42910186D01*
G37*
G36*
X42036536Y-42344501D02*
X42425445Y-41955592D01*
X43556816Y-43086963D01*
X43167907Y-43475872D01*
X42036536Y-42344501D01*
X42036536Y-42344501D01*
G37*
G36*
X42602221Y-41778816D02*
X42991130Y-41389907D01*
X44122501Y-42521278D01*
X43733592Y-42910187D01*
X42602221Y-41778816D01*
X42602221Y-41778816D01*
G37*
G36*
X43167907Y-41213130D02*
X43556816Y-40824221D01*
X44688187Y-41955592D01*
X44299278Y-42344501D01*
X43167907Y-41213130D01*
X43167907Y-41213130D01*
G37*
G36*
X43733592Y-40647445D02*
X44122501Y-40258536D01*
X45253872Y-41389907D01*
X44864963Y-41778816D01*
X43733592Y-40647445D01*
X43733592Y-40647445D01*
G37*
G36*
X44299277Y-40081759D02*
X44688186Y-39692850D01*
X45819557Y-40824221D01*
X45430648Y-41213130D01*
X44299277Y-40081759D01*
X44299277Y-40081759D01*
G37*
G36*
X44864963Y-39516074D02*
X45253872Y-39127165D01*
X46385243Y-40258536D01*
X45996334Y-40647445D01*
X44864963Y-39516074D01*
X44864963Y-39516074D01*
G37*
G36*
X45253872Y-38596835D02*
X44864963Y-38207926D01*
X45996334Y-37076555D01*
X46385243Y-37465464D01*
X45253872Y-38596835D01*
X45253872Y-38596835D01*
G37*
G36*
X44688186Y-38031150D02*
X44299277Y-37642241D01*
X45430648Y-36510870D01*
X45819557Y-36899779D01*
X44688186Y-38031150D01*
X44688186Y-38031150D01*
G37*
G36*
X44122501Y-37465464D02*
X43733592Y-37076555D01*
X44864963Y-35945184D01*
X45253872Y-36334093D01*
X44122501Y-37465464D01*
X44122501Y-37465464D01*
G37*
G36*
X43556816Y-36899779D02*
X43167907Y-36510870D01*
X44299278Y-35379499D01*
X44688187Y-35768408D01*
X43556816Y-36899779D01*
X43556816Y-36899779D01*
G37*
G36*
X42991130Y-36334093D02*
X42602221Y-35945184D01*
X43733592Y-34813813D01*
X44122501Y-35202722D01*
X42991130Y-36334093D01*
X42991130Y-36334093D01*
G37*
G36*
X42425445Y-35768408D02*
X42036536Y-35379499D01*
X43167907Y-34248128D01*
X43556816Y-34637037D01*
X42425445Y-35768408D01*
X42425445Y-35768408D01*
G37*
G36*
X41859759Y-35202723D02*
X41470850Y-34813814D01*
X42602221Y-33682443D01*
X42991130Y-34071352D01*
X41859759Y-35202723D01*
X41859759Y-35202723D01*
G37*
G36*
X41294074Y-34637037D02*
X40905165Y-34248128D01*
X42036536Y-33116757D01*
X42425445Y-33505666D01*
X41294074Y-34637037D01*
X41294074Y-34637037D01*
G37*
D14*
X39878000Y-52578000D03*
X44958000Y-53848000D03*
X39878000Y-55118000D03*
D15*
X19558000Y-79502000D03*
D16*
X19558000Y-76962000D03*
X19558000Y-74422000D03*
X19558000Y-71882000D03*
X19558000Y-69342000D03*
X19558000Y-66802000D03*
X19558000Y-64262000D03*
X19558000Y-61722000D03*
X19558000Y-59182000D03*
X19558000Y-56642000D03*
X19558000Y-54102000D03*
D17*
X22644540Y-37053100D03*
X22644540Y-37703100D03*
X22644540Y-38353100D03*
X22644540Y-39003100D03*
X22644540Y-39653100D03*
D18*
X22644540Y-35853100D03*
X22644540Y-40853100D03*
D19*
X19944540Y-34853100D03*
X19944540Y-41853100D03*
D20*
X40894000Y-64262000D03*
X45974000Y-64262000D03*
D21*
X40894000Y-79502000D03*
X43434000Y-79502000D03*
X45974000Y-79502000D03*
D22*
X18575020Y-29972000D03*
X22572980Y-29972000D03*
X18575020Y-23622000D03*
X22572980Y-23622000D03*
D23*
X34564000Y-23622000D03*
X37064000Y-23622000D03*
X32278000Y-28956000D03*
X34778000Y-28956000D03*
D24*
X34116000Y-65024000D03*
X31416000Y-65024000D03*
X30654000Y-58420000D03*
X33354000Y-58420000D03*
X28622000Y-35306000D03*
X31322000Y-35306000D03*
X27352000Y-24384000D03*
X30052000Y-24384000D03*
D15*
X57962800Y-58928000D03*
D16*
X57962800Y-56388000D03*
X57962800Y-53848000D03*
X57962800Y-51308000D03*
X57962800Y-48768000D03*
X57962800Y-46228000D03*
X57962800Y-43688000D03*
X57962800Y-41148000D03*
X57962800Y-38608000D03*
X57962800Y-36068000D03*
X57962800Y-33528000D03*
X57962800Y-30988000D03*
X57962800Y-28448000D03*
X57962800Y-25908000D03*
X57962800Y-23368000D03*
X57962800Y-20828000D03*
D25*
X37064000Y-25908000D03*
X33274000Y-26162000D03*
X26162000Y-37084000D03*
X35814000Y-67818000D03*
X43434000Y-45720000D03*
X45466000Y-33528000D03*
X33782000Y-60960000D03*
X33782000Y-41402000D03*
X32258000Y-41656000D03*
X30226000Y-41910000D03*
X46482000Y-35814000D03*
X46736000Y-34544000D03*
X25146000Y-72644000D03*
X45212000Y-34798000D03*
D26*
X31496000Y-24384000D02*
X33020000Y-25908000D01*
X31496000Y-24384000D02*
X30052000Y-24384000D01*
X34778000Y-28956000D02*
X34778000Y-27666000D01*
X33274000Y-26162000D02*
X33020000Y-25908000D01*
X34778000Y-27666000D02*
X33274000Y-26162000D01*
X22644540Y-37053100D02*
X26131100Y-37053100D01*
X26131100Y-37053100D02*
X26162000Y-37084000D01*
X34116000Y-65024000D02*
X34116000Y-66120000D01*
X34116000Y-66120000D02*
X35814000Y-67818000D01*
X30654000Y-58420000D02*
X20320000Y-58420000D01*
X20320000Y-58420000D02*
X19558000Y-59182000D01*
X39878000Y-55118000D02*
X42360002Y-55118000D01*
X43757002Y-56515000D02*
X57200800Y-56515000D01*
X42360002Y-55118000D02*
X43757002Y-56515000D01*
X37064000Y-23622000D02*
X37064000Y-25908000D01*
X37064000Y-25908000D02*
X37064000Y-27940000D01*
X37064000Y-27940000D02*
X37064000Y-34720314D01*
X37064000Y-34720314D02*
X37917639Y-35573953D01*
X34778000Y-28956000D02*
X34778000Y-34697056D01*
X34778000Y-34697056D02*
X36786268Y-36705324D01*
X54864000Y-69088000D02*
X54864000Y-66802000D01*
X38354000Y-45107798D02*
X39614695Y-43847103D01*
X38354000Y-56642000D02*
X38354000Y-45107798D01*
X39116000Y-57404000D02*
X38354000Y-56642000D01*
X45466000Y-57404000D02*
X39116000Y-57404000D01*
X54864000Y-66802000D02*
X45466000Y-57404000D01*
X52324000Y-69088000D02*
X52324000Y-65786000D01*
X37592000Y-44738427D02*
X39049010Y-43281417D01*
X37592000Y-57658000D02*
X37592000Y-44738427D01*
X38608000Y-58674000D02*
X37592000Y-57658000D01*
X45212000Y-58674000D02*
X38608000Y-58674000D01*
X52324000Y-65786000D02*
X45212000Y-58674000D01*
X43434000Y-45720000D02*
X41665305Y-43951305D01*
X41665305Y-43951305D02*
X41665305Y-43847103D01*
X45466000Y-33528000D02*
X43420047Y-35573953D01*
X43420047Y-35573953D02*
X43362361Y-35573953D01*
X31528000Y-78584000D02*
X31528000Y-71784000D01*
X31528000Y-71784000D02*
X31528000Y-65136000D01*
X31528000Y-65136000D02*
X31416000Y-65024000D01*
X31416000Y-65024000D02*
X31750000Y-65024000D01*
X31750000Y-65024000D02*
X35052000Y-61722000D01*
X35052000Y-61722000D02*
X35052000Y-43942000D01*
X35052000Y-43942000D02*
X37351953Y-41642047D01*
X37351953Y-41642047D02*
X37351953Y-41584361D01*
X33354000Y-60532000D02*
X33354000Y-58420000D01*
X33782000Y-60960000D02*
X33354000Y-60532000D01*
X36220583Y-37271010D02*
X36220583Y-37236583D01*
X36220583Y-37236583D02*
X32258000Y-33274000D01*
X32258000Y-33274000D02*
X30480000Y-33274000D01*
X30480000Y-33274000D02*
X29972000Y-33782000D01*
X29972000Y-33782000D02*
X29972000Y-39624000D01*
X29972000Y-39624000D02*
X28702000Y-40894000D01*
X28702000Y-40894000D02*
X28702000Y-47752000D01*
X28702000Y-47752000D02*
X33354000Y-52404000D01*
X33354000Y-52404000D02*
X33354000Y-58420000D01*
X57200800Y-36195000D02*
X55499000Y-36195000D01*
X44027592Y-29464000D02*
X39614695Y-33876897D01*
X48768000Y-29464000D02*
X44027592Y-29464000D01*
X55499000Y-36195000D02*
X48768000Y-29464000D01*
X57200800Y-33655000D02*
X55245000Y-33655000D01*
X38100000Y-33493573D02*
X39049010Y-34442583D01*
X38100000Y-32258000D02*
X38100000Y-33493573D01*
X41910000Y-28448000D02*
X38100000Y-32258000D01*
X50038000Y-28448000D02*
X41910000Y-28448000D01*
X55245000Y-33655000D02*
X50038000Y-28448000D01*
X35654897Y-37836695D02*
X33852695Y-37836695D01*
X33852695Y-37836695D02*
X31322000Y-35306000D01*
X33782000Y-41402000D02*
X35296695Y-39887305D01*
X35296695Y-39887305D02*
X35654897Y-39887305D01*
X33747573Y-42926000D02*
X36220583Y-40452990D01*
X33528000Y-42926000D02*
X33747573Y-42926000D01*
X32258000Y-41656000D02*
X33528000Y-42926000D01*
X33862944Y-43942000D02*
X36786268Y-41018676D01*
X32258000Y-43942000D02*
X33862944Y-43942000D01*
X30226000Y-41910000D02*
X32258000Y-43942000D01*
X40894000Y-79502000D02*
X40894000Y-69850000D01*
X35814000Y-44253686D02*
X37917639Y-42150047D01*
X35814000Y-64770000D02*
X35814000Y-44253686D01*
X40894000Y-69850000D02*
X35814000Y-64770000D01*
X45974000Y-79502000D02*
X45974000Y-72898000D01*
X36830000Y-44369056D02*
X38483324Y-42715732D01*
X36830000Y-63754000D02*
X36830000Y-44369056D01*
X45974000Y-72898000D02*
X36830000Y-63754000D01*
X57200800Y-51435000D02*
X56041427Y-51435000D01*
X56041427Y-51435000D02*
X45059417Y-40452990D01*
X45625103Y-39887305D02*
X45729305Y-39887305D01*
X45729305Y-39887305D02*
X54737000Y-48895000D01*
X54737000Y-48895000D02*
X57200800Y-48895000D01*
X57200800Y-46355000D02*
X54143408Y-46355000D01*
X54143408Y-46355000D02*
X45625103Y-37836695D01*
X46482000Y-35814000D02*
X45059417Y-37236583D01*
X45059417Y-37236583D02*
X45059417Y-37271010D01*
X45059417Y-37236583D02*
X45059417Y-37271010D01*
X19558000Y-71882000D02*
X24384000Y-71882000D01*
X46736000Y-34544000D02*
X44574676Y-36705324D01*
X24384000Y-71882000D02*
X25146000Y-72644000D01*
X44574676Y-36705324D02*
X44493732Y-36705324D01*
X44574676Y-36705324D02*
X44493732Y-36705324D01*
X45212000Y-34798000D02*
X43928047Y-36081953D01*
X43928047Y-36081953D02*
X43928047Y-36139639D01*
X43928047Y-36081953D02*
X43928047Y-36139639D01*
X57200800Y-43815000D02*
X57200800Y-43484800D01*
X57200800Y-43484800D02*
X46482000Y-32766000D01*
X46482000Y-32766000D02*
X45038944Y-32766000D01*
X45038944Y-32766000D02*
X42796676Y-35008268D01*
X57200800Y-41275000D02*
X57023000Y-41275000D01*
X57023000Y-41275000D02*
X47244000Y-31496000D01*
X47244000Y-31496000D02*
X45177573Y-31496000D01*
X45177573Y-31496000D02*
X42230990Y-34442583D01*
X57200800Y-38735000D02*
X56515000Y-38735000D01*
X56515000Y-38735000D02*
X48260000Y-30480000D01*
X48260000Y-30480000D02*
X45062202Y-30480000D01*
X45062202Y-30480000D02*
X41665305Y-33876897D01*
X57200800Y-53975000D02*
X45085000Y-53975000D01*
X45085000Y-53975000D02*
X44958000Y-53848000D01*
X28622000Y-35306000D02*
X28622000Y-32686000D01*
X25908000Y-29972000D02*
X22572980Y-29972000D01*
X28622000Y-32686000D02*
X25908000Y-29972000D01*
X28622000Y-35306000D02*
X28622000Y-34751020D01*
X27352000Y-24384000D02*
X23334980Y-24384000D01*
X23334980Y-24384000D02*
X22572980Y-23622000D01*
D27*
G36*
X60453200Y-81281200D02*
X15746800Y-81281200D01*
X15746800Y-62081026D01*
X17950642Y-62081026D01*
X17953291Y-62096791D01*
X18207268Y-62624036D01*
X18643680Y-63013954D01*
X18850133Y-63086170D01*
X18461250Y-63346014D01*
X18180442Y-63766272D01*
X18081836Y-64262000D01*
X18180442Y-64757728D01*
X18461250Y-65177986D01*
X18881508Y-65458794D01*
X19249541Y-65532000D01*
X18881508Y-65605206D01*
X18461250Y-65886014D01*
X18180442Y-66306272D01*
X18081836Y-66802000D01*
X18180442Y-67297728D01*
X18461250Y-67717986D01*
X18881508Y-67998794D01*
X19249541Y-68072000D01*
X18881508Y-68145206D01*
X18461250Y-68426014D01*
X18180442Y-68846272D01*
X18081836Y-69342000D01*
X18180442Y-69837728D01*
X18461250Y-70257986D01*
X18881508Y-70538794D01*
X19249541Y-70612000D01*
X18881508Y-70685206D01*
X18461250Y-70966014D01*
X18180442Y-71386272D01*
X18081836Y-71882000D01*
X18180442Y-72377728D01*
X18461250Y-72797986D01*
X18881508Y-73078794D01*
X19249541Y-73152000D01*
X18881508Y-73225206D01*
X18461250Y-73506014D01*
X18180442Y-73926272D01*
X18081836Y-74422000D01*
X18180442Y-74917728D01*
X18461250Y-75337986D01*
X18881508Y-75618794D01*
X19249541Y-75692000D01*
X18881508Y-75765206D01*
X18461250Y-76046014D01*
X18180442Y-76466272D01*
X18081836Y-76962000D01*
X18180442Y-77457728D01*
X18461250Y-77877986D01*
X18881508Y-78158794D01*
X19079320Y-78198141D01*
X18542000Y-78198141D01*
X18381985Y-78228250D01*
X18235020Y-78322819D01*
X18136427Y-78467115D01*
X18101741Y-78638400D01*
X18101741Y-80365600D01*
X18131850Y-80525615D01*
X18226419Y-80672580D01*
X18370715Y-80771173D01*
X18542000Y-80805859D01*
X20574000Y-80805859D01*
X20734015Y-80775750D01*
X20880980Y-80681181D01*
X20979573Y-80536885D01*
X21014259Y-80365600D01*
X21014259Y-78638400D01*
X20984150Y-78478385D01*
X20889581Y-78331420D01*
X20745285Y-78232827D01*
X20574000Y-78198141D01*
X20036680Y-78198141D01*
X20234492Y-78158794D01*
X20654750Y-77877986D01*
X20935558Y-77457728D01*
X21034164Y-76962000D01*
X20935558Y-76466272D01*
X20654750Y-76046014D01*
X20234492Y-75765206D01*
X19866459Y-75692000D01*
X20234492Y-75618794D01*
X20654750Y-75337986D01*
X20935558Y-74917728D01*
X21034164Y-74422000D01*
X20935558Y-73926272D01*
X20654750Y-73506014D01*
X20234492Y-73225206D01*
X19866459Y-73152000D01*
X20234492Y-73078794D01*
X20654750Y-72797986D01*
X20894751Y-72438800D01*
X24153366Y-72438800D01*
X24414151Y-72699585D01*
X24414073Y-72788925D01*
X24525248Y-73057990D01*
X24730927Y-73264028D01*
X24999797Y-73375673D01*
X25290925Y-73375927D01*
X25559990Y-73264752D01*
X25766028Y-73059073D01*
X25877673Y-72790203D01*
X25877927Y-72499075D01*
X25766752Y-72230010D01*
X25561073Y-72023972D01*
X25292203Y-71912327D01*
X25201682Y-71912248D01*
X24777717Y-71488283D01*
X24597078Y-71367584D01*
X24384000Y-71325200D01*
X20894751Y-71325200D01*
X20654750Y-70966014D01*
X20234492Y-70685206D01*
X19866459Y-70612000D01*
X20234492Y-70538794D01*
X20654750Y-70257986D01*
X20935558Y-69837728D01*
X21034164Y-69342000D01*
X20935558Y-68846272D01*
X20654750Y-68426014D01*
X20234492Y-68145206D01*
X19866459Y-68072000D01*
X20234492Y-67998794D01*
X20654750Y-67717986D01*
X20935558Y-67297728D01*
X21034164Y-66802000D01*
X20935558Y-66306272D01*
X20654750Y-65886014D01*
X20234492Y-65605206D01*
X19866459Y-65532000D01*
X20234492Y-65458794D01*
X20654750Y-65177986D01*
X20935558Y-64757728D01*
X21034164Y-64262000D01*
X20935558Y-63766272D01*
X20654750Y-63346014D01*
X20265867Y-63086170D01*
X20472320Y-63013954D01*
X20908732Y-62624036D01*
X21162709Y-62096791D01*
X21165358Y-62081026D01*
X21044217Y-61849000D01*
X19685000Y-61849000D01*
X19685000Y-61869000D01*
X19431000Y-61869000D01*
X19431000Y-61849000D01*
X18071783Y-61849000D01*
X17950642Y-62081026D01*
X15746800Y-62081026D01*
X15746800Y-61362974D01*
X17950642Y-61362974D01*
X18071783Y-61595000D01*
X19431000Y-61595000D01*
X19431000Y-61575000D01*
X19685000Y-61575000D01*
X19685000Y-61595000D01*
X21044217Y-61595000D01*
X21165358Y-61362974D01*
X21162709Y-61347209D01*
X20908732Y-60819964D01*
X20472320Y-60430046D01*
X20265867Y-60357830D01*
X20654750Y-60097986D01*
X20935558Y-59677728D01*
X21034164Y-59182000D01*
X20993347Y-58976800D01*
X29463741Y-58976800D01*
X29463741Y-59070000D01*
X29493850Y-59230015D01*
X29588419Y-59376980D01*
X29732715Y-59475573D01*
X29904000Y-59510259D01*
X31404000Y-59510259D01*
X31564015Y-59480150D01*
X31710980Y-59385581D01*
X31809573Y-59241285D01*
X31844259Y-59070000D01*
X31844259Y-57770000D01*
X31814150Y-57609985D01*
X31719581Y-57463020D01*
X31575285Y-57364427D01*
X31404000Y-57329741D01*
X29904000Y-57329741D01*
X29743985Y-57359850D01*
X29597020Y-57454419D01*
X29498427Y-57598715D01*
X29463741Y-57770000D01*
X29463741Y-57863200D01*
X20320000Y-57863200D01*
X20106922Y-57905584D01*
X20044360Y-57947387D01*
X19866459Y-57912000D01*
X20234492Y-57838794D01*
X20654750Y-57557986D01*
X20935558Y-57137728D01*
X21034164Y-56642000D01*
X20935558Y-56146272D01*
X20654750Y-55726014D01*
X20234492Y-55445206D01*
X19866459Y-55372000D01*
X20234492Y-55298794D01*
X20654750Y-55017986D01*
X20935558Y-54597728D01*
X21034164Y-54102000D01*
X20935558Y-53606272D01*
X20654750Y-53186014D01*
X20234492Y-52905206D01*
X19738764Y-52806600D01*
X19377236Y-52806600D01*
X18881508Y-52905206D01*
X18461250Y-53186014D01*
X18180442Y-53606272D01*
X18081836Y-54102000D01*
X18180442Y-54597728D01*
X18461250Y-55017986D01*
X18881508Y-55298794D01*
X19249541Y-55372000D01*
X18881508Y-55445206D01*
X18461250Y-55726014D01*
X18180442Y-56146272D01*
X18081836Y-56642000D01*
X18180442Y-57137728D01*
X18461250Y-57557986D01*
X18881508Y-57838794D01*
X19249541Y-57912000D01*
X18881508Y-57985206D01*
X18461250Y-58266014D01*
X18180442Y-58686272D01*
X18081836Y-59182000D01*
X18180442Y-59677728D01*
X18461250Y-60097986D01*
X18850133Y-60357830D01*
X18643680Y-60430046D01*
X18207268Y-60819964D01*
X17953291Y-61347209D01*
X17950642Y-61362974D01*
X15746800Y-61362974D01*
X15746800Y-41853100D01*
X18714097Y-41853100D01*
X18785026Y-42209684D01*
X18987015Y-42511982D01*
X19289313Y-42713971D01*
X19645897Y-42784900D01*
X20243183Y-42784900D01*
X20599767Y-42713971D01*
X20902065Y-42511982D01*
X21104054Y-42209684D01*
X21174983Y-41853100D01*
X21104054Y-41496516D01*
X20902065Y-41194218D01*
X20599767Y-40992229D01*
X20243183Y-40921300D01*
X19645897Y-40921300D01*
X19289313Y-40992229D01*
X18987015Y-41194218D01*
X18785026Y-41496516D01*
X18714097Y-41853100D01*
X15746800Y-41853100D01*
X15746800Y-39261850D01*
X21334540Y-39261850D01*
X21334540Y-39329410D01*
X21431213Y-39562799D01*
X21529281Y-39660866D01*
X21529281Y-39853100D01*
X21559390Y-40013115D01*
X21653959Y-40160080D01*
X21798255Y-40258673D01*
X21850897Y-40269333D01*
X21806766Y-40335379D01*
X21737740Y-40682396D01*
X21737740Y-41023804D01*
X21806766Y-41370821D01*
X22003336Y-41665008D01*
X22297523Y-41861578D01*
X22644540Y-41930604D01*
X22991557Y-41861578D01*
X23285744Y-41665008D01*
X23482314Y-41370821D01*
X23551340Y-41023804D01*
X23551340Y-40682396D01*
X23482314Y-40335379D01*
X23439193Y-40270845D01*
X23479555Y-40263250D01*
X23626520Y-40168681D01*
X23725113Y-40024385D01*
X23759799Y-39853100D01*
X23759799Y-39660866D01*
X23857867Y-39562799D01*
X23954540Y-39329410D01*
X23954540Y-39261850D01*
X23795790Y-39103100D01*
X23572159Y-39103100D01*
X23490825Y-39047527D01*
X23319540Y-39012841D01*
X21969540Y-39012841D01*
X21809525Y-39042950D01*
X21716049Y-39103100D01*
X21493290Y-39103100D01*
X21334540Y-39261850D01*
X15746800Y-39261850D01*
X15746800Y-38676790D01*
X21334540Y-38676790D01*
X21334540Y-38744350D01*
X21493290Y-38903100D01*
X21716921Y-38903100D01*
X21798255Y-38958673D01*
X21969540Y-38993359D01*
X23319540Y-38993359D01*
X23479555Y-38963250D01*
X23573031Y-38903100D01*
X23795790Y-38903100D01*
X23954540Y-38744350D01*
X23954540Y-38676790D01*
X23857867Y-38443401D01*
X23759799Y-38345334D01*
X23759799Y-38153100D01*
X23735415Y-38023511D01*
X23759799Y-37903100D01*
X23759799Y-37609900D01*
X25652963Y-37609900D01*
X25746927Y-37704028D01*
X26015797Y-37815673D01*
X26306925Y-37815927D01*
X26575990Y-37704752D01*
X26782028Y-37499073D01*
X26893673Y-37230203D01*
X26893927Y-36939075D01*
X26782752Y-36670010D01*
X26577073Y-36463972D01*
X26308203Y-36352327D01*
X26017075Y-36352073D01*
X25748010Y-36463248D01*
X25714900Y-36496300D01*
X23562207Y-36496300D01*
X23490825Y-36447527D01*
X23438183Y-36436867D01*
X23482314Y-36370821D01*
X23551340Y-36023804D01*
X23551340Y-35682396D01*
X23482314Y-35335379D01*
X23285744Y-35041192D01*
X22991557Y-34844622D01*
X22644540Y-34775596D01*
X22297523Y-34844622D01*
X22003336Y-35041192D01*
X21806766Y-35335379D01*
X21737740Y-35682396D01*
X21737740Y-36023804D01*
X21806766Y-36370821D01*
X21849887Y-36435355D01*
X21809525Y-36442950D01*
X21662560Y-36537519D01*
X21563967Y-36681815D01*
X21529281Y-36853100D01*
X21529281Y-37253100D01*
X21553665Y-37382689D01*
X21529281Y-37503100D01*
X21529281Y-37903100D01*
X21553665Y-38032689D01*
X21529281Y-38153100D01*
X21529281Y-38345334D01*
X21431213Y-38443401D01*
X21334540Y-38676790D01*
X15746800Y-38676790D01*
X15746800Y-34853100D01*
X18714097Y-34853100D01*
X18785026Y-35209684D01*
X18987015Y-35511982D01*
X19289313Y-35713971D01*
X19645897Y-35784900D01*
X20243183Y-35784900D01*
X20599767Y-35713971D01*
X20902065Y-35511982D01*
X21104054Y-35209684D01*
X21174983Y-34853100D01*
X21104054Y-34496516D01*
X20902065Y-34194218D01*
X20599767Y-33992229D01*
X20243183Y-33921300D01*
X19645897Y-33921300D01*
X19289313Y-33992229D01*
X18987015Y-34194218D01*
X18785026Y-34496516D01*
X18714097Y-34853100D01*
X15746800Y-34853100D01*
X15746800Y-30257750D01*
X16690340Y-30257750D01*
X16690340Y-30998740D01*
X16787013Y-31232129D01*
X16965642Y-31410757D01*
X17199031Y-31507430D01*
X18289270Y-31507430D01*
X18448020Y-31348680D01*
X18448020Y-30099000D01*
X18702020Y-30099000D01*
X18702020Y-31348680D01*
X18860770Y-31507430D01*
X19951009Y-31507430D01*
X20184398Y-31410757D01*
X20363027Y-31232129D01*
X20459700Y-30998740D01*
X20459700Y-30257750D01*
X20300950Y-30099000D01*
X18702020Y-30099000D01*
X18448020Y-30099000D01*
X16849090Y-30099000D01*
X16690340Y-30257750D01*
X15746800Y-30257750D01*
X15746800Y-28945260D01*
X16690340Y-28945260D01*
X16690340Y-29686250D01*
X16849090Y-29845000D01*
X18448020Y-29845000D01*
X18448020Y-28595320D01*
X18702020Y-28595320D01*
X18702020Y-29845000D01*
X20300950Y-29845000D01*
X20459700Y-29686250D01*
X20459700Y-29071570D01*
X20883041Y-29071570D01*
X20883041Y-30872430D01*
X20913150Y-31032445D01*
X21007719Y-31179410D01*
X21152015Y-31278003D01*
X21323300Y-31312689D01*
X23822660Y-31312689D01*
X23982675Y-31282580D01*
X24129640Y-31188011D01*
X24228233Y-31043715D01*
X24262919Y-30872430D01*
X24262919Y-30528800D01*
X25677366Y-30528800D01*
X28065200Y-32916634D01*
X28065200Y-34215741D01*
X27872000Y-34215741D01*
X27711985Y-34245850D01*
X27565020Y-34340419D01*
X27466427Y-34484715D01*
X27431741Y-34656000D01*
X27431741Y-35956000D01*
X27461850Y-36116015D01*
X27556419Y-36262980D01*
X27700715Y-36361573D01*
X27872000Y-36396259D01*
X29372000Y-36396259D01*
X29415200Y-36388130D01*
X29415200Y-39393366D01*
X28308283Y-40500283D01*
X28187584Y-40680922D01*
X28145200Y-40894000D01*
X28145200Y-47752000D01*
X28187584Y-47965078D01*
X28308283Y-48145717D01*
X32797200Y-52634634D01*
X32797200Y-57329741D01*
X32604000Y-57329741D01*
X32443985Y-57359850D01*
X32297020Y-57454419D01*
X32198427Y-57598715D01*
X32163741Y-57770000D01*
X32163741Y-59070000D01*
X32193850Y-59230015D01*
X32288419Y-59376980D01*
X32432715Y-59475573D01*
X32604000Y-59510259D01*
X32797200Y-59510259D01*
X32797200Y-60532000D01*
X32839584Y-60745078D01*
X32960283Y-60925717D01*
X33050151Y-61015585D01*
X33050073Y-61104925D01*
X33161248Y-61373990D01*
X33366927Y-61580028D01*
X33635797Y-61691673D01*
X33926925Y-61691927D01*
X34195990Y-61580752D01*
X34402028Y-61375073D01*
X34495200Y-61150691D01*
X34495200Y-61491366D01*
X32052825Y-63933741D01*
X30666000Y-63933741D01*
X30505985Y-63963850D01*
X30359020Y-64058419D01*
X30260427Y-64202715D01*
X30225741Y-64374000D01*
X30225741Y-65674000D01*
X30255850Y-65834015D01*
X30350419Y-65980980D01*
X30494715Y-66079573D01*
X30666000Y-66114259D01*
X30971200Y-66114259D01*
X30971200Y-69754429D01*
X30867985Y-69773850D01*
X30721020Y-69868419D01*
X30622427Y-70012715D01*
X30587741Y-70184000D01*
X30587741Y-73384000D01*
X30617850Y-73544015D01*
X30712419Y-73690980D01*
X30856715Y-73789573D01*
X30971200Y-73812757D01*
X30971200Y-76554429D01*
X30867985Y-76573850D01*
X30721020Y-76668419D01*
X30622427Y-76812715D01*
X30587741Y-76984000D01*
X30587741Y-80184000D01*
X30617850Y-80344015D01*
X30712419Y-80490980D01*
X30856715Y-80589573D01*
X31028000Y-80624259D01*
X32028000Y-80624259D01*
X32188015Y-80594150D01*
X32334980Y-80499581D01*
X32433573Y-80355285D01*
X32468259Y-80184000D01*
X32468259Y-78869750D01*
X34393000Y-78869750D01*
X34393000Y-80310309D01*
X34489673Y-80543698D01*
X34668301Y-80722327D01*
X34901690Y-80819000D01*
X35242250Y-80819000D01*
X35401000Y-80660250D01*
X35401000Y-78711000D01*
X35655000Y-78711000D01*
X35655000Y-80660250D01*
X35813750Y-80819000D01*
X36154310Y-80819000D01*
X36387699Y-80722327D01*
X36566327Y-80543698D01*
X36663000Y-80310309D01*
X36663000Y-78869750D01*
X36504250Y-78711000D01*
X35655000Y-78711000D01*
X35401000Y-78711000D01*
X34551750Y-78711000D01*
X34393000Y-78869750D01*
X32468259Y-78869750D01*
X32468259Y-76984000D01*
X32444493Y-76857691D01*
X34393000Y-76857691D01*
X34393000Y-78298250D01*
X34551750Y-78457000D01*
X35401000Y-78457000D01*
X35401000Y-76507750D01*
X35655000Y-76507750D01*
X35655000Y-78457000D01*
X36504250Y-78457000D01*
X36663000Y-78298250D01*
X36663000Y-76857691D01*
X36566327Y-76624302D01*
X36387699Y-76445673D01*
X36154310Y-76349000D01*
X35813750Y-76349000D01*
X35655000Y-76507750D01*
X35401000Y-76507750D01*
X35242250Y-76349000D01*
X34901690Y-76349000D01*
X34668301Y-76445673D01*
X34489673Y-76624302D01*
X34393000Y-76857691D01*
X32444493Y-76857691D01*
X32438150Y-76823985D01*
X32343581Y-76677020D01*
X32199285Y-76578427D01*
X32084800Y-76555243D01*
X32084800Y-73813571D01*
X32188015Y-73794150D01*
X32334980Y-73699581D01*
X32433573Y-73555285D01*
X32468259Y-73384000D01*
X32468259Y-72069750D01*
X34393000Y-72069750D01*
X34393000Y-73510309D01*
X34489673Y-73743698D01*
X34668301Y-73922327D01*
X34901690Y-74019000D01*
X35242250Y-74019000D01*
X35401000Y-73860250D01*
X35401000Y-71911000D01*
X35655000Y-71911000D01*
X35655000Y-73860250D01*
X35813750Y-74019000D01*
X36154310Y-74019000D01*
X36387699Y-73922327D01*
X36566327Y-73743698D01*
X36663000Y-73510309D01*
X36663000Y-72069750D01*
X36504250Y-71911000D01*
X35655000Y-71911000D01*
X35401000Y-71911000D01*
X34551750Y-71911000D01*
X34393000Y-72069750D01*
X32468259Y-72069750D01*
X32468259Y-70184000D01*
X32444493Y-70057691D01*
X34393000Y-70057691D01*
X34393000Y-71498250D01*
X34551750Y-71657000D01*
X35401000Y-71657000D01*
X35401000Y-69707750D01*
X35655000Y-69707750D01*
X35655000Y-71657000D01*
X36504250Y-71657000D01*
X36663000Y-71498250D01*
X36663000Y-70057691D01*
X36566327Y-69824302D01*
X36387699Y-69645673D01*
X36154310Y-69549000D01*
X35813750Y-69549000D01*
X35655000Y-69707750D01*
X35401000Y-69707750D01*
X35242250Y-69549000D01*
X34901690Y-69549000D01*
X34668301Y-69645673D01*
X34489673Y-69824302D01*
X34393000Y-70057691D01*
X32444493Y-70057691D01*
X32438150Y-70023985D01*
X32343581Y-69877020D01*
X32199285Y-69778427D01*
X32084800Y-69755243D01*
X32084800Y-66114259D01*
X32166000Y-66114259D01*
X32326015Y-66084150D01*
X32472980Y-65989581D01*
X32571573Y-65845285D01*
X32606259Y-65674000D01*
X32606259Y-64955175D01*
X32925741Y-64635693D01*
X32925741Y-65674000D01*
X32955850Y-65834015D01*
X33050419Y-65980980D01*
X33194715Y-66079573D01*
X33366000Y-66114259D01*
X33559200Y-66114259D01*
X33559200Y-66120000D01*
X33601584Y-66333078D01*
X33722283Y-66513717D01*
X35082151Y-67873585D01*
X35082073Y-67962925D01*
X35193248Y-68231990D01*
X35398927Y-68438028D01*
X35667797Y-68549673D01*
X35958925Y-68549927D01*
X36227990Y-68438752D01*
X36434028Y-68233073D01*
X36545673Y-67964203D01*
X36545927Y-67673075D01*
X36434752Y-67404010D01*
X36229073Y-67197972D01*
X35960203Y-67086327D01*
X35869682Y-67086248D01*
X34892674Y-66109240D01*
X35026015Y-66084150D01*
X35172980Y-65989581D01*
X35271573Y-65845285D01*
X35306259Y-65674000D01*
X35306259Y-64993068D01*
X35420283Y-65163717D01*
X40337200Y-70080634D01*
X40337200Y-78440371D01*
X40218650Y-78489355D01*
X39882536Y-78824884D01*
X39700408Y-79263497D01*
X39699993Y-79738420D01*
X39881355Y-80177350D01*
X40216884Y-80513464D01*
X40655497Y-80695592D01*
X41130420Y-80696007D01*
X41569350Y-80514645D01*
X41601838Y-80482213D01*
X42633392Y-80482213D01*
X42702857Y-80724397D01*
X43226302Y-80911144D01*
X43781368Y-80883362D01*
X44165143Y-80724397D01*
X44234608Y-80482213D01*
X43434000Y-79681605D01*
X42633392Y-80482213D01*
X41601838Y-80482213D01*
X41905464Y-80179116D01*
X42051535Y-79827337D01*
X42052638Y-79849368D01*
X42211603Y-80233143D01*
X42453787Y-80302608D01*
X43254395Y-79502000D01*
X42453787Y-78701392D01*
X42211603Y-78770857D01*
X42059616Y-79196870D01*
X41906645Y-78826650D01*
X41602313Y-78521787D01*
X42633392Y-78521787D01*
X43434000Y-79322395D01*
X44234608Y-78521787D01*
X44165143Y-78279603D01*
X43641698Y-78092856D01*
X43086632Y-78120638D01*
X42702857Y-78279603D01*
X42633392Y-78521787D01*
X41602313Y-78521787D01*
X41571116Y-78490536D01*
X41450800Y-78440576D01*
X41450800Y-69850000D01*
X41408416Y-69636922D01*
X41287717Y-69456283D01*
X36370800Y-64539366D01*
X36370800Y-64049715D01*
X36436283Y-64147717D01*
X45417200Y-73128634D01*
X45417200Y-78440371D01*
X45298650Y-78489355D01*
X44962536Y-78824884D01*
X44816465Y-79176663D01*
X44815362Y-79154632D01*
X44656397Y-78770857D01*
X44414213Y-78701392D01*
X43613605Y-79502000D01*
X44414213Y-80302608D01*
X44656397Y-80233143D01*
X44808384Y-79807130D01*
X44961355Y-80177350D01*
X45296884Y-80513464D01*
X45735497Y-80695592D01*
X46210420Y-80696007D01*
X46649350Y-80514645D01*
X46985464Y-80179116D01*
X47167592Y-79740503D01*
X47168007Y-79265580D01*
X46986645Y-78826650D01*
X46651116Y-78490536D01*
X46530800Y-78440576D01*
X46530800Y-74527026D01*
X50869042Y-74527026D01*
X51041312Y-74942947D01*
X51435510Y-75374821D01*
X51964973Y-75622968D01*
X52197000Y-75502469D01*
X52197000Y-74295000D01*
X50990183Y-74295000D01*
X50869042Y-74527026D01*
X46530800Y-74527026D01*
X46530800Y-72898000D01*
X46488416Y-72684922D01*
X46367717Y-72504283D01*
X37843070Y-63979636D01*
X39700200Y-63979636D01*
X39700200Y-64544364D01*
X39791073Y-65001211D01*
X40049856Y-65388508D01*
X40437153Y-65647291D01*
X40894000Y-65738164D01*
X41350847Y-65647291D01*
X41738144Y-65388508D01*
X41996927Y-65001211D01*
X42087800Y-64544364D01*
X42087800Y-64389000D01*
X44577000Y-64389000D01*
X44577000Y-64643000D01*
X44731941Y-65167941D01*
X45075974Y-65593630D01*
X45556723Y-65855260D01*
X45630930Y-65870220D01*
X45847000Y-65747720D01*
X45847000Y-64389000D01*
X46101000Y-64389000D01*
X46101000Y-65747720D01*
X46317070Y-65870220D01*
X46391277Y-65855260D01*
X46872026Y-65593630D01*
X47216059Y-65167941D01*
X47371000Y-64643000D01*
X47371000Y-64389000D01*
X46101000Y-64389000D01*
X45847000Y-64389000D01*
X44577000Y-64389000D01*
X42087800Y-64389000D01*
X42087800Y-63979636D01*
X42068180Y-63881000D01*
X44577000Y-63881000D01*
X44577000Y-64135000D01*
X45847000Y-64135000D01*
X45847000Y-62776280D01*
X46101000Y-62776280D01*
X46101000Y-64135000D01*
X47371000Y-64135000D01*
X47371000Y-63881000D01*
X47216059Y-63356059D01*
X46872026Y-62930370D01*
X46391277Y-62668740D01*
X46317070Y-62653780D01*
X46101000Y-62776280D01*
X45847000Y-62776280D01*
X45630930Y-62653780D01*
X45556723Y-62668740D01*
X45075974Y-62930370D01*
X44731941Y-63356059D01*
X44577000Y-63881000D01*
X42068180Y-63881000D01*
X41996927Y-63522789D01*
X41738144Y-63135492D01*
X41350847Y-62876709D01*
X40894000Y-62785836D01*
X40437153Y-62876709D01*
X40049856Y-63135492D01*
X39791073Y-63522789D01*
X39700200Y-63979636D01*
X37843070Y-63979636D01*
X37386800Y-63523366D01*
X37386800Y-58240234D01*
X38214283Y-59067717D01*
X38394922Y-59188416D01*
X38608000Y-59230800D01*
X44981366Y-59230800D01*
X51767200Y-66016634D01*
X51767200Y-67915056D01*
X51382636Y-68172014D01*
X51101828Y-68592272D01*
X51003222Y-69088000D01*
X51101828Y-69583728D01*
X51382636Y-70003986D01*
X51802894Y-70284794D01*
X52170927Y-70358000D01*
X51802894Y-70431206D01*
X51382636Y-70712014D01*
X51101828Y-71132272D01*
X51003222Y-71628000D01*
X51101828Y-72123728D01*
X51382636Y-72543986D01*
X51771404Y-72803753D01*
X51435510Y-72961179D01*
X51041312Y-73393053D01*
X50869042Y-73808974D01*
X50990183Y-74041000D01*
X52197000Y-74041000D01*
X52197000Y-74021000D01*
X52451000Y-74021000D01*
X52451000Y-74041000D01*
X52471000Y-74041000D01*
X52471000Y-74295000D01*
X52451000Y-74295000D01*
X52451000Y-75502469D01*
X52683027Y-75622968D01*
X53212490Y-75374821D01*
X53606688Y-74942947D01*
X53691529Y-74738111D01*
X53922636Y-75083986D01*
X54342894Y-75364794D01*
X54838622Y-75463400D01*
X54889378Y-75463400D01*
X55385106Y-75364794D01*
X55805364Y-75083986D01*
X56086172Y-74663728D01*
X56184778Y-74168000D01*
X56086172Y-73672272D01*
X55805364Y-73252014D01*
X55385106Y-72971206D01*
X55017073Y-72898000D01*
X55385106Y-72824794D01*
X55805364Y-72543986D01*
X56086172Y-72123728D01*
X56184778Y-71628000D01*
X56086172Y-71132272D01*
X55805364Y-70712014D01*
X55385106Y-70431206D01*
X55187294Y-70391859D01*
X55727600Y-70391859D01*
X55887615Y-70361750D01*
X56034580Y-70267181D01*
X56133173Y-70122885D01*
X56167859Y-69951600D01*
X56167859Y-68224400D01*
X56137750Y-68064385D01*
X56043181Y-67917420D01*
X55898885Y-67818827D01*
X55727600Y-67784141D01*
X55420800Y-67784141D01*
X55420800Y-66802000D01*
X55378416Y-66588922D01*
X55257717Y-66408283D01*
X48063184Y-59213750D01*
X56311800Y-59213750D01*
X56311800Y-59917910D01*
X56408473Y-60151299D01*
X56587102Y-60329927D01*
X56820491Y-60426600D01*
X57677050Y-60426600D01*
X57835800Y-60267850D01*
X57835800Y-59055000D01*
X58089800Y-59055000D01*
X58089800Y-60267850D01*
X58248550Y-60426600D01*
X59105109Y-60426600D01*
X59338498Y-60329927D01*
X59517127Y-60151299D01*
X59613800Y-59917910D01*
X59613800Y-59213750D01*
X59455050Y-59055000D01*
X58089800Y-59055000D01*
X57835800Y-59055000D01*
X56470550Y-59055000D01*
X56311800Y-59213750D01*
X48063184Y-59213750D01*
X45921234Y-57071800D01*
X56710908Y-57071800D01*
X56866050Y-57303986D01*
X57053745Y-57429400D01*
X56820491Y-57429400D01*
X56587102Y-57526073D01*
X56408473Y-57704701D01*
X56311800Y-57938090D01*
X56311800Y-58642250D01*
X56470550Y-58801000D01*
X57835800Y-58801000D01*
X57835800Y-58781000D01*
X58089800Y-58781000D01*
X58089800Y-58801000D01*
X59455050Y-58801000D01*
X59613800Y-58642250D01*
X59613800Y-57938090D01*
X59517127Y-57704701D01*
X59338498Y-57526073D01*
X59105109Y-57429400D01*
X58871855Y-57429400D01*
X59059550Y-57303986D01*
X59340358Y-56883728D01*
X59438964Y-56388000D01*
X59340358Y-55892272D01*
X59059550Y-55472014D01*
X58639292Y-55191206D01*
X58271259Y-55118000D01*
X58639292Y-55044794D01*
X59059550Y-54763986D01*
X59340358Y-54343728D01*
X59438964Y-53848000D01*
X59340358Y-53352272D01*
X59059550Y-52932014D01*
X58639292Y-52651206D01*
X58271259Y-52578000D01*
X58639292Y-52504794D01*
X59059550Y-52223986D01*
X59340358Y-51803728D01*
X59438964Y-51308000D01*
X59340358Y-50812272D01*
X59059550Y-50392014D01*
X58639292Y-50111206D01*
X58271259Y-50038000D01*
X58639292Y-49964794D01*
X59059550Y-49683986D01*
X59340358Y-49263728D01*
X59438964Y-48768000D01*
X59340358Y-48272272D01*
X59059550Y-47852014D01*
X58639292Y-47571206D01*
X58271259Y-47498000D01*
X58639292Y-47424794D01*
X59059550Y-47143986D01*
X59340358Y-46723728D01*
X59438964Y-46228000D01*
X59340358Y-45732272D01*
X59059550Y-45312014D01*
X58639292Y-45031206D01*
X58271259Y-44958000D01*
X58639292Y-44884794D01*
X59059550Y-44603986D01*
X59340358Y-44183728D01*
X59438964Y-43688000D01*
X59340358Y-43192272D01*
X59059550Y-42772014D01*
X58639292Y-42491206D01*
X58271259Y-42418000D01*
X58639292Y-42344794D01*
X59059550Y-42063986D01*
X59340358Y-41643728D01*
X59438964Y-41148000D01*
X59340358Y-40652272D01*
X59059550Y-40232014D01*
X58639292Y-39951206D01*
X58271259Y-39878000D01*
X58639292Y-39804794D01*
X59059550Y-39523986D01*
X59340358Y-39103728D01*
X59438964Y-38608000D01*
X59340358Y-38112272D01*
X59059550Y-37692014D01*
X58639292Y-37411206D01*
X58271259Y-37338000D01*
X58639292Y-37264794D01*
X59059550Y-36983986D01*
X59340358Y-36563728D01*
X59438964Y-36068000D01*
X59340358Y-35572272D01*
X59059550Y-35152014D01*
X58639292Y-34871206D01*
X58271259Y-34798000D01*
X58639292Y-34724794D01*
X59059550Y-34443986D01*
X59340358Y-34023728D01*
X59438964Y-33528000D01*
X59340358Y-33032272D01*
X59059550Y-32612014D01*
X58639292Y-32331206D01*
X58271259Y-32258000D01*
X58639292Y-32184794D01*
X59059550Y-31903986D01*
X59340358Y-31483728D01*
X59438964Y-30988000D01*
X59340358Y-30492272D01*
X59059550Y-30072014D01*
X58639292Y-29791206D01*
X58271259Y-29718000D01*
X58639292Y-29644794D01*
X59059550Y-29363986D01*
X59340358Y-28943728D01*
X59438964Y-28448000D01*
X59340358Y-27952272D01*
X59059550Y-27532014D01*
X58639292Y-27251206D01*
X58271259Y-27178000D01*
X58639292Y-27104794D01*
X59059550Y-26823986D01*
X59340358Y-26403728D01*
X59438964Y-25908000D01*
X59340358Y-25412272D01*
X59059550Y-24992014D01*
X58639292Y-24711206D01*
X58271259Y-24638000D01*
X58639292Y-24564794D01*
X59059550Y-24283986D01*
X59340358Y-23863728D01*
X59438964Y-23368000D01*
X59340358Y-22872272D01*
X59059550Y-22452014D01*
X58639292Y-22171206D01*
X58271259Y-22098000D01*
X58639292Y-22024794D01*
X59059550Y-21743986D01*
X59340358Y-21323728D01*
X59438964Y-20828000D01*
X59340358Y-20332272D01*
X59059550Y-19912014D01*
X58639292Y-19631206D01*
X58143564Y-19532600D01*
X57782036Y-19532600D01*
X57286308Y-19631206D01*
X56866050Y-19912014D01*
X56585242Y-20332272D01*
X56486636Y-20828000D01*
X56585242Y-21323728D01*
X56866050Y-21743986D01*
X57286308Y-22024794D01*
X57654341Y-22098000D01*
X57286308Y-22171206D01*
X56866050Y-22452014D01*
X56585242Y-22872272D01*
X56486636Y-23368000D01*
X56585242Y-23863728D01*
X56866050Y-24283986D01*
X57286308Y-24564794D01*
X57654341Y-24638000D01*
X57286308Y-24711206D01*
X56866050Y-24992014D01*
X56585242Y-25412272D01*
X56486636Y-25908000D01*
X56585242Y-26403728D01*
X56866050Y-26823986D01*
X57286308Y-27104794D01*
X57654341Y-27178000D01*
X57286308Y-27251206D01*
X56866050Y-27532014D01*
X56585242Y-27952272D01*
X56486636Y-28448000D01*
X56585242Y-28943728D01*
X56866050Y-29363986D01*
X57286308Y-29644794D01*
X57654341Y-29718000D01*
X57286308Y-29791206D01*
X56866050Y-30072014D01*
X56585242Y-30492272D01*
X56486636Y-30988000D01*
X56585242Y-31483728D01*
X56866050Y-31903986D01*
X57286308Y-32184794D01*
X57654341Y-32258000D01*
X57286308Y-32331206D01*
X56866050Y-32612014D01*
X56585242Y-33032272D01*
X56572128Y-33098200D01*
X55475634Y-33098200D01*
X50431717Y-28054283D01*
X50251078Y-27933584D01*
X50038000Y-27891200D01*
X41910000Y-27891200D01*
X41696922Y-27933584D01*
X41516283Y-28054283D01*
X37706283Y-31864283D01*
X37620800Y-31992217D01*
X37620800Y-26386191D01*
X37684028Y-26323073D01*
X37795673Y-26054203D01*
X37795927Y-25763075D01*
X37684752Y-25494010D01*
X37620800Y-25429946D01*
X37620800Y-24687259D01*
X37814000Y-24687259D01*
X37974015Y-24657150D01*
X38120980Y-24562581D01*
X38219573Y-24418285D01*
X38254259Y-24247000D01*
X38254259Y-22997000D01*
X38224150Y-22836985D01*
X38129581Y-22690020D01*
X37985285Y-22591427D01*
X37814000Y-22556741D01*
X36314000Y-22556741D01*
X36153985Y-22586850D01*
X36007020Y-22681419D01*
X35922089Y-22805720D01*
X35852327Y-22637301D01*
X35673698Y-22458673D01*
X35440309Y-22362000D01*
X34849750Y-22362000D01*
X34691000Y-22520750D01*
X34691000Y-23495000D01*
X34711000Y-23495000D01*
X34711000Y-23749000D01*
X34691000Y-23749000D01*
X34691000Y-24723250D01*
X34849750Y-24882000D01*
X35440309Y-24882000D01*
X35673698Y-24785327D01*
X35852327Y-24606699D01*
X35922825Y-24436503D01*
X35998419Y-24553980D01*
X36142715Y-24652573D01*
X36314000Y-24687259D01*
X36507200Y-24687259D01*
X36507200Y-25429809D01*
X36443972Y-25492927D01*
X36332327Y-25761797D01*
X36332073Y-26052925D01*
X36443248Y-26321990D01*
X36507200Y-26386054D01*
X36507200Y-34720314D01*
X36546136Y-34916059D01*
X36513848Y-34948347D01*
X36539311Y-34922885D01*
X36539311Y-35147391D01*
X36747117Y-35355197D01*
X36749599Y-35368388D01*
X36846189Y-35514032D01*
X37977560Y-36645403D01*
X38111998Y-36737261D01*
X38133941Y-36742021D01*
X38344201Y-36952281D01*
X38568707Y-36952281D01*
X38650420Y-36870568D01*
X38747093Y-36637179D01*
X38747092Y-36498491D01*
X38842176Y-36403407D01*
X38980864Y-36403408D01*
X39214253Y-36306735D01*
X39295966Y-36225022D01*
X39295966Y-36000516D01*
X39088162Y-35792711D01*
X39085679Y-35779518D01*
X38989089Y-35633874D01*
X38319459Y-34964244D01*
X38439300Y-34844402D01*
X39108931Y-35514033D01*
X39243369Y-35605891D01*
X39265313Y-35610651D01*
X39475572Y-35820910D01*
X39700078Y-35820910D01*
X39781791Y-35739197D01*
X39878464Y-35505808D01*
X39878463Y-35367121D01*
X40120460Y-35125124D01*
X40194853Y-35016247D01*
X40297236Y-34948347D01*
X40640000Y-34605583D01*
X40982764Y-34948347D01*
X41091638Y-35022738D01*
X41159540Y-35125124D01*
X41548449Y-35514033D01*
X41657326Y-35588426D01*
X41725226Y-35690809D01*
X42114135Y-36079718D01*
X42223011Y-36154110D01*
X42290911Y-36256494D01*
X42679820Y-36645403D01*
X42788696Y-36719795D01*
X42856597Y-36822180D01*
X43245506Y-37211089D01*
X43354382Y-37285481D01*
X43422282Y-37387865D01*
X43811191Y-37776774D01*
X43920065Y-37851165D01*
X43987967Y-37953551D01*
X44376876Y-38342460D01*
X44485753Y-38416853D01*
X44553653Y-38519236D01*
X44896417Y-38862000D01*
X44553653Y-39204764D01*
X44479262Y-39313638D01*
X44376876Y-39381540D01*
X43987967Y-39770449D01*
X43913574Y-39879326D01*
X43811191Y-39947226D01*
X43569195Y-40189222D01*
X43430507Y-40189221D01*
X43197118Y-40285894D01*
X43066690Y-40416321D01*
X43115405Y-40367607D01*
X43115405Y-40592113D01*
X43323209Y-40799918D01*
X43325692Y-40813111D01*
X43422282Y-40958755D01*
X44553653Y-42090126D01*
X44688091Y-42181984D01*
X44710036Y-42186745D01*
X44920295Y-42397003D01*
X45144801Y-42397003D01*
X45226514Y-42315290D01*
X45323187Y-42081901D01*
X45323186Y-41943213D01*
X45542696Y-41723703D01*
X55647710Y-51828717D01*
X55828349Y-51949416D01*
X56041427Y-51991800D01*
X56710908Y-51991800D01*
X56866050Y-52223986D01*
X57286308Y-52504794D01*
X57654341Y-52578000D01*
X57286308Y-52651206D01*
X56866050Y-52932014D01*
X56585242Y-53352272D01*
X56572128Y-53418200D01*
X46160259Y-53418200D01*
X46160259Y-53213000D01*
X46130150Y-53052985D01*
X46035581Y-52906020D01*
X45891285Y-52807427D01*
X45720000Y-52772741D01*
X44196000Y-52772741D01*
X44035985Y-52802850D01*
X43889020Y-52897419D01*
X43790427Y-53041715D01*
X43755741Y-53213000D01*
X43755741Y-54483000D01*
X43785850Y-54643015D01*
X43880419Y-54789980D01*
X44024715Y-54888573D01*
X44196000Y-54923259D01*
X45720000Y-54923259D01*
X45880015Y-54893150D01*
X46026980Y-54798581D01*
X46125573Y-54654285D01*
X46150377Y-54531800D01*
X56710908Y-54531800D01*
X56866050Y-54763986D01*
X57286308Y-55044794D01*
X57654341Y-55118000D01*
X57286308Y-55191206D01*
X56866050Y-55472014D01*
X56585242Y-55892272D01*
X56572128Y-55958200D01*
X43987636Y-55958200D01*
X42753719Y-54724283D01*
X42573080Y-54603584D01*
X42360002Y-54561200D01*
X41080259Y-54561200D01*
X41080259Y-54483000D01*
X41050150Y-54322985D01*
X40955581Y-54176020D01*
X40811285Y-54077427D01*
X40640000Y-54042741D01*
X39116000Y-54042741D01*
X38955985Y-54072850D01*
X38910800Y-54101926D01*
X38910800Y-53815323D01*
X38989690Y-53848000D01*
X39592250Y-53848000D01*
X39751000Y-53689250D01*
X39751000Y-52705000D01*
X40005000Y-52705000D01*
X40005000Y-53689250D01*
X40163750Y-53848000D01*
X40766310Y-53848000D01*
X40999699Y-53751327D01*
X41178327Y-53572698D01*
X41275000Y-53339309D01*
X41275000Y-52863750D01*
X41116250Y-52705000D01*
X40005000Y-52705000D01*
X39751000Y-52705000D01*
X39731000Y-52705000D01*
X39731000Y-52451000D01*
X39751000Y-52451000D01*
X39751000Y-51466750D01*
X40005000Y-51466750D01*
X40005000Y-52451000D01*
X41116250Y-52451000D01*
X41275000Y-52292250D01*
X41275000Y-51816691D01*
X41178327Y-51583302D01*
X40999699Y-51404673D01*
X40766310Y-51308000D01*
X40163750Y-51308000D01*
X40005000Y-51466750D01*
X39751000Y-51466750D01*
X39592250Y-51308000D01*
X38989690Y-51308000D01*
X38910800Y-51340677D01*
X38910800Y-45338432D01*
X39208120Y-45041112D01*
X39237382Y-45047460D01*
X39409130Y-45015143D01*
X39554774Y-44918553D01*
X40640000Y-43833327D01*
X41725226Y-44918553D01*
X41859664Y-45010411D01*
X41958394Y-45031828D01*
X42702151Y-45775585D01*
X42702073Y-45864925D01*
X42813248Y-46133990D01*
X43018927Y-46340028D01*
X43287797Y-46451673D01*
X43578925Y-46451927D01*
X43847990Y-46340752D01*
X44054028Y-46135073D01*
X44165673Y-45866203D01*
X44165927Y-45575075D01*
X44054752Y-45306010D01*
X43849073Y-45099972D01*
X43580203Y-44988327D01*
X43489682Y-44988248D01*
X42877919Y-44376485D01*
X42913531Y-44352867D01*
X43302440Y-43963958D01*
X43376831Y-43855084D01*
X43479217Y-43787182D01*
X43868126Y-43398273D01*
X43942518Y-43289397D01*
X44044902Y-43221497D01*
X44286899Y-42979500D01*
X44425587Y-42979501D01*
X44658976Y-42882828D01*
X44740689Y-42801115D01*
X44740689Y-42576609D01*
X44532883Y-42368803D01*
X44530401Y-42355612D01*
X44433811Y-42209968D01*
X43302440Y-41078597D01*
X43168002Y-40986739D01*
X43146059Y-40981979D01*
X42935799Y-40771719D01*
X42711293Y-40771719D01*
X42764811Y-40718200D01*
X42629580Y-40853432D01*
X42532907Y-41086821D01*
X42532908Y-41225509D01*
X42290911Y-41467506D01*
X42216519Y-41576382D01*
X42114135Y-41644282D01*
X41725226Y-42033191D01*
X41650835Y-42142065D01*
X41548449Y-42209967D01*
X41159540Y-42598876D01*
X41085147Y-42707753D01*
X40982764Y-42775653D01*
X40640000Y-43118417D01*
X40297236Y-42775653D01*
X40188362Y-42701262D01*
X40120460Y-42598876D01*
X39731551Y-42209967D01*
X39622674Y-42135574D01*
X39554774Y-42033191D01*
X39165865Y-41644282D01*
X39056989Y-41569890D01*
X38989089Y-41467506D01*
X38600180Y-41078597D01*
X38491304Y-41004205D01*
X38423403Y-40901820D01*
X38034494Y-40512911D01*
X37925618Y-40438519D01*
X37857718Y-40336135D01*
X37468809Y-39947226D01*
X37359935Y-39872835D01*
X37292033Y-39770449D01*
X36903124Y-39381540D01*
X36794247Y-39307147D01*
X36726347Y-39204764D01*
X36383583Y-38862000D01*
X36726347Y-38519236D01*
X36800738Y-38410362D01*
X36903124Y-38342460D01*
X37292033Y-37953551D01*
X37366426Y-37844674D01*
X37468809Y-37776774D01*
X37710805Y-37534778D01*
X37849493Y-37534779D01*
X38082882Y-37438106D01*
X38164595Y-37356393D01*
X38164595Y-37131887D01*
X37956791Y-36924082D01*
X37954308Y-36910889D01*
X37857718Y-36765245D01*
X36726347Y-35633874D01*
X36591909Y-35542016D01*
X36569964Y-35537255D01*
X36359705Y-35326997D01*
X36195375Y-35326997D01*
X35334800Y-34466422D01*
X35334800Y-30021259D01*
X35528000Y-30021259D01*
X35688015Y-29991150D01*
X35834980Y-29896581D01*
X35933573Y-29752285D01*
X35968259Y-29581000D01*
X35968259Y-28331000D01*
X35938150Y-28170985D01*
X35843581Y-28024020D01*
X35699285Y-27925427D01*
X35528000Y-27890741D01*
X35334800Y-27890741D01*
X35334800Y-27666000D01*
X35292416Y-27452922D01*
X35171717Y-27272283D01*
X34005849Y-26106415D01*
X34005927Y-26017075D01*
X33894752Y-25748010D01*
X33689073Y-25541972D01*
X33420203Y-25430327D01*
X33329682Y-25430248D01*
X31889717Y-23990283D01*
X31766198Y-23907750D01*
X33179000Y-23907750D01*
X33179000Y-24373310D01*
X33275673Y-24606699D01*
X33454302Y-24785327D01*
X33687691Y-24882000D01*
X34278250Y-24882000D01*
X34437000Y-24723250D01*
X34437000Y-23749000D01*
X33337750Y-23749000D01*
X33179000Y-23907750D01*
X31766198Y-23907750D01*
X31709078Y-23869584D01*
X31496000Y-23827200D01*
X31242259Y-23827200D01*
X31242259Y-23734000D01*
X31212150Y-23573985D01*
X31117581Y-23427020D01*
X30973285Y-23328427D01*
X30802000Y-23293741D01*
X29302000Y-23293741D01*
X29141985Y-23323850D01*
X28995020Y-23418419D01*
X28896427Y-23562715D01*
X28861741Y-23734000D01*
X28861741Y-25034000D01*
X28891850Y-25194015D01*
X28986419Y-25340980D01*
X29130715Y-25439573D01*
X29302000Y-25474259D01*
X30802000Y-25474259D01*
X30962015Y-25444150D01*
X31108980Y-25349581D01*
X31207573Y-25205285D01*
X31242259Y-25034000D01*
X31242259Y-24940800D01*
X31265366Y-24940800D01*
X32542151Y-26217585D01*
X32542073Y-26306925D01*
X32653248Y-26575990D01*
X32858927Y-26782028D01*
X33127797Y-26893673D01*
X33218318Y-26893752D01*
X34215307Y-27890741D01*
X34028000Y-27890741D01*
X33867985Y-27920850D01*
X33721020Y-28015419D01*
X33636089Y-28139720D01*
X33566327Y-27971301D01*
X33387698Y-27792673D01*
X33154309Y-27696000D01*
X32563750Y-27696000D01*
X32405000Y-27854750D01*
X32405000Y-28829000D01*
X32425000Y-28829000D01*
X32425000Y-29083000D01*
X32405000Y-29083000D01*
X32405000Y-30057250D01*
X32563750Y-30216000D01*
X33154309Y-30216000D01*
X33387698Y-30119327D01*
X33566327Y-29940699D01*
X33636825Y-29770503D01*
X33712419Y-29887980D01*
X33856715Y-29986573D01*
X34028000Y-30021259D01*
X34221200Y-30021259D01*
X34221200Y-34449766D01*
X32651717Y-32880283D01*
X32471078Y-32759584D01*
X32258000Y-32717200D01*
X30480000Y-32717200D01*
X30266922Y-32759584D01*
X30086283Y-32880283D01*
X29578283Y-33388283D01*
X29457584Y-33568922D01*
X29415200Y-33782000D01*
X29415200Y-34224489D01*
X29372000Y-34215741D01*
X29178800Y-34215741D01*
X29178800Y-32686000D01*
X29136416Y-32472922D01*
X29015717Y-32292283D01*
X26301717Y-29578283D01*
X26121078Y-29457584D01*
X25908000Y-29415200D01*
X24262919Y-29415200D01*
X24262919Y-29241750D01*
X30893000Y-29241750D01*
X30893000Y-29707310D01*
X30989673Y-29940699D01*
X31168302Y-30119327D01*
X31401691Y-30216000D01*
X31992250Y-30216000D01*
X32151000Y-30057250D01*
X32151000Y-29083000D01*
X31051750Y-29083000D01*
X30893000Y-29241750D01*
X24262919Y-29241750D01*
X24262919Y-29071570D01*
X24232810Y-28911555D01*
X24138241Y-28764590D01*
X23993945Y-28665997D01*
X23822660Y-28631311D01*
X21323300Y-28631311D01*
X21163285Y-28661420D01*
X21016320Y-28755989D01*
X20917727Y-28900285D01*
X20883041Y-29071570D01*
X20459700Y-29071570D01*
X20459700Y-28945260D01*
X20363027Y-28711871D01*
X20184398Y-28533243D01*
X19951009Y-28436570D01*
X18860770Y-28436570D01*
X18702020Y-28595320D01*
X18448020Y-28595320D01*
X18289270Y-28436570D01*
X17199031Y-28436570D01*
X16965642Y-28533243D01*
X16787013Y-28711871D01*
X16690340Y-28945260D01*
X15746800Y-28945260D01*
X15746800Y-28204690D01*
X30893000Y-28204690D01*
X30893000Y-28670250D01*
X31051750Y-28829000D01*
X32151000Y-28829000D01*
X32151000Y-27854750D01*
X31992250Y-27696000D01*
X31401691Y-27696000D01*
X31168302Y-27792673D01*
X30989673Y-27971301D01*
X30893000Y-28204690D01*
X15746800Y-28204690D01*
X15746800Y-23907750D01*
X16690340Y-23907750D01*
X16690340Y-24648740D01*
X16787013Y-24882129D01*
X16965642Y-25060757D01*
X17199031Y-25157430D01*
X18289270Y-25157430D01*
X18448020Y-24998680D01*
X18448020Y-23749000D01*
X18702020Y-23749000D01*
X18702020Y-24998680D01*
X18860770Y-25157430D01*
X19951009Y-25157430D01*
X20184398Y-25060757D01*
X20363027Y-24882129D01*
X20459700Y-24648740D01*
X20459700Y-23907750D01*
X20300950Y-23749000D01*
X18702020Y-23749000D01*
X18448020Y-23749000D01*
X16849090Y-23749000D01*
X16690340Y-23907750D01*
X15746800Y-23907750D01*
X15746800Y-22595260D01*
X16690340Y-22595260D01*
X16690340Y-23336250D01*
X16849090Y-23495000D01*
X18448020Y-23495000D01*
X18448020Y-22245320D01*
X18702020Y-22245320D01*
X18702020Y-23495000D01*
X20300950Y-23495000D01*
X20459700Y-23336250D01*
X20459700Y-22721570D01*
X20883041Y-22721570D01*
X20883041Y-24522430D01*
X20913150Y-24682445D01*
X21007719Y-24829410D01*
X21152015Y-24928003D01*
X21323300Y-24962689D01*
X23822660Y-24962689D01*
X23938990Y-24940800D01*
X26161741Y-24940800D01*
X26161741Y-25034000D01*
X26191850Y-25194015D01*
X26286419Y-25340980D01*
X26430715Y-25439573D01*
X26602000Y-25474259D01*
X28102000Y-25474259D01*
X28262015Y-25444150D01*
X28408980Y-25349581D01*
X28507573Y-25205285D01*
X28542259Y-25034000D01*
X28542259Y-23734000D01*
X28512150Y-23573985D01*
X28417581Y-23427020D01*
X28273285Y-23328427D01*
X28102000Y-23293741D01*
X26602000Y-23293741D01*
X26441985Y-23323850D01*
X26295020Y-23418419D01*
X26196427Y-23562715D01*
X26161741Y-23734000D01*
X26161741Y-23827200D01*
X24262919Y-23827200D01*
X24262919Y-22870690D01*
X33179000Y-22870690D01*
X33179000Y-23336250D01*
X33337750Y-23495000D01*
X34437000Y-23495000D01*
X34437000Y-22520750D01*
X34278250Y-22362000D01*
X33687691Y-22362000D01*
X33454302Y-22458673D01*
X33275673Y-22637301D01*
X33179000Y-22870690D01*
X24262919Y-22870690D01*
X24262919Y-22721570D01*
X24232810Y-22561555D01*
X24138241Y-22414590D01*
X23993945Y-22315997D01*
X23822660Y-22281311D01*
X21323300Y-22281311D01*
X21163285Y-22311420D01*
X21016320Y-22405989D01*
X20917727Y-22550285D01*
X20883041Y-22721570D01*
X20459700Y-22721570D01*
X20459700Y-22595260D01*
X20363027Y-22361871D01*
X20184398Y-22183243D01*
X19951009Y-22086570D01*
X18860770Y-22086570D01*
X18702020Y-22245320D01*
X18448020Y-22245320D01*
X18289270Y-22086570D01*
X17199031Y-22086570D01*
X16965642Y-22183243D01*
X16787013Y-22361871D01*
X16690340Y-22595260D01*
X15746800Y-22595260D01*
X15746800Y-19302800D01*
X60453200Y-19302800D01*
X60453200Y-81281200D01*
X60453200Y-81281200D01*
G37*
X60453200Y-81281200D02*
X15746800Y-81281200D01*
X15746800Y-62081026D01*
X17950642Y-62081026D01*
X17953291Y-62096791D01*
X18207268Y-62624036D01*
X18643680Y-63013954D01*
X18850133Y-63086170D01*
X18461250Y-63346014D01*
X18180442Y-63766272D01*
X18081836Y-64262000D01*
X18180442Y-64757728D01*
X18461250Y-65177986D01*
X18881508Y-65458794D01*
X19249541Y-65532000D01*
X18881508Y-65605206D01*
X18461250Y-65886014D01*
X18180442Y-66306272D01*
X18081836Y-66802000D01*
X18180442Y-67297728D01*
X18461250Y-67717986D01*
X18881508Y-67998794D01*
X19249541Y-68072000D01*
X18881508Y-68145206D01*
X18461250Y-68426014D01*
X18180442Y-68846272D01*
X18081836Y-69342000D01*
X18180442Y-69837728D01*
X18461250Y-70257986D01*
X18881508Y-70538794D01*
X19249541Y-70612000D01*
X18881508Y-70685206D01*
X18461250Y-70966014D01*
X18180442Y-71386272D01*
X18081836Y-71882000D01*
X18180442Y-72377728D01*
X18461250Y-72797986D01*
X18881508Y-73078794D01*
X19249541Y-73152000D01*
X18881508Y-73225206D01*
X18461250Y-73506014D01*
X18180442Y-73926272D01*
X18081836Y-74422000D01*
X18180442Y-74917728D01*
X18461250Y-75337986D01*
X18881508Y-75618794D01*
X19249541Y-75692000D01*
X18881508Y-75765206D01*
X18461250Y-76046014D01*
X18180442Y-76466272D01*
X18081836Y-76962000D01*
X18180442Y-77457728D01*
X18461250Y-77877986D01*
X18881508Y-78158794D01*
X19079320Y-78198141D01*
X18542000Y-78198141D01*
X18381985Y-78228250D01*
X18235020Y-78322819D01*
X18136427Y-78467115D01*
X18101741Y-78638400D01*
X18101741Y-80365600D01*
X18131850Y-80525615D01*
X18226419Y-80672580D01*
X18370715Y-80771173D01*
X18542000Y-80805859D01*
X20574000Y-80805859D01*
X20734015Y-80775750D01*
X20880980Y-80681181D01*
X20979573Y-80536885D01*
X21014259Y-80365600D01*
X21014259Y-78638400D01*
X20984150Y-78478385D01*
X20889581Y-78331420D01*
X20745285Y-78232827D01*
X20574000Y-78198141D01*
X20036680Y-78198141D01*
X20234492Y-78158794D01*
X20654750Y-77877986D01*
X20935558Y-77457728D01*
X21034164Y-76962000D01*
X20935558Y-76466272D01*
X20654750Y-76046014D01*
X20234492Y-75765206D01*
X19866459Y-75692000D01*
X20234492Y-75618794D01*
X20654750Y-75337986D01*
X20935558Y-74917728D01*
X21034164Y-74422000D01*
X20935558Y-73926272D01*
X20654750Y-73506014D01*
X20234492Y-73225206D01*
X19866459Y-73152000D01*
X20234492Y-73078794D01*
X20654750Y-72797986D01*
X20894751Y-72438800D01*
X24153366Y-72438800D01*
X24414151Y-72699585D01*
X24414073Y-72788925D01*
X24525248Y-73057990D01*
X24730927Y-73264028D01*
X24999797Y-73375673D01*
X25290925Y-73375927D01*
X25559990Y-73264752D01*
X25766028Y-73059073D01*
X25877673Y-72790203D01*
X25877927Y-72499075D01*
X25766752Y-72230010D01*
X25561073Y-72023972D01*
X25292203Y-71912327D01*
X25201682Y-71912248D01*
X24777717Y-71488283D01*
X24597078Y-71367584D01*
X24384000Y-71325200D01*
X20894751Y-71325200D01*
X20654750Y-70966014D01*
X20234492Y-70685206D01*
X19866459Y-70612000D01*
X20234492Y-70538794D01*
X20654750Y-70257986D01*
X20935558Y-69837728D01*
X21034164Y-69342000D01*
X20935558Y-68846272D01*
X20654750Y-68426014D01*
X20234492Y-68145206D01*
X19866459Y-68072000D01*
X20234492Y-67998794D01*
X20654750Y-67717986D01*
X20935558Y-67297728D01*
X21034164Y-66802000D01*
X20935558Y-66306272D01*
X20654750Y-65886014D01*
X20234492Y-65605206D01*
X19866459Y-65532000D01*
X20234492Y-65458794D01*
X20654750Y-65177986D01*
X20935558Y-64757728D01*
X21034164Y-64262000D01*
X20935558Y-63766272D01*
X20654750Y-63346014D01*
X20265867Y-63086170D01*
X20472320Y-63013954D01*
X20908732Y-62624036D01*
X21162709Y-62096791D01*
X21165358Y-62081026D01*
X21044217Y-61849000D01*
X19685000Y-61849000D01*
X19685000Y-61869000D01*
X19431000Y-61869000D01*
X19431000Y-61849000D01*
X18071783Y-61849000D01*
X17950642Y-62081026D01*
X15746800Y-62081026D01*
X15746800Y-61362974D01*
X17950642Y-61362974D01*
X18071783Y-61595000D01*
X19431000Y-61595000D01*
X19431000Y-61575000D01*
X19685000Y-61575000D01*
X19685000Y-61595000D01*
X21044217Y-61595000D01*
X21165358Y-61362974D01*
X21162709Y-61347209D01*
X20908732Y-60819964D01*
X20472320Y-60430046D01*
X20265867Y-60357830D01*
X20654750Y-60097986D01*
X20935558Y-59677728D01*
X21034164Y-59182000D01*
X20993347Y-58976800D01*
X29463741Y-58976800D01*
X29463741Y-59070000D01*
X29493850Y-59230015D01*
X29588419Y-59376980D01*
X29732715Y-59475573D01*
X29904000Y-59510259D01*
X31404000Y-59510259D01*
X31564015Y-59480150D01*
X31710980Y-59385581D01*
X31809573Y-59241285D01*
X31844259Y-59070000D01*
X31844259Y-57770000D01*
X31814150Y-57609985D01*
X31719581Y-57463020D01*
X31575285Y-57364427D01*
X31404000Y-57329741D01*
X29904000Y-57329741D01*
X29743985Y-57359850D01*
X29597020Y-57454419D01*
X29498427Y-57598715D01*
X29463741Y-57770000D01*
X29463741Y-57863200D01*
X20320000Y-57863200D01*
X20106922Y-57905584D01*
X20044360Y-57947387D01*
X19866459Y-57912000D01*
X20234492Y-57838794D01*
X20654750Y-57557986D01*
X20935558Y-57137728D01*
X21034164Y-56642000D01*
X20935558Y-56146272D01*
X20654750Y-55726014D01*
X20234492Y-55445206D01*
X19866459Y-55372000D01*
X20234492Y-55298794D01*
X20654750Y-55017986D01*
X20935558Y-54597728D01*
X21034164Y-54102000D01*
X20935558Y-53606272D01*
X20654750Y-53186014D01*
X20234492Y-52905206D01*
X19738764Y-52806600D01*
X19377236Y-52806600D01*
X18881508Y-52905206D01*
X18461250Y-53186014D01*
X18180442Y-53606272D01*
X18081836Y-54102000D01*
X18180442Y-54597728D01*
X18461250Y-55017986D01*
X18881508Y-55298794D01*
X19249541Y-55372000D01*
X18881508Y-55445206D01*
X18461250Y-55726014D01*
X18180442Y-56146272D01*
X18081836Y-56642000D01*
X18180442Y-57137728D01*
X18461250Y-57557986D01*
X18881508Y-57838794D01*
X19249541Y-57912000D01*
X18881508Y-57985206D01*
X18461250Y-58266014D01*
X18180442Y-58686272D01*
X18081836Y-59182000D01*
X18180442Y-59677728D01*
X18461250Y-60097986D01*
X18850133Y-60357830D01*
X18643680Y-60430046D01*
X18207268Y-60819964D01*
X17953291Y-61347209D01*
X17950642Y-61362974D01*
X15746800Y-61362974D01*
X15746800Y-41853100D01*
X18714097Y-41853100D01*
X18785026Y-42209684D01*
X18987015Y-42511982D01*
X19289313Y-42713971D01*
X19645897Y-42784900D01*
X20243183Y-42784900D01*
X20599767Y-42713971D01*
X20902065Y-42511982D01*
X21104054Y-42209684D01*
X21174983Y-41853100D01*
X21104054Y-41496516D01*
X20902065Y-41194218D01*
X20599767Y-40992229D01*
X20243183Y-40921300D01*
X19645897Y-40921300D01*
X19289313Y-40992229D01*
X18987015Y-41194218D01*
X18785026Y-41496516D01*
X18714097Y-41853100D01*
X15746800Y-41853100D01*
X15746800Y-39261850D01*
X21334540Y-39261850D01*
X21334540Y-39329410D01*
X21431213Y-39562799D01*
X21529281Y-39660866D01*
X21529281Y-39853100D01*
X21559390Y-40013115D01*
X21653959Y-40160080D01*
X21798255Y-40258673D01*
X21850897Y-40269333D01*
X21806766Y-40335379D01*
X21737740Y-40682396D01*
X21737740Y-41023804D01*
X21806766Y-41370821D01*
X22003336Y-41665008D01*
X22297523Y-41861578D01*
X22644540Y-41930604D01*
X22991557Y-41861578D01*
X23285744Y-41665008D01*
X23482314Y-41370821D01*
X23551340Y-41023804D01*
X23551340Y-40682396D01*
X23482314Y-40335379D01*
X23439193Y-40270845D01*
X23479555Y-40263250D01*
X23626520Y-40168681D01*
X23725113Y-40024385D01*
X23759799Y-39853100D01*
X23759799Y-39660866D01*
X23857867Y-39562799D01*
X23954540Y-39329410D01*
X23954540Y-39261850D01*
X23795790Y-39103100D01*
X23572159Y-39103100D01*
X23490825Y-39047527D01*
X23319540Y-39012841D01*
X21969540Y-39012841D01*
X21809525Y-39042950D01*
X21716049Y-39103100D01*
X21493290Y-39103100D01*
X21334540Y-39261850D01*
X15746800Y-39261850D01*
X15746800Y-38676790D01*
X21334540Y-38676790D01*
X21334540Y-38744350D01*
X21493290Y-38903100D01*
X21716921Y-38903100D01*
X21798255Y-38958673D01*
X21969540Y-38993359D01*
X23319540Y-38993359D01*
X23479555Y-38963250D01*
X23573031Y-38903100D01*
X23795790Y-38903100D01*
X23954540Y-38744350D01*
X23954540Y-38676790D01*
X23857867Y-38443401D01*
X23759799Y-38345334D01*
X23759799Y-38153100D01*
X23735415Y-38023511D01*
X23759799Y-37903100D01*
X23759799Y-37609900D01*
X25652963Y-37609900D01*
X25746927Y-37704028D01*
X26015797Y-37815673D01*
X26306925Y-37815927D01*
X26575990Y-37704752D01*
X26782028Y-37499073D01*
X26893673Y-37230203D01*
X26893927Y-36939075D01*
X26782752Y-36670010D01*
X26577073Y-36463972D01*
X26308203Y-36352327D01*
X26017075Y-36352073D01*
X25748010Y-36463248D01*
X25714900Y-36496300D01*
X23562207Y-36496300D01*
X23490825Y-36447527D01*
X23438183Y-36436867D01*
X23482314Y-36370821D01*
X23551340Y-36023804D01*
X23551340Y-35682396D01*
X23482314Y-35335379D01*
X23285744Y-35041192D01*
X22991557Y-34844622D01*
X22644540Y-34775596D01*
X22297523Y-34844622D01*
X22003336Y-35041192D01*
X21806766Y-35335379D01*
X21737740Y-35682396D01*
X21737740Y-36023804D01*
X21806766Y-36370821D01*
X21849887Y-36435355D01*
X21809525Y-36442950D01*
X21662560Y-36537519D01*
X21563967Y-36681815D01*
X21529281Y-36853100D01*
X21529281Y-37253100D01*
X21553665Y-37382689D01*
X21529281Y-37503100D01*
X21529281Y-37903100D01*
X21553665Y-38032689D01*
X21529281Y-38153100D01*
X21529281Y-38345334D01*
X21431213Y-38443401D01*
X21334540Y-38676790D01*
X15746800Y-38676790D01*
X15746800Y-34853100D01*
X18714097Y-34853100D01*
X18785026Y-35209684D01*
X18987015Y-35511982D01*
X19289313Y-35713971D01*
X19645897Y-35784900D01*
X20243183Y-35784900D01*
X20599767Y-35713971D01*
X20902065Y-35511982D01*
X21104054Y-35209684D01*
X21174983Y-34853100D01*
X21104054Y-34496516D01*
X20902065Y-34194218D01*
X20599767Y-33992229D01*
X20243183Y-33921300D01*
X19645897Y-33921300D01*
X19289313Y-33992229D01*
X18987015Y-34194218D01*
X18785026Y-34496516D01*
X18714097Y-34853100D01*
X15746800Y-34853100D01*
X15746800Y-30257750D01*
X16690340Y-30257750D01*
X16690340Y-30998740D01*
X16787013Y-31232129D01*
X16965642Y-31410757D01*
X17199031Y-31507430D01*
X18289270Y-31507430D01*
X18448020Y-31348680D01*
X18448020Y-30099000D01*
X18702020Y-30099000D01*
X18702020Y-31348680D01*
X18860770Y-31507430D01*
X19951009Y-31507430D01*
X20184398Y-31410757D01*
X20363027Y-31232129D01*
X20459700Y-30998740D01*
X20459700Y-30257750D01*
X20300950Y-30099000D01*
X18702020Y-30099000D01*
X18448020Y-30099000D01*
X16849090Y-30099000D01*
X16690340Y-30257750D01*
X15746800Y-30257750D01*
X15746800Y-28945260D01*
X16690340Y-28945260D01*
X16690340Y-29686250D01*
X16849090Y-29845000D01*
X18448020Y-29845000D01*
X18448020Y-28595320D01*
X18702020Y-28595320D01*
X18702020Y-29845000D01*
X20300950Y-29845000D01*
X20459700Y-29686250D01*
X20459700Y-29071570D01*
X20883041Y-29071570D01*
X20883041Y-30872430D01*
X20913150Y-31032445D01*
X21007719Y-31179410D01*
X21152015Y-31278003D01*
X21323300Y-31312689D01*
X23822660Y-31312689D01*
X23982675Y-31282580D01*
X24129640Y-31188011D01*
X24228233Y-31043715D01*
X24262919Y-30872430D01*
X24262919Y-30528800D01*
X25677366Y-30528800D01*
X28065200Y-32916634D01*
X28065200Y-34215741D01*
X27872000Y-34215741D01*
X27711985Y-34245850D01*
X27565020Y-34340419D01*
X27466427Y-34484715D01*
X27431741Y-34656000D01*
X27431741Y-35956000D01*
X27461850Y-36116015D01*
X27556419Y-36262980D01*
X27700715Y-36361573D01*
X27872000Y-36396259D01*
X29372000Y-36396259D01*
X29415200Y-36388130D01*
X29415200Y-39393366D01*
X28308283Y-40500283D01*
X28187584Y-40680922D01*
X28145200Y-40894000D01*
X28145200Y-47752000D01*
X28187584Y-47965078D01*
X28308283Y-48145717D01*
X32797200Y-52634634D01*
X32797200Y-57329741D01*
X32604000Y-57329741D01*
X32443985Y-57359850D01*
X32297020Y-57454419D01*
X32198427Y-57598715D01*
X32163741Y-57770000D01*
X32163741Y-59070000D01*
X32193850Y-59230015D01*
X32288419Y-59376980D01*
X32432715Y-59475573D01*
X32604000Y-59510259D01*
X32797200Y-59510259D01*
X32797200Y-60532000D01*
X32839584Y-60745078D01*
X32960283Y-60925717D01*
X33050151Y-61015585D01*
X33050073Y-61104925D01*
X33161248Y-61373990D01*
X33366927Y-61580028D01*
X33635797Y-61691673D01*
X33926925Y-61691927D01*
X34195990Y-61580752D01*
X34402028Y-61375073D01*
X34495200Y-61150691D01*
X34495200Y-61491366D01*
X32052825Y-63933741D01*
X30666000Y-63933741D01*
X30505985Y-63963850D01*
X30359020Y-64058419D01*
X30260427Y-64202715D01*
X30225741Y-64374000D01*
X30225741Y-65674000D01*
X30255850Y-65834015D01*
X30350419Y-65980980D01*
X30494715Y-66079573D01*
X30666000Y-66114259D01*
X30971200Y-66114259D01*
X30971200Y-69754429D01*
X30867985Y-69773850D01*
X30721020Y-69868419D01*
X30622427Y-70012715D01*
X30587741Y-70184000D01*
X30587741Y-73384000D01*
X30617850Y-73544015D01*
X30712419Y-73690980D01*
X30856715Y-73789573D01*
X30971200Y-73812757D01*
X30971200Y-76554429D01*
X30867985Y-76573850D01*
X30721020Y-76668419D01*
X30622427Y-76812715D01*
X30587741Y-76984000D01*
X30587741Y-80184000D01*
X30617850Y-80344015D01*
X30712419Y-80490980D01*
X30856715Y-80589573D01*
X31028000Y-80624259D01*
X32028000Y-80624259D01*
X32188015Y-80594150D01*
X32334980Y-80499581D01*
X32433573Y-80355285D01*
X32468259Y-80184000D01*
X32468259Y-78869750D01*
X34393000Y-78869750D01*
X34393000Y-80310309D01*
X34489673Y-80543698D01*
X34668301Y-80722327D01*
X34901690Y-80819000D01*
X35242250Y-80819000D01*
X35401000Y-80660250D01*
X35401000Y-78711000D01*
X35655000Y-78711000D01*
X35655000Y-80660250D01*
X35813750Y-80819000D01*
X36154310Y-80819000D01*
X36387699Y-80722327D01*
X36566327Y-80543698D01*
X36663000Y-80310309D01*
X36663000Y-78869750D01*
X36504250Y-78711000D01*
X35655000Y-78711000D01*
X35401000Y-78711000D01*
X34551750Y-78711000D01*
X34393000Y-78869750D01*
X32468259Y-78869750D01*
X32468259Y-76984000D01*
X32444493Y-76857691D01*
X34393000Y-76857691D01*
X34393000Y-78298250D01*
X34551750Y-78457000D01*
X35401000Y-78457000D01*
X35401000Y-76507750D01*
X35655000Y-76507750D01*
X35655000Y-78457000D01*
X36504250Y-78457000D01*
X36663000Y-78298250D01*
X36663000Y-76857691D01*
X36566327Y-76624302D01*
X36387699Y-76445673D01*
X36154310Y-76349000D01*
X35813750Y-76349000D01*
X35655000Y-76507750D01*
X35401000Y-76507750D01*
X35242250Y-76349000D01*
X34901690Y-76349000D01*
X34668301Y-76445673D01*
X34489673Y-76624302D01*
X34393000Y-76857691D01*
X32444493Y-76857691D01*
X32438150Y-76823985D01*
X32343581Y-76677020D01*
X32199285Y-76578427D01*
X32084800Y-76555243D01*
X32084800Y-73813571D01*
X32188015Y-73794150D01*
X32334980Y-73699581D01*
X32433573Y-73555285D01*
X32468259Y-73384000D01*
X32468259Y-72069750D01*
X34393000Y-72069750D01*
X34393000Y-73510309D01*
X34489673Y-73743698D01*
X34668301Y-73922327D01*
X34901690Y-74019000D01*
X35242250Y-74019000D01*
X35401000Y-73860250D01*
X35401000Y-71911000D01*
X35655000Y-71911000D01*
X35655000Y-73860250D01*
X35813750Y-74019000D01*
X36154310Y-74019000D01*
X36387699Y-73922327D01*
X36566327Y-73743698D01*
X36663000Y-73510309D01*
X36663000Y-72069750D01*
X36504250Y-71911000D01*
X35655000Y-71911000D01*
X35401000Y-71911000D01*
X34551750Y-71911000D01*
X34393000Y-72069750D01*
X32468259Y-72069750D01*
X32468259Y-70184000D01*
X32444493Y-70057691D01*
X34393000Y-70057691D01*
X34393000Y-71498250D01*
X34551750Y-71657000D01*
X35401000Y-71657000D01*
X35401000Y-69707750D01*
X35655000Y-69707750D01*
X35655000Y-71657000D01*
X36504250Y-71657000D01*
X36663000Y-71498250D01*
X36663000Y-70057691D01*
X36566327Y-69824302D01*
X36387699Y-69645673D01*
X36154310Y-69549000D01*
X35813750Y-69549000D01*
X35655000Y-69707750D01*
X35401000Y-69707750D01*
X35242250Y-69549000D01*
X34901690Y-69549000D01*
X34668301Y-69645673D01*
X34489673Y-69824302D01*
X34393000Y-70057691D01*
X32444493Y-70057691D01*
X32438150Y-70023985D01*
X32343581Y-69877020D01*
X32199285Y-69778427D01*
X32084800Y-69755243D01*
X32084800Y-66114259D01*
X32166000Y-66114259D01*
X32326015Y-66084150D01*
X32472980Y-65989581D01*
X32571573Y-65845285D01*
X32606259Y-65674000D01*
X32606259Y-64955175D01*
X32925741Y-64635693D01*
X32925741Y-65674000D01*
X32955850Y-65834015D01*
X33050419Y-65980980D01*
X33194715Y-66079573D01*
X33366000Y-66114259D01*
X33559200Y-66114259D01*
X33559200Y-66120000D01*
X33601584Y-66333078D01*
X33722283Y-66513717D01*
X35082151Y-67873585D01*
X35082073Y-67962925D01*
X35193248Y-68231990D01*
X35398927Y-68438028D01*
X35667797Y-68549673D01*
X35958925Y-68549927D01*
X36227990Y-68438752D01*
X36434028Y-68233073D01*
X36545673Y-67964203D01*
X36545927Y-67673075D01*
X36434752Y-67404010D01*
X36229073Y-67197972D01*
X35960203Y-67086327D01*
X35869682Y-67086248D01*
X34892674Y-66109240D01*
X35026015Y-66084150D01*
X35172980Y-65989581D01*
X35271573Y-65845285D01*
X35306259Y-65674000D01*
X35306259Y-64993068D01*
X35420283Y-65163717D01*
X40337200Y-70080634D01*
X40337200Y-78440371D01*
X40218650Y-78489355D01*
X39882536Y-78824884D01*
X39700408Y-79263497D01*
X39699993Y-79738420D01*
X39881355Y-80177350D01*
X40216884Y-80513464D01*
X40655497Y-80695592D01*
X41130420Y-80696007D01*
X41569350Y-80514645D01*
X41601838Y-80482213D01*
X42633392Y-80482213D01*
X42702857Y-80724397D01*
X43226302Y-80911144D01*
X43781368Y-80883362D01*
X44165143Y-80724397D01*
X44234608Y-80482213D01*
X43434000Y-79681605D01*
X42633392Y-80482213D01*
X41601838Y-80482213D01*
X41905464Y-80179116D01*
X42051535Y-79827337D01*
X42052638Y-79849368D01*
X42211603Y-80233143D01*
X42453787Y-80302608D01*
X43254395Y-79502000D01*
X42453787Y-78701392D01*
X42211603Y-78770857D01*
X42059616Y-79196870D01*
X41906645Y-78826650D01*
X41602313Y-78521787D01*
X42633392Y-78521787D01*
X43434000Y-79322395D01*
X44234608Y-78521787D01*
X44165143Y-78279603D01*
X43641698Y-78092856D01*
X43086632Y-78120638D01*
X42702857Y-78279603D01*
X42633392Y-78521787D01*
X41602313Y-78521787D01*
X41571116Y-78490536D01*
X41450800Y-78440576D01*
X41450800Y-69850000D01*
X41408416Y-69636922D01*
X41287717Y-69456283D01*
X36370800Y-64539366D01*
X36370800Y-64049715D01*
X36436283Y-64147717D01*
X45417200Y-73128634D01*
X45417200Y-78440371D01*
X45298650Y-78489355D01*
X44962536Y-78824884D01*
X44816465Y-79176663D01*
X44815362Y-79154632D01*
X44656397Y-78770857D01*
X44414213Y-78701392D01*
X43613605Y-79502000D01*
X44414213Y-80302608D01*
X44656397Y-80233143D01*
X44808384Y-79807130D01*
X44961355Y-80177350D01*
X45296884Y-80513464D01*
X45735497Y-80695592D01*
X46210420Y-80696007D01*
X46649350Y-80514645D01*
X46985464Y-80179116D01*
X47167592Y-79740503D01*
X47168007Y-79265580D01*
X46986645Y-78826650D01*
X46651116Y-78490536D01*
X46530800Y-78440576D01*
X46530800Y-74527026D01*
X50869042Y-74527026D01*
X51041312Y-74942947D01*
X51435510Y-75374821D01*
X51964973Y-75622968D01*
X52197000Y-75502469D01*
X52197000Y-74295000D01*
X50990183Y-74295000D01*
X50869042Y-74527026D01*
X46530800Y-74527026D01*
X46530800Y-72898000D01*
X46488416Y-72684922D01*
X46367717Y-72504283D01*
X37843070Y-63979636D01*
X39700200Y-63979636D01*
X39700200Y-64544364D01*
X39791073Y-65001211D01*
X40049856Y-65388508D01*
X40437153Y-65647291D01*
X40894000Y-65738164D01*
X41350847Y-65647291D01*
X41738144Y-65388508D01*
X41996927Y-65001211D01*
X42087800Y-64544364D01*
X42087800Y-64389000D01*
X44577000Y-64389000D01*
X44577000Y-64643000D01*
X44731941Y-65167941D01*
X45075974Y-65593630D01*
X45556723Y-65855260D01*
X45630930Y-65870220D01*
X45847000Y-65747720D01*
X45847000Y-64389000D01*
X46101000Y-64389000D01*
X46101000Y-65747720D01*
X46317070Y-65870220D01*
X46391277Y-65855260D01*
X46872026Y-65593630D01*
X47216059Y-65167941D01*
X47371000Y-64643000D01*
X47371000Y-64389000D01*
X46101000Y-64389000D01*
X45847000Y-64389000D01*
X44577000Y-64389000D01*
X42087800Y-64389000D01*
X42087800Y-63979636D01*
X42068180Y-63881000D01*
X44577000Y-63881000D01*
X44577000Y-64135000D01*
X45847000Y-64135000D01*
X45847000Y-62776280D01*
X46101000Y-62776280D01*
X46101000Y-64135000D01*
X47371000Y-64135000D01*
X47371000Y-63881000D01*
X47216059Y-63356059D01*
X46872026Y-62930370D01*
X46391277Y-62668740D01*
X46317070Y-62653780D01*
X46101000Y-62776280D01*
X45847000Y-62776280D01*
X45630930Y-62653780D01*
X45556723Y-62668740D01*
X45075974Y-62930370D01*
X44731941Y-63356059D01*
X44577000Y-63881000D01*
X42068180Y-63881000D01*
X41996927Y-63522789D01*
X41738144Y-63135492D01*
X41350847Y-62876709D01*
X40894000Y-62785836D01*
X40437153Y-62876709D01*
X40049856Y-63135492D01*
X39791073Y-63522789D01*
X39700200Y-63979636D01*
X37843070Y-63979636D01*
X37386800Y-63523366D01*
X37386800Y-58240234D01*
X38214283Y-59067717D01*
X38394922Y-59188416D01*
X38608000Y-59230800D01*
X44981366Y-59230800D01*
X51767200Y-66016634D01*
X51767200Y-67915056D01*
X51382636Y-68172014D01*
X51101828Y-68592272D01*
X51003222Y-69088000D01*
X51101828Y-69583728D01*
X51382636Y-70003986D01*
X51802894Y-70284794D01*
X52170927Y-70358000D01*
X51802894Y-70431206D01*
X51382636Y-70712014D01*
X51101828Y-71132272D01*
X51003222Y-71628000D01*
X51101828Y-72123728D01*
X51382636Y-72543986D01*
X51771404Y-72803753D01*
X51435510Y-72961179D01*
X51041312Y-73393053D01*
X50869042Y-73808974D01*
X50990183Y-74041000D01*
X52197000Y-74041000D01*
X52197000Y-74021000D01*
X52451000Y-74021000D01*
X52451000Y-74041000D01*
X52471000Y-74041000D01*
X52471000Y-74295000D01*
X52451000Y-74295000D01*
X52451000Y-75502469D01*
X52683027Y-75622968D01*
X53212490Y-75374821D01*
X53606688Y-74942947D01*
X53691529Y-74738111D01*
X53922636Y-75083986D01*
X54342894Y-75364794D01*
X54838622Y-75463400D01*
X54889378Y-75463400D01*
X55385106Y-75364794D01*
X55805364Y-75083986D01*
X56086172Y-74663728D01*
X56184778Y-74168000D01*
X56086172Y-73672272D01*
X55805364Y-73252014D01*
X55385106Y-72971206D01*
X55017073Y-72898000D01*
X55385106Y-72824794D01*
X55805364Y-72543986D01*
X56086172Y-72123728D01*
X56184778Y-71628000D01*
X56086172Y-71132272D01*
X55805364Y-70712014D01*
X55385106Y-70431206D01*
X55187294Y-70391859D01*
X55727600Y-70391859D01*
X55887615Y-70361750D01*
X56034580Y-70267181D01*
X56133173Y-70122885D01*
X56167859Y-69951600D01*
X56167859Y-68224400D01*
X56137750Y-68064385D01*
X56043181Y-67917420D01*
X55898885Y-67818827D01*
X55727600Y-67784141D01*
X55420800Y-67784141D01*
X55420800Y-66802000D01*
X55378416Y-66588922D01*
X55257717Y-66408283D01*
X48063184Y-59213750D01*
X56311800Y-59213750D01*
X56311800Y-59917910D01*
X56408473Y-60151299D01*
X56587102Y-60329927D01*
X56820491Y-60426600D01*
X57677050Y-60426600D01*
X57835800Y-60267850D01*
X57835800Y-59055000D01*
X58089800Y-59055000D01*
X58089800Y-60267850D01*
X58248550Y-60426600D01*
X59105109Y-60426600D01*
X59338498Y-60329927D01*
X59517127Y-60151299D01*
X59613800Y-59917910D01*
X59613800Y-59213750D01*
X59455050Y-59055000D01*
X58089800Y-59055000D01*
X57835800Y-59055000D01*
X56470550Y-59055000D01*
X56311800Y-59213750D01*
X48063184Y-59213750D01*
X45921234Y-57071800D01*
X56710908Y-57071800D01*
X56866050Y-57303986D01*
X57053745Y-57429400D01*
X56820491Y-57429400D01*
X56587102Y-57526073D01*
X56408473Y-57704701D01*
X56311800Y-57938090D01*
X56311800Y-58642250D01*
X56470550Y-58801000D01*
X57835800Y-58801000D01*
X57835800Y-58781000D01*
X58089800Y-58781000D01*
X58089800Y-58801000D01*
X59455050Y-58801000D01*
X59613800Y-58642250D01*
X59613800Y-57938090D01*
X59517127Y-57704701D01*
X59338498Y-57526073D01*
X59105109Y-57429400D01*
X58871855Y-57429400D01*
X59059550Y-57303986D01*
X59340358Y-56883728D01*
X59438964Y-56388000D01*
X59340358Y-55892272D01*
X59059550Y-55472014D01*
X58639292Y-55191206D01*
X58271259Y-55118000D01*
X58639292Y-55044794D01*
X59059550Y-54763986D01*
X59340358Y-54343728D01*
X59438964Y-53848000D01*
X59340358Y-53352272D01*
X59059550Y-52932014D01*
X58639292Y-52651206D01*
X58271259Y-52578000D01*
X58639292Y-52504794D01*
X59059550Y-52223986D01*
X59340358Y-51803728D01*
X59438964Y-51308000D01*
X59340358Y-50812272D01*
X59059550Y-50392014D01*
X58639292Y-50111206D01*
X58271259Y-50038000D01*
X58639292Y-49964794D01*
X59059550Y-49683986D01*
X59340358Y-49263728D01*
X59438964Y-48768000D01*
X59340358Y-48272272D01*
X59059550Y-47852014D01*
X58639292Y-47571206D01*
X58271259Y-47498000D01*
X58639292Y-47424794D01*
X59059550Y-47143986D01*
X59340358Y-46723728D01*
X59438964Y-46228000D01*
X59340358Y-45732272D01*
X59059550Y-45312014D01*
X58639292Y-45031206D01*
X58271259Y-44958000D01*
X58639292Y-44884794D01*
X59059550Y-44603986D01*
X59340358Y-44183728D01*
X59438964Y-43688000D01*
X59340358Y-43192272D01*
X59059550Y-42772014D01*
X58639292Y-42491206D01*
X58271259Y-42418000D01*
X58639292Y-42344794D01*
X59059550Y-42063986D01*
X59340358Y-41643728D01*
X59438964Y-41148000D01*
X59340358Y-40652272D01*
X59059550Y-40232014D01*
X58639292Y-39951206D01*
X58271259Y-39878000D01*
X58639292Y-39804794D01*
X59059550Y-39523986D01*
X59340358Y-39103728D01*
X59438964Y-38608000D01*
X59340358Y-38112272D01*
X59059550Y-37692014D01*
X58639292Y-37411206D01*
X58271259Y-37338000D01*
X58639292Y-37264794D01*
X59059550Y-36983986D01*
X59340358Y-36563728D01*
X59438964Y-36068000D01*
X59340358Y-35572272D01*
X59059550Y-35152014D01*
X58639292Y-34871206D01*
X58271259Y-34798000D01*
X58639292Y-34724794D01*
X59059550Y-34443986D01*
X59340358Y-34023728D01*
X59438964Y-33528000D01*
X59340358Y-33032272D01*
X59059550Y-32612014D01*
X58639292Y-32331206D01*
X58271259Y-32258000D01*
X58639292Y-32184794D01*
X59059550Y-31903986D01*
X59340358Y-31483728D01*
X59438964Y-30988000D01*
X59340358Y-30492272D01*
X59059550Y-30072014D01*
X58639292Y-29791206D01*
X58271259Y-29718000D01*
X58639292Y-29644794D01*
X59059550Y-29363986D01*
X59340358Y-28943728D01*
X59438964Y-28448000D01*
X59340358Y-27952272D01*
X59059550Y-27532014D01*
X58639292Y-27251206D01*
X58271259Y-27178000D01*
X58639292Y-27104794D01*
X59059550Y-26823986D01*
X59340358Y-26403728D01*
X59438964Y-25908000D01*
X59340358Y-25412272D01*
X59059550Y-24992014D01*
X58639292Y-24711206D01*
X58271259Y-24638000D01*
X58639292Y-24564794D01*
X59059550Y-24283986D01*
X59340358Y-23863728D01*
X59438964Y-23368000D01*
X59340358Y-22872272D01*
X59059550Y-22452014D01*
X58639292Y-22171206D01*
X58271259Y-22098000D01*
X58639292Y-22024794D01*
X59059550Y-21743986D01*
X59340358Y-21323728D01*
X59438964Y-20828000D01*
X59340358Y-20332272D01*
X59059550Y-19912014D01*
X58639292Y-19631206D01*
X58143564Y-19532600D01*
X57782036Y-19532600D01*
X57286308Y-19631206D01*
X56866050Y-19912014D01*
X56585242Y-20332272D01*
X56486636Y-20828000D01*
X56585242Y-21323728D01*
X56866050Y-21743986D01*
X57286308Y-22024794D01*
X57654341Y-22098000D01*
X57286308Y-22171206D01*
X56866050Y-22452014D01*
X56585242Y-22872272D01*
X56486636Y-23368000D01*
X56585242Y-23863728D01*
X56866050Y-24283986D01*
X57286308Y-24564794D01*
X57654341Y-24638000D01*
X57286308Y-24711206D01*
X56866050Y-24992014D01*
X56585242Y-25412272D01*
X56486636Y-25908000D01*
X56585242Y-26403728D01*
X56866050Y-26823986D01*
X57286308Y-27104794D01*
X57654341Y-27178000D01*
X57286308Y-27251206D01*
X56866050Y-27532014D01*
X56585242Y-27952272D01*
X56486636Y-28448000D01*
X56585242Y-28943728D01*
X56866050Y-29363986D01*
X57286308Y-29644794D01*
X57654341Y-29718000D01*
X57286308Y-29791206D01*
X56866050Y-30072014D01*
X56585242Y-30492272D01*
X56486636Y-30988000D01*
X56585242Y-31483728D01*
X56866050Y-31903986D01*
X57286308Y-32184794D01*
X57654341Y-32258000D01*
X57286308Y-32331206D01*
X56866050Y-32612014D01*
X56585242Y-33032272D01*
X56572128Y-33098200D01*
X55475634Y-33098200D01*
X50431717Y-28054283D01*
X50251078Y-27933584D01*
X50038000Y-27891200D01*
X41910000Y-27891200D01*
X41696922Y-27933584D01*
X41516283Y-28054283D01*
X37706283Y-31864283D01*
X37620800Y-31992217D01*
X37620800Y-26386191D01*
X37684028Y-26323073D01*
X37795673Y-26054203D01*
X37795927Y-25763075D01*
X37684752Y-25494010D01*
X37620800Y-25429946D01*
X37620800Y-24687259D01*
X37814000Y-24687259D01*
X37974015Y-24657150D01*
X38120980Y-24562581D01*
X38219573Y-24418285D01*
X38254259Y-24247000D01*
X38254259Y-22997000D01*
X38224150Y-22836985D01*
X38129581Y-22690020D01*
X37985285Y-22591427D01*
X37814000Y-22556741D01*
X36314000Y-22556741D01*
X36153985Y-22586850D01*
X36007020Y-22681419D01*
X35922089Y-22805720D01*
X35852327Y-22637301D01*
X35673698Y-22458673D01*
X35440309Y-22362000D01*
X34849750Y-22362000D01*
X34691000Y-22520750D01*
X34691000Y-23495000D01*
X34711000Y-23495000D01*
X34711000Y-23749000D01*
X34691000Y-23749000D01*
X34691000Y-24723250D01*
X34849750Y-24882000D01*
X35440309Y-24882000D01*
X35673698Y-24785327D01*
X35852327Y-24606699D01*
X35922825Y-24436503D01*
X35998419Y-24553980D01*
X36142715Y-24652573D01*
X36314000Y-24687259D01*
X36507200Y-24687259D01*
X36507200Y-25429809D01*
X36443972Y-25492927D01*
X36332327Y-25761797D01*
X36332073Y-26052925D01*
X36443248Y-26321990D01*
X36507200Y-26386054D01*
X36507200Y-34720314D01*
X36546136Y-34916059D01*
X36513848Y-34948347D01*
X36539311Y-34922885D01*
X36539311Y-35147391D01*
X36747117Y-35355197D01*
X36749599Y-35368388D01*
X36846189Y-35514032D01*
X37977560Y-36645403D01*
X38111998Y-36737261D01*
X38133941Y-36742021D01*
X38344201Y-36952281D01*
X38568707Y-36952281D01*
X38650420Y-36870568D01*
X38747093Y-36637179D01*
X38747092Y-36498491D01*
X38842176Y-36403407D01*
X38980864Y-36403408D01*
X39214253Y-36306735D01*
X39295966Y-36225022D01*
X39295966Y-36000516D01*
X39088162Y-35792711D01*
X39085679Y-35779518D01*
X38989089Y-35633874D01*
X38319459Y-34964244D01*
X38439300Y-34844402D01*
X39108931Y-35514033D01*
X39243369Y-35605891D01*
X39265313Y-35610651D01*
X39475572Y-35820910D01*
X39700078Y-35820910D01*
X39781791Y-35739197D01*
X39878464Y-35505808D01*
X39878463Y-35367121D01*
X40120460Y-35125124D01*
X40194853Y-35016247D01*
X40297236Y-34948347D01*
X40640000Y-34605583D01*
X40982764Y-34948347D01*
X41091638Y-35022738D01*
X41159540Y-35125124D01*
X41548449Y-35514033D01*
X41657326Y-35588426D01*
X41725226Y-35690809D01*
X42114135Y-36079718D01*
X42223011Y-36154110D01*
X42290911Y-36256494D01*
X42679820Y-36645403D01*
X42788696Y-36719795D01*
X42856597Y-36822180D01*
X43245506Y-37211089D01*
X43354382Y-37285481D01*
X43422282Y-37387865D01*
X43811191Y-37776774D01*
X43920065Y-37851165D01*
X43987967Y-37953551D01*
X44376876Y-38342460D01*
X44485753Y-38416853D01*
X44553653Y-38519236D01*
X44896417Y-38862000D01*
X44553653Y-39204764D01*
X44479262Y-39313638D01*
X44376876Y-39381540D01*
X43987967Y-39770449D01*
X43913574Y-39879326D01*
X43811191Y-39947226D01*
X43569195Y-40189222D01*
X43430507Y-40189221D01*
X43197118Y-40285894D01*
X43066690Y-40416321D01*
X43115405Y-40367607D01*
X43115405Y-40592113D01*
X43323209Y-40799918D01*
X43325692Y-40813111D01*
X43422282Y-40958755D01*
X44553653Y-42090126D01*
X44688091Y-42181984D01*
X44710036Y-42186745D01*
X44920295Y-42397003D01*
X45144801Y-42397003D01*
X45226514Y-42315290D01*
X45323187Y-42081901D01*
X45323186Y-41943213D01*
X45542696Y-41723703D01*
X55647710Y-51828717D01*
X55828349Y-51949416D01*
X56041427Y-51991800D01*
X56710908Y-51991800D01*
X56866050Y-52223986D01*
X57286308Y-52504794D01*
X57654341Y-52578000D01*
X57286308Y-52651206D01*
X56866050Y-52932014D01*
X56585242Y-53352272D01*
X56572128Y-53418200D01*
X46160259Y-53418200D01*
X46160259Y-53213000D01*
X46130150Y-53052985D01*
X46035581Y-52906020D01*
X45891285Y-52807427D01*
X45720000Y-52772741D01*
X44196000Y-52772741D01*
X44035985Y-52802850D01*
X43889020Y-52897419D01*
X43790427Y-53041715D01*
X43755741Y-53213000D01*
X43755741Y-54483000D01*
X43785850Y-54643015D01*
X43880419Y-54789980D01*
X44024715Y-54888573D01*
X44196000Y-54923259D01*
X45720000Y-54923259D01*
X45880015Y-54893150D01*
X46026980Y-54798581D01*
X46125573Y-54654285D01*
X46150377Y-54531800D01*
X56710908Y-54531800D01*
X56866050Y-54763986D01*
X57286308Y-55044794D01*
X57654341Y-55118000D01*
X57286308Y-55191206D01*
X56866050Y-55472014D01*
X56585242Y-55892272D01*
X56572128Y-55958200D01*
X43987636Y-55958200D01*
X42753719Y-54724283D01*
X42573080Y-54603584D01*
X42360002Y-54561200D01*
X41080259Y-54561200D01*
X41080259Y-54483000D01*
X41050150Y-54322985D01*
X40955581Y-54176020D01*
X40811285Y-54077427D01*
X40640000Y-54042741D01*
X39116000Y-54042741D01*
X38955985Y-54072850D01*
X38910800Y-54101926D01*
X38910800Y-53815323D01*
X38989690Y-53848000D01*
X39592250Y-53848000D01*
X39751000Y-53689250D01*
X39751000Y-52705000D01*
X40005000Y-52705000D01*
X40005000Y-53689250D01*
X40163750Y-53848000D01*
X40766310Y-53848000D01*
X40999699Y-53751327D01*
X41178327Y-53572698D01*
X41275000Y-53339309D01*
X41275000Y-52863750D01*
X41116250Y-52705000D01*
X40005000Y-52705000D01*
X39751000Y-52705000D01*
X39731000Y-52705000D01*
X39731000Y-52451000D01*
X39751000Y-52451000D01*
X39751000Y-51466750D01*
X40005000Y-51466750D01*
X40005000Y-52451000D01*
X41116250Y-52451000D01*
X41275000Y-52292250D01*
X41275000Y-51816691D01*
X41178327Y-51583302D01*
X40999699Y-51404673D01*
X40766310Y-51308000D01*
X40163750Y-51308000D01*
X40005000Y-51466750D01*
X39751000Y-51466750D01*
X39592250Y-51308000D01*
X38989690Y-51308000D01*
X38910800Y-51340677D01*
X38910800Y-45338432D01*
X39208120Y-45041112D01*
X39237382Y-45047460D01*
X39409130Y-45015143D01*
X39554774Y-44918553D01*
X40640000Y-43833327D01*
X41725226Y-44918553D01*
X41859664Y-45010411D01*
X41958394Y-45031828D01*
X42702151Y-45775585D01*
X42702073Y-45864925D01*
X42813248Y-46133990D01*
X43018927Y-46340028D01*
X43287797Y-46451673D01*
X43578925Y-46451927D01*
X43847990Y-46340752D01*
X44054028Y-46135073D01*
X44165673Y-45866203D01*
X44165927Y-45575075D01*
X44054752Y-45306010D01*
X43849073Y-45099972D01*
X43580203Y-44988327D01*
X43489682Y-44988248D01*
X42877919Y-44376485D01*
X42913531Y-44352867D01*
X43302440Y-43963958D01*
X43376831Y-43855084D01*
X43479217Y-43787182D01*
X43868126Y-43398273D01*
X43942518Y-43289397D01*
X44044902Y-43221497D01*
X44286899Y-42979500D01*
X44425587Y-42979501D01*
X44658976Y-42882828D01*
X44740689Y-42801115D01*
X44740689Y-42576609D01*
X44532883Y-42368803D01*
X44530401Y-42355612D01*
X44433811Y-42209968D01*
X43302440Y-41078597D01*
X43168002Y-40986739D01*
X43146059Y-40981979D01*
X42935799Y-40771719D01*
X42711293Y-40771719D01*
X42764811Y-40718200D01*
X42629580Y-40853432D01*
X42532907Y-41086821D01*
X42532908Y-41225509D01*
X42290911Y-41467506D01*
X42216519Y-41576382D01*
X42114135Y-41644282D01*
X41725226Y-42033191D01*
X41650835Y-42142065D01*
X41548449Y-42209967D01*
X41159540Y-42598876D01*
X41085147Y-42707753D01*
X40982764Y-42775653D01*
X40640000Y-43118417D01*
X40297236Y-42775653D01*
X40188362Y-42701262D01*
X40120460Y-42598876D01*
X39731551Y-42209967D01*
X39622674Y-42135574D01*
X39554774Y-42033191D01*
X39165865Y-41644282D01*
X39056989Y-41569890D01*
X38989089Y-41467506D01*
X38600180Y-41078597D01*
X38491304Y-41004205D01*
X38423403Y-40901820D01*
X38034494Y-40512911D01*
X37925618Y-40438519D01*
X37857718Y-40336135D01*
X37468809Y-39947226D01*
X37359935Y-39872835D01*
X37292033Y-39770449D01*
X36903124Y-39381540D01*
X36794247Y-39307147D01*
X36726347Y-39204764D01*
X36383583Y-38862000D01*
X36726347Y-38519236D01*
X36800738Y-38410362D01*
X36903124Y-38342460D01*
X37292033Y-37953551D01*
X37366426Y-37844674D01*
X37468809Y-37776774D01*
X37710805Y-37534778D01*
X37849493Y-37534779D01*
X38082882Y-37438106D01*
X38164595Y-37356393D01*
X38164595Y-37131887D01*
X37956791Y-36924082D01*
X37954308Y-36910889D01*
X37857718Y-36765245D01*
X36726347Y-35633874D01*
X36591909Y-35542016D01*
X36569964Y-35537255D01*
X36359705Y-35326997D01*
X36195375Y-35326997D01*
X35334800Y-34466422D01*
X35334800Y-30021259D01*
X35528000Y-30021259D01*
X35688015Y-29991150D01*
X35834980Y-29896581D01*
X35933573Y-29752285D01*
X35968259Y-29581000D01*
X35968259Y-28331000D01*
X35938150Y-28170985D01*
X35843581Y-28024020D01*
X35699285Y-27925427D01*
X35528000Y-27890741D01*
X35334800Y-27890741D01*
X35334800Y-27666000D01*
X35292416Y-27452922D01*
X35171717Y-27272283D01*
X34005849Y-26106415D01*
X34005927Y-26017075D01*
X33894752Y-25748010D01*
X33689073Y-25541972D01*
X33420203Y-25430327D01*
X33329682Y-25430248D01*
X31889717Y-23990283D01*
X31766198Y-23907750D01*
X33179000Y-23907750D01*
X33179000Y-24373310D01*
X33275673Y-24606699D01*
X33454302Y-24785327D01*
X33687691Y-24882000D01*
X34278250Y-24882000D01*
X34437000Y-24723250D01*
X34437000Y-23749000D01*
X33337750Y-23749000D01*
X33179000Y-23907750D01*
X31766198Y-23907750D01*
X31709078Y-23869584D01*
X31496000Y-23827200D01*
X31242259Y-23827200D01*
X31242259Y-23734000D01*
X31212150Y-23573985D01*
X31117581Y-23427020D01*
X30973285Y-23328427D01*
X30802000Y-23293741D01*
X29302000Y-23293741D01*
X29141985Y-23323850D01*
X28995020Y-23418419D01*
X28896427Y-23562715D01*
X28861741Y-23734000D01*
X28861741Y-25034000D01*
X28891850Y-25194015D01*
X28986419Y-25340980D01*
X29130715Y-25439573D01*
X29302000Y-25474259D01*
X30802000Y-25474259D01*
X30962015Y-25444150D01*
X31108980Y-25349581D01*
X31207573Y-25205285D01*
X31242259Y-25034000D01*
X31242259Y-24940800D01*
X31265366Y-24940800D01*
X32542151Y-26217585D01*
X32542073Y-26306925D01*
X32653248Y-26575990D01*
X32858927Y-26782028D01*
X33127797Y-26893673D01*
X33218318Y-26893752D01*
X34215307Y-27890741D01*
X34028000Y-27890741D01*
X33867985Y-27920850D01*
X33721020Y-28015419D01*
X33636089Y-28139720D01*
X33566327Y-27971301D01*
X33387698Y-27792673D01*
X33154309Y-27696000D01*
X32563750Y-27696000D01*
X32405000Y-27854750D01*
X32405000Y-28829000D01*
X32425000Y-28829000D01*
X32425000Y-29083000D01*
X32405000Y-29083000D01*
X32405000Y-30057250D01*
X32563750Y-30216000D01*
X33154309Y-30216000D01*
X33387698Y-30119327D01*
X33566327Y-29940699D01*
X33636825Y-29770503D01*
X33712419Y-29887980D01*
X33856715Y-29986573D01*
X34028000Y-30021259D01*
X34221200Y-30021259D01*
X34221200Y-34449766D01*
X32651717Y-32880283D01*
X32471078Y-32759584D01*
X32258000Y-32717200D01*
X30480000Y-32717200D01*
X30266922Y-32759584D01*
X30086283Y-32880283D01*
X29578283Y-33388283D01*
X29457584Y-33568922D01*
X29415200Y-33782000D01*
X29415200Y-34224489D01*
X29372000Y-34215741D01*
X29178800Y-34215741D01*
X29178800Y-32686000D01*
X29136416Y-32472922D01*
X29015717Y-32292283D01*
X26301717Y-29578283D01*
X26121078Y-29457584D01*
X25908000Y-29415200D01*
X24262919Y-29415200D01*
X24262919Y-29241750D01*
X30893000Y-29241750D01*
X30893000Y-29707310D01*
X30989673Y-29940699D01*
X31168302Y-30119327D01*
X31401691Y-30216000D01*
X31992250Y-30216000D01*
X32151000Y-30057250D01*
X32151000Y-29083000D01*
X31051750Y-29083000D01*
X30893000Y-29241750D01*
X24262919Y-29241750D01*
X24262919Y-29071570D01*
X24232810Y-28911555D01*
X24138241Y-28764590D01*
X23993945Y-28665997D01*
X23822660Y-28631311D01*
X21323300Y-28631311D01*
X21163285Y-28661420D01*
X21016320Y-28755989D01*
X20917727Y-28900285D01*
X20883041Y-29071570D01*
X20459700Y-29071570D01*
X20459700Y-28945260D01*
X20363027Y-28711871D01*
X20184398Y-28533243D01*
X19951009Y-28436570D01*
X18860770Y-28436570D01*
X18702020Y-28595320D01*
X18448020Y-28595320D01*
X18289270Y-28436570D01*
X17199031Y-28436570D01*
X16965642Y-28533243D01*
X16787013Y-28711871D01*
X16690340Y-28945260D01*
X15746800Y-28945260D01*
X15746800Y-28204690D01*
X30893000Y-28204690D01*
X30893000Y-28670250D01*
X31051750Y-28829000D01*
X32151000Y-28829000D01*
X32151000Y-27854750D01*
X31992250Y-27696000D01*
X31401691Y-27696000D01*
X31168302Y-27792673D01*
X30989673Y-27971301D01*
X30893000Y-28204690D01*
X15746800Y-28204690D01*
X15746800Y-23907750D01*
X16690340Y-23907750D01*
X16690340Y-24648740D01*
X16787013Y-24882129D01*
X16965642Y-25060757D01*
X17199031Y-25157430D01*
X18289270Y-25157430D01*
X18448020Y-24998680D01*
X18448020Y-23749000D01*
X18702020Y-23749000D01*
X18702020Y-24998680D01*
X18860770Y-25157430D01*
X19951009Y-25157430D01*
X20184398Y-25060757D01*
X20363027Y-24882129D01*
X20459700Y-24648740D01*
X20459700Y-23907750D01*
X20300950Y-23749000D01*
X18702020Y-23749000D01*
X18448020Y-23749000D01*
X16849090Y-23749000D01*
X16690340Y-23907750D01*
X15746800Y-23907750D01*
X15746800Y-22595260D01*
X16690340Y-22595260D01*
X16690340Y-23336250D01*
X16849090Y-23495000D01*
X18448020Y-23495000D01*
X18448020Y-22245320D01*
X18702020Y-22245320D01*
X18702020Y-23495000D01*
X20300950Y-23495000D01*
X20459700Y-23336250D01*
X20459700Y-22721570D01*
X20883041Y-22721570D01*
X20883041Y-24522430D01*
X20913150Y-24682445D01*
X21007719Y-24829410D01*
X21152015Y-24928003D01*
X21323300Y-24962689D01*
X23822660Y-24962689D01*
X23938990Y-24940800D01*
X26161741Y-24940800D01*
X26161741Y-25034000D01*
X26191850Y-25194015D01*
X26286419Y-25340980D01*
X26430715Y-25439573D01*
X26602000Y-25474259D01*
X28102000Y-25474259D01*
X28262015Y-25444150D01*
X28408980Y-25349581D01*
X28507573Y-25205285D01*
X28542259Y-25034000D01*
X28542259Y-23734000D01*
X28512150Y-23573985D01*
X28417581Y-23427020D01*
X28273285Y-23328427D01*
X28102000Y-23293741D01*
X26602000Y-23293741D01*
X26441985Y-23323850D01*
X26295020Y-23418419D01*
X26196427Y-23562715D01*
X26161741Y-23734000D01*
X26161741Y-23827200D01*
X24262919Y-23827200D01*
X24262919Y-22870690D01*
X33179000Y-22870690D01*
X33179000Y-23336250D01*
X33337750Y-23495000D01*
X34437000Y-23495000D01*
X34437000Y-22520750D01*
X34278250Y-22362000D01*
X33687691Y-22362000D01*
X33454302Y-22458673D01*
X33275673Y-22637301D01*
X33179000Y-22870690D01*
X24262919Y-22870690D01*
X24262919Y-22721570D01*
X24232810Y-22561555D01*
X24138241Y-22414590D01*
X23993945Y-22315997D01*
X23822660Y-22281311D01*
X21323300Y-22281311D01*
X21163285Y-22311420D01*
X21016320Y-22405989D01*
X20917727Y-22550285D01*
X20883041Y-22721570D01*
X20459700Y-22721570D01*
X20459700Y-22595260D01*
X20363027Y-22361871D01*
X20184398Y-22183243D01*
X19951009Y-22086570D01*
X18860770Y-22086570D01*
X18702020Y-22245320D01*
X18448020Y-22245320D01*
X18289270Y-22086570D01*
X17199031Y-22086570D01*
X16965642Y-22183243D01*
X16787013Y-22361871D01*
X16690340Y-22595260D01*
X15746800Y-22595260D01*
X15746800Y-19302800D01*
X60453200Y-19302800D01*
X60453200Y-81281200D01*
M02*
