G04 #@! TF.FileFunction,Legend,Top*
%FSLAX46Y46*%
G04 Gerber Fmt 4.6, Leading zero omitted, Abs format (unit mm)*
G04 Created by KiCad (PCBNEW 0.201508140901+6091~28~ubuntu14.04.1-product) date Tue 23 Feb 2016 10:02:54 PM EST*
%MOMM*%
G01*
G04 APERTURE LIST*
%ADD10C,0.100000*%
%ADD11C,0.300000*%
%ADD12C,0.150000*%
G04 APERTURE END LIST*
D10*
D11*
X38195143Y-15202857D02*
X37695143Y-15202857D01*
X37695143Y-15988571D02*
X37695143Y-14488571D01*
X38409429Y-14488571D01*
X38980857Y-15988571D02*
X38980857Y-14488571D01*
X39480857Y-15560000D01*
X39980857Y-14488571D01*
X39980857Y-15988571D01*
X41623714Y-14988571D02*
X42195143Y-14988571D01*
X41838000Y-14488571D02*
X41838000Y-15774286D01*
X41909428Y-15917143D01*
X42052286Y-15988571D01*
X42195143Y-15988571D01*
X43338000Y-14988571D02*
X43338000Y-15988571D01*
X42695143Y-14988571D02*
X42695143Y-15774286D01*
X42766571Y-15917143D01*
X42909429Y-15988571D01*
X43123714Y-15988571D01*
X43266571Y-15917143D01*
X43338000Y-15845714D01*
X44052286Y-14988571D02*
X44052286Y-15988571D01*
X44052286Y-15131429D02*
X44123714Y-15060000D01*
X44266572Y-14988571D01*
X44480857Y-14988571D01*
X44623714Y-15060000D01*
X44695143Y-15202857D01*
X44695143Y-15988571D01*
X45980857Y-15917143D02*
X45838000Y-15988571D01*
X45552286Y-15988571D01*
X45409429Y-15917143D01*
X45338000Y-15774286D01*
X45338000Y-15202857D01*
X45409429Y-15060000D01*
X45552286Y-14988571D01*
X45838000Y-14988571D01*
X45980857Y-15060000D01*
X46052286Y-15202857D01*
X46052286Y-15345714D01*
X45338000Y-15488571D01*
X46695143Y-15988571D02*
X46695143Y-14988571D01*
X46695143Y-15274286D02*
X46766571Y-15131429D01*
X46838000Y-15060000D01*
X46980857Y-14988571D01*
X47123714Y-14988571D01*
X37552286Y-17388571D02*
X37909429Y-18388571D01*
X38266571Y-17388571D01*
X38838000Y-18245714D02*
X38909428Y-18317143D01*
X38838000Y-18388571D01*
X38766571Y-18317143D01*
X38838000Y-18245714D01*
X38838000Y-18388571D01*
X40338000Y-18388571D02*
X39480857Y-18388571D01*
X39909429Y-18388571D02*
X39909429Y-16888571D01*
X39766572Y-17102857D01*
X39623714Y-17245714D01*
X39480857Y-17317143D01*
D12*
X30528000Y-71934000D02*
X30728000Y-71934000D01*
X36528000Y-71934000D02*
X36328000Y-71934000D01*
X36528000Y-78434000D02*
X36328000Y-78434000D01*
X30528000Y-78434000D02*
X30728000Y-78434000D01*
X32328000Y-78434000D02*
X34728000Y-78434000D01*
X32328000Y-71934000D02*
X34728000Y-71934000D01*
X30528000Y-71934000D02*
X30528000Y-78434000D01*
X36528000Y-78434000D02*
X36528000Y-71934000D01*
X34528000Y-75184000D02*
G75*
G03X34528000Y-75184000I-1000000J0D01*
G01*
X35028000Y-75184000D02*
G75*
G03X35028000Y-75184000I-1500000J0D01*
G01*
X40640000Y-33735476D02*
X40410190Y-33965286D01*
X45766524Y-38862000D02*
X45536714Y-39091810D01*
X40640000Y-43988524D02*
X40869810Y-43758714D01*
X35513476Y-38862000D02*
X35743286Y-38632190D01*
X40640000Y-33735476D02*
X40869810Y-33965286D01*
X35513476Y-38862000D02*
X35743286Y-39091810D01*
X40640000Y-43988524D02*
X40410190Y-43758714D01*
X45766524Y-38862000D02*
X45536714Y-38632190D01*
X40410190Y-33965286D02*
X39402563Y-32957658D01*
X41148000Y-51308000D02*
X38862000Y-51308000D01*
X38862000Y-51308000D02*
X38862000Y-56388000D01*
X38862000Y-56388000D02*
X41148000Y-56388000D01*
X44196000Y-51308000D02*
X45974000Y-52832000D01*
X45974000Y-52832000D02*
X45974000Y-54864000D01*
X45974000Y-54864000D02*
X44196000Y-56388000D01*
X43221219Y-53848000D02*
G75*
G03X43221219Y-53848000I-803219J0D01*
G01*
X66573400Y-16713200D02*
X87147400Y-16687800D01*
X87147400Y-16687800D02*
X87071200Y-83134200D01*
X87071200Y-83134200D02*
X65557400Y-83058000D01*
X65557400Y-83058000D02*
X65582800Y-16738600D01*
X65582800Y-16738600D02*
X66751200Y-16637000D01*
X58470800Y-57785000D02*
X58470800Y-19685000D01*
X58470800Y-19685000D02*
X55930800Y-19685000D01*
X55930800Y-19685000D02*
X55930800Y-57785000D01*
X55650800Y-60605000D02*
X55650800Y-59055000D01*
X55930800Y-57785000D02*
X58470800Y-57785000D01*
X58750800Y-59055000D02*
X58750800Y-60605000D01*
X58750800Y-60605000D02*
X55650800Y-60605000D01*
X18288000Y-78232000D02*
X18288000Y-52832000D01*
X18288000Y-52832000D02*
X20828000Y-52832000D01*
X20828000Y-52832000D02*
X20828000Y-78232000D01*
X18008000Y-81052000D02*
X18008000Y-79502000D01*
X18288000Y-78232000D02*
X20828000Y-78232000D01*
X21108000Y-79502000D02*
X21108000Y-81052000D01*
X21108000Y-81052000D02*
X18008000Y-81052000D01*
X13962540Y-34511100D02*
X13962540Y-43211100D01*
X20367540Y-34511100D02*
X20367540Y-43211100D01*
X20367540Y-43211100D02*
X13962540Y-43211100D01*
X15192540Y-43211100D02*
X15192540Y-34511100D01*
X13962540Y-34511100D02*
X20367540Y-34511100D01*
X15980860Y-27658060D02*
X15980860Y-27307540D01*
X15980860Y-24157940D02*
X15980860Y-24508460D01*
X20030440Y-27658060D02*
X20030440Y-27307540D01*
X15529560Y-27658060D02*
X15529560Y-27307540D01*
X15529560Y-24157940D02*
X15529560Y-24508460D01*
X20030440Y-24157940D02*
X20030440Y-24508460D01*
X15529560Y-27658060D02*
X20030440Y-27658060D01*
X15529560Y-24157940D02*
X20030440Y-24157940D01*
X15980860Y-20800060D02*
X15980860Y-20449540D01*
X15980860Y-17299940D02*
X15980860Y-17650460D01*
X20030440Y-20800060D02*
X20030440Y-20449540D01*
X15529560Y-20800060D02*
X15529560Y-20449540D01*
X15529560Y-17299940D02*
X15529560Y-17650460D01*
X20030440Y-17299940D02*
X20030440Y-17650460D01*
X15529560Y-20800060D02*
X20030440Y-20800060D01*
X15529560Y-17299940D02*
X20030440Y-17299940D01*
X36314000Y-22772000D02*
X35314000Y-22772000D01*
X35314000Y-24472000D02*
X36314000Y-24472000D01*
X34028000Y-28106000D02*
X33028000Y-28106000D01*
X33028000Y-29806000D02*
X34028000Y-29806000D01*
X32166000Y-64149000D02*
X33366000Y-64149000D01*
X33366000Y-65899000D02*
X32166000Y-65899000D01*
X32604000Y-59295000D02*
X31404000Y-59295000D01*
X31404000Y-57545000D02*
X32604000Y-57545000D01*
X30572000Y-36181000D02*
X29372000Y-36181000D01*
X29372000Y-34431000D02*
X30572000Y-34431000D01*
X27016000Y-19671000D02*
X25816000Y-19671000D01*
X25816000Y-17921000D02*
X27016000Y-17921000D01*
X29932762Y-77517333D02*
X29980381Y-77374476D01*
X29980381Y-77136380D01*
X29932762Y-77041142D01*
X29885143Y-76993523D01*
X29789905Y-76945904D01*
X29694667Y-76945904D01*
X29599429Y-76993523D01*
X29551810Y-77041142D01*
X29504190Y-77136380D01*
X29456571Y-77326857D01*
X29408952Y-77422095D01*
X29361333Y-77469714D01*
X29266095Y-77517333D01*
X29170857Y-77517333D01*
X29075619Y-77469714D01*
X29028000Y-77422095D01*
X28980381Y-77326857D01*
X28980381Y-77088761D01*
X29028000Y-76945904D01*
X28980381Y-76612571D02*
X29980381Y-76374476D01*
X29266095Y-76183999D01*
X29980381Y-75993523D01*
X28980381Y-75755428D01*
X29980381Y-74850666D02*
X29980381Y-75422095D01*
X29980381Y-75136381D02*
X28980381Y-75136381D01*
X29123238Y-75231619D01*
X29218476Y-75326857D01*
X29266095Y-75422095D01*
X41060762Y-50490381D02*
X40727428Y-50014190D01*
X40489333Y-50490381D02*
X40489333Y-49490381D01*
X40870286Y-49490381D01*
X40965524Y-49538000D01*
X41013143Y-49585619D01*
X41060762Y-49680857D01*
X41060762Y-49823714D01*
X41013143Y-49918952D01*
X40965524Y-49966571D01*
X40870286Y-50014190D01*
X40489333Y-50014190D01*
X41346476Y-49490381D02*
X41679809Y-50490381D01*
X42013143Y-49490381D01*
X42870286Y-50490381D02*
X42298857Y-50490381D01*
X42584571Y-50490381D02*
X42584571Y-49490381D01*
X42489333Y-49633238D01*
X42394095Y-49728476D01*
X42298857Y-49776095D01*
X58126381Y-63245905D02*
X58935905Y-63245905D01*
X59031143Y-63198286D01*
X59078762Y-63150667D01*
X59126381Y-63055429D01*
X59126381Y-62864952D01*
X59078762Y-62769714D01*
X59031143Y-62722095D01*
X58935905Y-62674476D01*
X58126381Y-62674476D01*
X59126381Y-61674476D02*
X59126381Y-62245905D01*
X59126381Y-61960191D02*
X58126381Y-61960191D01*
X58269238Y-62055429D01*
X58364476Y-62150667D01*
X58412095Y-62245905D01*
X19050095Y-50506381D02*
X19050095Y-51315905D01*
X19097714Y-51411143D01*
X19145333Y-51458762D01*
X19240571Y-51506381D01*
X19431048Y-51506381D01*
X19526286Y-51458762D01*
X19573905Y-51411143D01*
X19621524Y-51315905D01*
X19621524Y-50506381D01*
X20050095Y-50601619D02*
X20097714Y-50554000D01*
X20192952Y-50506381D01*
X20431048Y-50506381D01*
X20526286Y-50554000D01*
X20573905Y-50601619D01*
X20621524Y-50696857D01*
X20621524Y-50792095D01*
X20573905Y-50934952D01*
X20002476Y-51506381D01*
X20621524Y-51506381D01*
X21682381Y-39600095D02*
X20682381Y-39600095D01*
X20682381Y-39219142D01*
X20730000Y-39123904D01*
X20777619Y-39076285D01*
X20872857Y-39028666D01*
X21015714Y-39028666D01*
X21110952Y-39076285D01*
X21158571Y-39123904D01*
X21206190Y-39219142D01*
X21206190Y-39600095D01*
X20777619Y-38647714D02*
X20730000Y-38600095D01*
X20682381Y-38504857D01*
X20682381Y-38266761D01*
X20730000Y-38171523D01*
X20777619Y-38123904D01*
X20872857Y-38076285D01*
X20968095Y-38076285D01*
X21110952Y-38123904D01*
X21682381Y-38695333D01*
X21682381Y-38076285D01*
X44045239Y-67746571D02*
X44188096Y-67794190D01*
X44235715Y-67841810D01*
X44283334Y-67937048D01*
X44283334Y-68079905D01*
X44235715Y-68175143D01*
X44188096Y-68222762D01*
X44092858Y-68270381D01*
X43711905Y-68270381D01*
X43711905Y-67270381D01*
X44045239Y-67270381D01*
X44140477Y-67318000D01*
X44188096Y-67365619D01*
X44235715Y-67460857D01*
X44235715Y-67556095D01*
X44188096Y-67651333D01*
X44140477Y-67698952D01*
X44045239Y-67746571D01*
X43711905Y-67746571D01*
X45235715Y-68270381D02*
X44664286Y-68270381D01*
X44950000Y-68270381D02*
X44950000Y-67270381D01*
X44854762Y-67413238D01*
X44759524Y-67508476D01*
X44664286Y-67556095D01*
X17041905Y-22550381D02*
X17041905Y-21550381D01*
X17280000Y-21550381D01*
X17422858Y-21598000D01*
X17518096Y-21693238D01*
X17565715Y-21788476D01*
X17613334Y-21978952D01*
X17613334Y-22121810D01*
X17565715Y-22312286D01*
X17518096Y-22407524D01*
X17422858Y-22502762D01*
X17280000Y-22550381D01*
X17041905Y-22550381D01*
X18565715Y-22550381D02*
X17994286Y-22550381D01*
X18280000Y-22550381D02*
X18280000Y-21550381D01*
X18184762Y-21693238D01*
X18089524Y-21788476D01*
X17994286Y-21836095D01*
X14618095Y-29310381D02*
X14618095Y-28310381D01*
X15189524Y-29310381D02*
X14760952Y-28738952D01*
X15189524Y-28310381D02*
X14618095Y-28881810D01*
X20441905Y-28974667D02*
X20918096Y-28974667D01*
X20346667Y-29260381D02*
X20680000Y-28260381D01*
X21013334Y-29260381D01*
X17041905Y-15692381D02*
X17041905Y-14692381D01*
X17280000Y-14692381D01*
X17422858Y-14740000D01*
X17518096Y-14835238D01*
X17565715Y-14930476D01*
X17613334Y-15120952D01*
X17613334Y-15263810D01*
X17565715Y-15454286D01*
X17518096Y-15549524D01*
X17422858Y-15644762D01*
X17280000Y-15692381D01*
X17041905Y-15692381D01*
X17994286Y-14787619D02*
X18041905Y-14740000D01*
X18137143Y-14692381D01*
X18375239Y-14692381D01*
X18470477Y-14740000D01*
X18518096Y-14787619D01*
X18565715Y-14882857D01*
X18565715Y-14978095D01*
X18518096Y-15120952D01*
X17946667Y-15692381D01*
X18565715Y-15692381D01*
X14618095Y-22452381D02*
X14618095Y-21452381D01*
X15189524Y-22452381D02*
X14760952Y-21880952D01*
X15189524Y-21452381D02*
X14618095Y-22023810D01*
X20441905Y-22116667D02*
X20918096Y-22116667D01*
X20346667Y-22402381D02*
X20680000Y-21402381D01*
X21013334Y-22402381D01*
X35647334Y-21879143D02*
X35599715Y-21926762D01*
X35456858Y-21974381D01*
X35361620Y-21974381D01*
X35218762Y-21926762D01*
X35123524Y-21831524D01*
X35075905Y-21736286D01*
X35028286Y-21545810D01*
X35028286Y-21402952D01*
X35075905Y-21212476D01*
X35123524Y-21117238D01*
X35218762Y-21022000D01*
X35361620Y-20974381D01*
X35456858Y-20974381D01*
X35599715Y-21022000D01*
X35647334Y-21069619D01*
X36599715Y-21974381D02*
X36028286Y-21974381D01*
X36314000Y-21974381D02*
X36314000Y-20974381D01*
X36218762Y-21117238D01*
X36123524Y-21212476D01*
X36028286Y-21260095D01*
X31583334Y-27535143D02*
X31535715Y-27582762D01*
X31392858Y-27630381D01*
X31297620Y-27630381D01*
X31154762Y-27582762D01*
X31059524Y-27487524D01*
X31011905Y-27392286D01*
X30964286Y-27201810D01*
X30964286Y-27058952D01*
X31011905Y-26868476D01*
X31059524Y-26773238D01*
X31154762Y-26678000D01*
X31297620Y-26630381D01*
X31392858Y-26630381D01*
X31535715Y-26678000D01*
X31583334Y-26725619D01*
X31964286Y-26725619D02*
X32011905Y-26678000D01*
X32107143Y-26630381D01*
X32345239Y-26630381D01*
X32440477Y-26678000D01*
X32488096Y-26725619D01*
X32535715Y-26820857D01*
X32535715Y-26916095D01*
X32488096Y-27058952D01*
X31916667Y-27630381D01*
X32535715Y-27630381D01*
X32599334Y-67576381D02*
X32266000Y-67100190D01*
X32027905Y-67576381D02*
X32027905Y-66576381D01*
X32408858Y-66576381D01*
X32504096Y-66624000D01*
X32551715Y-66671619D01*
X32599334Y-66766857D01*
X32599334Y-66909714D01*
X32551715Y-67004952D01*
X32504096Y-67052571D01*
X32408858Y-67100190D01*
X32027905Y-67100190D01*
X32980286Y-66671619D02*
X33027905Y-66624000D01*
X33123143Y-66576381D01*
X33361239Y-66576381D01*
X33456477Y-66624000D01*
X33504096Y-66671619D01*
X33551715Y-66766857D01*
X33551715Y-66862095D01*
X33504096Y-67004952D01*
X32932667Y-67576381D01*
X33551715Y-67576381D01*
X31837334Y-56772381D02*
X31504000Y-56296190D01*
X31265905Y-56772381D02*
X31265905Y-55772381D01*
X31646858Y-55772381D01*
X31742096Y-55820000D01*
X31789715Y-55867619D01*
X31837334Y-55962857D01*
X31837334Y-56105714D01*
X31789715Y-56200952D01*
X31742096Y-56248571D01*
X31646858Y-56296190D01*
X31265905Y-56296190D01*
X32170667Y-55772381D02*
X32789715Y-55772381D01*
X32456381Y-56153333D01*
X32599239Y-56153333D01*
X32694477Y-56200952D01*
X32742096Y-56248571D01*
X32789715Y-56343810D01*
X32789715Y-56581905D01*
X32742096Y-56677143D01*
X32694477Y-56724762D01*
X32599239Y-56772381D01*
X32313524Y-56772381D01*
X32218286Y-56724762D01*
X32170667Y-56677143D01*
X29805334Y-33658381D02*
X29472000Y-33182190D01*
X29233905Y-33658381D02*
X29233905Y-32658381D01*
X29614858Y-32658381D01*
X29710096Y-32706000D01*
X29757715Y-32753619D01*
X29805334Y-32848857D01*
X29805334Y-32991714D01*
X29757715Y-33086952D01*
X29710096Y-33134571D01*
X29614858Y-33182190D01*
X29233905Y-33182190D01*
X30662477Y-32991714D02*
X30662477Y-33658381D01*
X30424381Y-32610762D02*
X30186286Y-33325048D01*
X30805334Y-33325048D01*
X26249334Y-17148381D02*
X25916000Y-16672190D01*
X25677905Y-17148381D02*
X25677905Y-16148381D01*
X26058858Y-16148381D01*
X26154096Y-16196000D01*
X26201715Y-16243619D01*
X26249334Y-16338857D01*
X26249334Y-16481714D01*
X26201715Y-16576952D01*
X26154096Y-16624571D01*
X26058858Y-16672190D01*
X25677905Y-16672190D01*
X27154096Y-16148381D02*
X26677905Y-16148381D01*
X26630286Y-16624571D01*
X26677905Y-16576952D01*
X26773143Y-16529333D01*
X27011239Y-16529333D01*
X27106477Y-16576952D01*
X27154096Y-16624571D01*
X27201715Y-16719810D01*
X27201715Y-16957905D01*
X27154096Y-17053143D01*
X27106477Y-17100762D01*
X27011239Y-17148381D01*
X26773143Y-17148381D01*
X26677905Y-17100762D01*
X26630286Y-17053143D01*
M02*
