G04 #@! TF.FileFunction,Copper,L2,Bot,Signal*
%FSLAX46Y46*%
G04 Gerber Fmt 4.6, Leading zero omitted, Abs format (unit mm)*
G04 Created by KiCad (PCBNEW 0.201508140901+6091~28~ubuntu14.04.1-product) date Sat 27 Feb 2016 11:06:28 PM EST*
%MOMM*%
G01*
G04 APERTURE LIST*
%ADD10C,0.100000*%
%ADD11R,1.727200X1.727200*%
%ADD12O,1.727200X1.727200*%
%ADD13R,2.032000X1.727200*%
%ADD14O,2.032000X1.727200*%
%ADD15O,0.950000X1.250000*%
%ADD16O,1.550000X1.000000*%
%ADD17O,1.524000X2.032000*%
%ADD18C,1.524000*%
%ADD19R,1.300000X1.500000*%
%ADD20C,0.600000*%
%ADD21C,0.250000*%
G04 APERTURE END LIST*
D10*
D11*
X54864000Y-69088000D03*
D12*
X52324000Y-69088000D03*
X54864000Y-71628000D03*
X52324000Y-71628000D03*
X54864000Y-74168000D03*
X52324000Y-74168000D03*
D13*
X19558000Y-79502000D03*
D14*
X19558000Y-76962000D03*
X19558000Y-74422000D03*
X19558000Y-71882000D03*
X19558000Y-69342000D03*
X19558000Y-66802000D03*
X19558000Y-64262000D03*
X19558000Y-61722000D03*
X19558000Y-59182000D03*
X19558000Y-56642000D03*
X19558000Y-54102000D03*
D15*
X22644540Y-35853100D03*
X22644540Y-40853100D03*
D16*
X19944540Y-34853100D03*
X19944540Y-41853100D03*
D17*
X40894000Y-64262000D03*
X45974000Y-64262000D03*
D18*
X40894000Y-79502000D03*
X43434000Y-79502000D03*
X45974000Y-79502000D03*
D19*
X58928000Y-73232000D03*
X58928000Y-70532000D03*
D13*
X57962800Y-58928000D03*
D14*
X57962800Y-56388000D03*
X57962800Y-53848000D03*
X57962800Y-51308000D03*
X57962800Y-48768000D03*
X57962800Y-46228000D03*
X57962800Y-43688000D03*
X57962800Y-41148000D03*
X57962800Y-38608000D03*
X57962800Y-36068000D03*
X57962800Y-33528000D03*
X57962800Y-30988000D03*
X57962800Y-28448000D03*
X57962800Y-25908000D03*
X57962800Y-23368000D03*
X57962800Y-20828000D03*
D20*
X37064000Y-25908000D03*
X33274000Y-26162000D03*
X26162000Y-37084000D03*
X35814000Y-67818000D03*
X43434000Y-45720000D03*
X45466000Y-33528000D03*
X33782000Y-60960000D03*
X33782000Y-41402000D03*
X32258000Y-41656000D03*
X30226000Y-41910000D03*
X46482000Y-35814000D03*
X46736000Y-34544000D03*
X25146000Y-72644000D03*
X45212000Y-34798000D03*
D21*
X-56769000Y-45923200D02*
X-56845200Y-45923200D01*
X-61849000Y-45923200D02*
X-61849000Y-46101000D01*
X-64389000Y-45923200D02*
X-64465200Y-45923200D01*
X-54229000Y-45923200D02*
X-54229000Y-45847000D01*
X37064000Y-25908000D02*
X37084000Y-25908000D01*
X19304000Y-58674000D02*
X19050000Y-58674000D01*
X54864000Y-71628000D02*
X55372000Y-71628000D01*
X55372000Y-71628000D02*
X57658000Y-69342000D01*
X57658000Y-69342000D02*
X57658000Y-65278000D01*
X57658000Y-65278000D02*
X46990000Y-54610000D01*
X46990000Y-54610000D02*
X46990000Y-49276000D01*
X46990000Y-49276000D02*
X43434000Y-45720000D01*
X54864000Y-74168000D02*
X54864000Y-73406000D01*
X55118000Y-74168000D02*
X58928000Y-70358000D01*
X46482000Y-32512000D02*
X45466000Y-33528000D01*
X47498000Y-32512000D02*
X46482000Y-32512000D01*
X49784000Y-34798000D02*
X47498000Y-32512000D01*
X49784000Y-55880000D02*
X49784000Y-34798000D01*
X58928000Y-65024000D02*
X49784000Y-55880000D01*
X58928000Y-70358000D02*
X58928000Y-65024000D01*
X54864000Y-74168000D02*
X54864000Y-73914000D01*
X40894000Y-64262000D02*
X37846000Y-64262000D01*
X34544000Y-60960000D02*
X33782000Y-60960000D01*
X37846000Y-64262000D02*
X34544000Y-60960000D01*
X57200800Y-31115000D02*
X44069000Y-31115000D01*
X44069000Y-31115000D02*
X33782000Y-41402000D01*
X57200800Y-28575000D02*
X45339000Y-28575000D01*
X45339000Y-28575000D02*
X32258000Y-41656000D01*
X57200800Y-26035000D02*
X46101000Y-26035000D01*
X46101000Y-26035000D02*
X30226000Y-41910000D01*
X19558000Y-79502000D02*
X22352000Y-79502000D01*
X27432000Y-54864000D02*
X46482000Y-35814000D01*
X27432000Y-74422000D02*
X27432000Y-54864000D01*
X22352000Y-79502000D02*
X27432000Y-74422000D01*
X26162000Y-55118000D02*
X46736000Y-34544000D01*
X26162000Y-71628000D02*
X26162000Y-55118000D01*
X25146000Y-72644000D02*
X26162000Y-71628000D01*
X19558000Y-74422000D02*
X21336000Y-74422000D01*
X24384000Y-55118000D02*
X45212000Y-34798000D01*
X24638000Y-70104000D02*
X24384000Y-55118000D01*
X21336000Y-74422000D02*
X24638000Y-70104000D01*
M02*
