G04 #@! TF.FileFunction,Soldermask,Top*
%FSLAX46Y46*%
G04 Gerber Fmt 4.6, Leading zero omitted, Abs format (unit mm)*
G04 Created by KiCad (PCBNEW 0.201508140901+6091~28~ubuntu14.04.1-product) date Sat 27 Feb 2016 11:06:28 PM EST*
%MOMM*%
G01*
G04 APERTURE LIST*
%ADD10C,0.100000*%
%ADD11R,2.127200X2.127200*%
%ADD12O,2.127200X2.127200*%
%ADD13R,1.400000X3.600000*%
%ADD14R,1.924000X1.670000*%
%ADD15R,2.432000X2.127200*%
%ADD16O,2.432000X2.127200*%
%ADD17R,1.750000X0.800000*%
%ADD18O,1.350000X1.650000*%
%ADD19O,1.950000X1.400000*%
%ADD20O,1.924000X2.432000*%
%ADD21C,1.924000*%
%ADD22R,2.899360X2.200860*%
%ADD23R,1.900000X1.650000*%
%ADD24R,1.900000X1.700000*%
G04 APERTURE END LIST*
D10*
D11*
X54864000Y-69088000D03*
D12*
X52324000Y-69088000D03*
X54864000Y-71628000D03*
X52324000Y-71628000D03*
X54864000Y-74168000D03*
X52324000Y-74168000D03*
D13*
X31528000Y-71784000D03*
X31528000Y-78584000D03*
X35528000Y-78584000D03*
X35528000Y-71784000D03*
D10*
G36*
X38571712Y-33505666D02*
X39243464Y-32833914D01*
X40657678Y-34248128D01*
X39985926Y-34919880D01*
X38571712Y-33505666D01*
X38571712Y-33505666D01*
G37*
G36*
X38006027Y-34071352D02*
X38677779Y-33399600D01*
X40091993Y-34813814D01*
X39420241Y-35485566D01*
X38006027Y-34071352D01*
X38006027Y-34071352D01*
G37*
G36*
X37440341Y-34637037D02*
X38112093Y-33965285D01*
X39526307Y-35379499D01*
X38854555Y-36051251D01*
X37440341Y-34637037D01*
X37440341Y-34637037D01*
G37*
G36*
X36874656Y-35202722D02*
X37546408Y-34530970D01*
X38960622Y-35945184D01*
X38288870Y-36616936D01*
X36874656Y-35202722D01*
X36874656Y-35202722D01*
G37*
G36*
X36308970Y-35768408D02*
X36980722Y-35096656D01*
X38394936Y-36510870D01*
X37723184Y-37182622D01*
X36308970Y-35768408D01*
X36308970Y-35768408D01*
G37*
G36*
X35743285Y-36334093D02*
X36415037Y-35662341D01*
X37829251Y-37076555D01*
X37157499Y-37748307D01*
X35743285Y-36334093D01*
X35743285Y-36334093D01*
G37*
G36*
X35177600Y-36899779D02*
X35849352Y-36228027D01*
X37263566Y-37642241D01*
X36591814Y-38313993D01*
X35177600Y-36899779D01*
X35177600Y-36899779D01*
G37*
G36*
X34611914Y-37465464D02*
X35283666Y-36793712D01*
X36697880Y-38207926D01*
X36026128Y-38879678D01*
X34611914Y-37465464D01*
X34611914Y-37465464D01*
G37*
G36*
X35283666Y-40930288D02*
X34611914Y-40258536D01*
X36026128Y-38844322D01*
X36697880Y-39516074D01*
X35283666Y-40930288D01*
X35283666Y-40930288D01*
G37*
G36*
X35849352Y-41495973D02*
X35177600Y-40824221D01*
X36591814Y-39410007D01*
X37263566Y-40081759D01*
X35849352Y-41495973D01*
X35849352Y-41495973D01*
G37*
G36*
X36415037Y-42061659D02*
X35743285Y-41389907D01*
X37157499Y-39975693D01*
X37829251Y-40647445D01*
X36415037Y-42061659D01*
X36415037Y-42061659D01*
G37*
G36*
X36980722Y-42627344D02*
X36308970Y-41955592D01*
X37723184Y-40541378D01*
X38394936Y-41213130D01*
X36980722Y-42627344D01*
X36980722Y-42627344D01*
G37*
G36*
X37546408Y-43193030D02*
X36874656Y-42521278D01*
X38288870Y-41107064D01*
X38960622Y-41778816D01*
X37546408Y-43193030D01*
X37546408Y-43193030D01*
G37*
G36*
X38112093Y-43758715D02*
X37440341Y-43086963D01*
X38854555Y-41672749D01*
X39526307Y-42344501D01*
X38112093Y-43758715D01*
X38112093Y-43758715D01*
G37*
G36*
X38677779Y-44324400D02*
X38006027Y-43652648D01*
X39420241Y-42238434D01*
X40091993Y-42910186D01*
X38677779Y-44324400D01*
X38677779Y-44324400D01*
G37*
G36*
X39243464Y-44890086D02*
X38571712Y-44218334D01*
X39985926Y-42804120D01*
X40657678Y-43475872D01*
X39243464Y-44890086D01*
X39243464Y-44890086D01*
G37*
G36*
X40622322Y-43475872D02*
X41294074Y-42804120D01*
X42708288Y-44218334D01*
X42036536Y-44890086D01*
X40622322Y-43475872D01*
X40622322Y-43475872D01*
G37*
G36*
X41188007Y-42910186D02*
X41859759Y-42238434D01*
X43273973Y-43652648D01*
X42602221Y-44324400D01*
X41188007Y-42910186D01*
X41188007Y-42910186D01*
G37*
G36*
X41753693Y-42344501D02*
X42425445Y-41672749D01*
X43839659Y-43086963D01*
X43167907Y-43758715D01*
X41753693Y-42344501D01*
X41753693Y-42344501D01*
G37*
G36*
X42319378Y-41778816D02*
X42991130Y-41107064D01*
X44405344Y-42521278D01*
X43733592Y-43193030D01*
X42319378Y-41778816D01*
X42319378Y-41778816D01*
G37*
G36*
X42885064Y-41213130D02*
X43556816Y-40541378D01*
X44971030Y-41955592D01*
X44299278Y-42627344D01*
X42885064Y-41213130D01*
X42885064Y-41213130D01*
G37*
G36*
X43450749Y-40647445D02*
X44122501Y-39975693D01*
X45536715Y-41389907D01*
X44864963Y-42061659D01*
X43450749Y-40647445D01*
X43450749Y-40647445D01*
G37*
G36*
X44016434Y-40081759D02*
X44688186Y-39410007D01*
X46102400Y-40824221D01*
X45430648Y-41495973D01*
X44016434Y-40081759D01*
X44016434Y-40081759D01*
G37*
G36*
X44582120Y-39516074D02*
X45253872Y-38844322D01*
X46668086Y-40258536D01*
X45996334Y-40930288D01*
X44582120Y-39516074D01*
X44582120Y-39516074D01*
G37*
G36*
X45253872Y-38879678D02*
X44582120Y-38207926D01*
X45996334Y-36793712D01*
X46668086Y-37465464D01*
X45253872Y-38879678D01*
X45253872Y-38879678D01*
G37*
G36*
X44688186Y-38313993D02*
X44016434Y-37642241D01*
X45430648Y-36228027D01*
X46102400Y-36899779D01*
X44688186Y-38313993D01*
X44688186Y-38313993D01*
G37*
G36*
X44122501Y-37748307D02*
X43450749Y-37076555D01*
X44864963Y-35662341D01*
X45536715Y-36334093D01*
X44122501Y-37748307D01*
X44122501Y-37748307D01*
G37*
G36*
X43556816Y-37182622D02*
X42885064Y-36510870D01*
X44299278Y-35096656D01*
X44971030Y-35768408D01*
X43556816Y-37182622D01*
X43556816Y-37182622D01*
G37*
G36*
X42991130Y-36616936D02*
X42319378Y-35945184D01*
X43733592Y-34530970D01*
X44405344Y-35202722D01*
X42991130Y-36616936D01*
X42991130Y-36616936D01*
G37*
G36*
X42425445Y-36051251D02*
X41753693Y-35379499D01*
X43167907Y-33965285D01*
X43839659Y-34637037D01*
X42425445Y-36051251D01*
X42425445Y-36051251D01*
G37*
G36*
X41859759Y-35485566D02*
X41188007Y-34813814D01*
X42602221Y-33399600D01*
X43273973Y-34071352D01*
X41859759Y-35485566D01*
X41859759Y-35485566D01*
G37*
G36*
X41294074Y-34919880D02*
X40622322Y-34248128D01*
X42036536Y-32833914D01*
X42708288Y-33505666D01*
X41294074Y-34919880D01*
X41294074Y-34919880D01*
G37*
D14*
X39878000Y-52578000D03*
X44958000Y-53848000D03*
X39878000Y-55118000D03*
D15*
X19558000Y-79502000D03*
D16*
X19558000Y-76962000D03*
X19558000Y-74422000D03*
X19558000Y-71882000D03*
X19558000Y-69342000D03*
X19558000Y-66802000D03*
X19558000Y-64262000D03*
X19558000Y-61722000D03*
X19558000Y-59182000D03*
X19558000Y-56642000D03*
X19558000Y-54102000D03*
D17*
X22644540Y-37053100D03*
X22644540Y-37703100D03*
X22644540Y-38353100D03*
X22644540Y-39003100D03*
X22644540Y-39653100D03*
D18*
X22644540Y-35853100D03*
X22644540Y-40853100D03*
D19*
X19944540Y-34853100D03*
X19944540Y-41853100D03*
D20*
X40894000Y-64262000D03*
X45974000Y-64262000D03*
D21*
X40894000Y-79502000D03*
X43434000Y-79502000D03*
X45974000Y-79502000D03*
D22*
X18575020Y-29972000D03*
X22572980Y-29972000D03*
X18575020Y-23622000D03*
X22572980Y-23622000D03*
D23*
X34564000Y-23622000D03*
X37064000Y-23622000D03*
X32278000Y-28956000D03*
X34778000Y-28956000D03*
D24*
X34116000Y-65024000D03*
X31416000Y-65024000D03*
X30654000Y-58420000D03*
X33354000Y-58420000D03*
X28622000Y-35306000D03*
X31322000Y-35306000D03*
X27352000Y-24384000D03*
X30052000Y-24384000D03*
D15*
X57962800Y-58928000D03*
D16*
X57962800Y-56388000D03*
X57962800Y-53848000D03*
X57962800Y-51308000D03*
X57962800Y-48768000D03*
X57962800Y-46228000D03*
X57962800Y-43688000D03*
X57962800Y-41148000D03*
X57962800Y-38608000D03*
X57962800Y-36068000D03*
X57962800Y-33528000D03*
X57962800Y-30988000D03*
X57962800Y-28448000D03*
X57962800Y-25908000D03*
X57962800Y-23368000D03*
X57962800Y-20828000D03*
M02*
