G04 #@! TF.FileFunction,Soldermask,Bot*
%FSLAX46Y46*%
G04 Gerber Fmt 4.6, Leading zero omitted, Abs format (unit mm)*
G04 Created by KiCad (PCBNEW 0.201508140901+6091~28~ubuntu14.04.1-product) date Tue 23 Feb 2016 10:02:54 PM EST*
%MOMM*%
G01*
G04 APERTURE LIST*
%ADD10C,0.100000*%
%ADD11C,0.300000*%
%ADD12R,2.127200X2.127200*%
%ADD13O,2.127200X2.127200*%
%ADD14R,2.432000X2.127200*%
%ADD15O,2.432000X2.127200*%
%ADD16C,3.194000*%
%ADD17O,1.350000X1.650000*%
%ADD18O,1.950000X1.400000*%
%ADD19O,1.924000X2.432000*%
%ADD20C,1.924000*%
%ADD21R,1.700000X1.900000*%
G04 APERTURE END LIST*
D10*
D11*
X30630857Y-18344571D02*
X30630857Y-16844571D01*
X30273714Y-16844571D01*
X30059429Y-16916000D01*
X29916571Y-17058857D01*
X29845143Y-17201714D01*
X29773714Y-17487429D01*
X29773714Y-17701714D01*
X29845143Y-17987429D01*
X29916571Y-18130286D01*
X30059429Y-18273143D01*
X30273714Y-18344571D01*
X30630857Y-18344571D01*
X28559429Y-18273143D02*
X28702286Y-18344571D01*
X28988000Y-18344571D01*
X29130857Y-18273143D01*
X29202286Y-18130286D01*
X29202286Y-17558857D01*
X29130857Y-17416000D01*
X28988000Y-17344571D01*
X28702286Y-17344571D01*
X28559429Y-17416000D01*
X28488000Y-17558857D01*
X28488000Y-17701714D01*
X29202286Y-17844571D01*
X27916572Y-18273143D02*
X27773715Y-18344571D01*
X27488000Y-18344571D01*
X27345143Y-18273143D01*
X27273715Y-18130286D01*
X27273715Y-18058857D01*
X27345143Y-17916000D01*
X27488000Y-17844571D01*
X27702286Y-17844571D01*
X27845143Y-17773143D01*
X27916572Y-17630286D01*
X27916572Y-17558857D01*
X27845143Y-17416000D01*
X27702286Y-17344571D01*
X27488000Y-17344571D01*
X27345143Y-17416000D01*
X26630857Y-18344571D02*
X26630857Y-17344571D01*
X26630857Y-16844571D02*
X26702286Y-16916000D01*
X26630857Y-16987429D01*
X26559429Y-16916000D01*
X26630857Y-16844571D01*
X26630857Y-16987429D01*
X25273714Y-17344571D02*
X25273714Y-18558857D01*
X25345143Y-18701714D01*
X25416571Y-18773143D01*
X25559428Y-18844571D01*
X25773714Y-18844571D01*
X25916571Y-18773143D01*
X25273714Y-18273143D02*
X25416571Y-18344571D01*
X25702285Y-18344571D01*
X25845143Y-18273143D01*
X25916571Y-18201714D01*
X25988000Y-18058857D01*
X25988000Y-17630286D01*
X25916571Y-17487429D01*
X25845143Y-17416000D01*
X25702285Y-17344571D01*
X25416571Y-17344571D01*
X25273714Y-17416000D01*
X24559428Y-17344571D02*
X24559428Y-18344571D01*
X24559428Y-17487429D02*
X24488000Y-17416000D01*
X24345142Y-17344571D01*
X24130857Y-17344571D01*
X23988000Y-17416000D01*
X23916571Y-17558857D01*
X23916571Y-18344571D01*
X22630857Y-18273143D02*
X22773714Y-18344571D01*
X23059428Y-18344571D01*
X23202285Y-18273143D01*
X23273714Y-18130286D01*
X23273714Y-17558857D01*
X23202285Y-17416000D01*
X23059428Y-17344571D01*
X22773714Y-17344571D01*
X22630857Y-17416000D01*
X22559428Y-17558857D01*
X22559428Y-17701714D01*
X23273714Y-17844571D01*
X21273714Y-18344571D02*
X21273714Y-16844571D01*
X21273714Y-18273143D02*
X21416571Y-18344571D01*
X21702285Y-18344571D01*
X21845143Y-18273143D01*
X21916571Y-18201714D01*
X21988000Y-18058857D01*
X21988000Y-17630286D01*
X21916571Y-17487429D01*
X21845143Y-17416000D01*
X21702285Y-17344571D01*
X21416571Y-17344571D01*
X21273714Y-17416000D01*
X19416571Y-18344571D02*
X19416571Y-16844571D01*
X19416571Y-17416000D02*
X19273714Y-17344571D01*
X18988000Y-17344571D01*
X18845143Y-17416000D01*
X18773714Y-17487429D01*
X18702285Y-17630286D01*
X18702285Y-18058857D01*
X18773714Y-18201714D01*
X18845143Y-18273143D01*
X18988000Y-18344571D01*
X19273714Y-18344571D01*
X19416571Y-18273143D01*
X18202285Y-17344571D02*
X17845142Y-18344571D01*
X17488000Y-17344571D02*
X17845142Y-18344571D01*
X17988000Y-18701714D01*
X18059428Y-18773143D01*
X18202285Y-18844571D01*
X16916571Y-18201714D02*
X16845143Y-18273143D01*
X16916571Y-18344571D01*
X16988000Y-18273143D01*
X16916571Y-18201714D01*
X16916571Y-18344571D01*
X16916571Y-17416000D02*
X16845143Y-17487429D01*
X16916571Y-17558857D01*
X16988000Y-17487429D01*
X16916571Y-17416000D01*
X16916571Y-17558857D01*
X30630857Y-20744571D02*
X30630857Y-19244571D01*
X30130857Y-20316000D01*
X29630857Y-19244571D01*
X29630857Y-20744571D01*
X28273714Y-20744571D02*
X28273714Y-19958857D01*
X28345143Y-19816000D01*
X28488000Y-19744571D01*
X28773714Y-19744571D01*
X28916571Y-19816000D01*
X28273714Y-20673143D02*
X28416571Y-20744571D01*
X28773714Y-20744571D01*
X28916571Y-20673143D01*
X28988000Y-20530286D01*
X28988000Y-20387429D01*
X28916571Y-20244571D01*
X28773714Y-20173143D01*
X28416571Y-20173143D01*
X28273714Y-20101714D01*
X27702285Y-20744571D02*
X26916571Y-19744571D01*
X27702285Y-19744571D02*
X26916571Y-20744571D01*
X24345142Y-20744571D02*
X24845142Y-20030286D01*
X25202285Y-20744571D02*
X25202285Y-19244571D01*
X24630857Y-19244571D01*
X24487999Y-19316000D01*
X24416571Y-19387429D01*
X24345142Y-19530286D01*
X24345142Y-19744571D01*
X24416571Y-19887429D01*
X24487999Y-19958857D01*
X24630857Y-20030286D01*
X25202285Y-20030286D01*
X23130857Y-20673143D02*
X23273714Y-20744571D01*
X23559428Y-20744571D01*
X23702285Y-20673143D01*
X23773714Y-20530286D01*
X23773714Y-19958857D01*
X23702285Y-19816000D01*
X23559428Y-19744571D01*
X23273714Y-19744571D01*
X23130857Y-19816000D01*
X23059428Y-19958857D01*
X23059428Y-20101714D01*
X23773714Y-20244571D01*
X21773714Y-20744571D02*
X21773714Y-19244571D01*
X21773714Y-20673143D02*
X21916571Y-20744571D01*
X22202285Y-20744571D01*
X22345143Y-20673143D01*
X22416571Y-20601714D01*
X22488000Y-20458857D01*
X22488000Y-20030286D01*
X22416571Y-19887429D01*
X22345143Y-19816000D01*
X22202285Y-19744571D01*
X21916571Y-19744571D01*
X21773714Y-19816000D01*
X21059428Y-20744571D02*
X21059428Y-19744571D01*
X21059428Y-19887429D02*
X20988000Y-19816000D01*
X20845142Y-19744571D01*
X20630857Y-19744571D01*
X20488000Y-19816000D01*
X20416571Y-19958857D01*
X20416571Y-20744571D01*
X20416571Y-19958857D02*
X20345142Y-19816000D01*
X20202285Y-19744571D01*
X19988000Y-19744571D01*
X19845142Y-19816000D01*
X19773714Y-19958857D01*
X19773714Y-20744571D01*
X18845142Y-20744571D02*
X18988000Y-20673143D01*
X19059428Y-20601714D01*
X19130857Y-20458857D01*
X19130857Y-20030286D01*
X19059428Y-19887429D01*
X18988000Y-19816000D01*
X18845142Y-19744571D01*
X18630857Y-19744571D01*
X18488000Y-19816000D01*
X18416571Y-19887429D01*
X18345142Y-20030286D01*
X18345142Y-20458857D01*
X18416571Y-20601714D01*
X18488000Y-20673143D01*
X18630857Y-20744571D01*
X18845142Y-20744571D01*
X17702285Y-19744571D02*
X17702285Y-20744571D01*
X17702285Y-19887429D02*
X17630857Y-19816000D01*
X17487999Y-19744571D01*
X17273714Y-19744571D01*
X17130857Y-19816000D01*
X17059428Y-19958857D01*
X17059428Y-20744571D01*
X15702285Y-20744571D02*
X15702285Y-19244571D01*
X15702285Y-20673143D02*
X15845142Y-20744571D01*
X16130856Y-20744571D01*
X16273714Y-20673143D01*
X16345142Y-20601714D01*
X16416571Y-20458857D01*
X16416571Y-20030286D01*
X16345142Y-19887429D01*
X16273714Y-19816000D01*
X16130856Y-19744571D01*
X15845142Y-19744571D01*
X15702285Y-19816000D01*
X30630857Y-22358857D02*
X30130857Y-22358857D01*
X29916571Y-23144571D02*
X30630857Y-23144571D01*
X30630857Y-21644571D01*
X29916571Y-21644571D01*
X29059428Y-23144571D02*
X29202286Y-23073143D01*
X29273714Y-22930286D01*
X29273714Y-21644571D01*
X27916572Y-23073143D02*
X28059429Y-23144571D01*
X28345143Y-23144571D01*
X28488000Y-23073143D01*
X28559429Y-22930286D01*
X28559429Y-22358857D01*
X28488000Y-22216000D01*
X28345143Y-22144571D01*
X28059429Y-22144571D01*
X27916572Y-22216000D01*
X27845143Y-22358857D01*
X27845143Y-22501714D01*
X28559429Y-22644571D01*
X26559429Y-23073143D02*
X26702286Y-23144571D01*
X26988000Y-23144571D01*
X27130858Y-23073143D01*
X27202286Y-23001714D01*
X27273715Y-22858857D01*
X27273715Y-22430286D01*
X27202286Y-22287429D01*
X27130858Y-22216000D01*
X26988000Y-22144571D01*
X26702286Y-22144571D01*
X26559429Y-22216000D01*
X26130858Y-22144571D02*
X25559429Y-22144571D01*
X25916572Y-21644571D02*
X25916572Y-22930286D01*
X25845144Y-23073143D01*
X25702286Y-23144571D01*
X25559429Y-23144571D01*
X25059429Y-23144571D02*
X25059429Y-22144571D01*
X25059429Y-22430286D02*
X24988001Y-22287429D01*
X24916572Y-22216000D01*
X24773715Y-22144571D01*
X24630858Y-22144571D01*
X23916572Y-23144571D02*
X24059430Y-23073143D01*
X24130858Y-23001714D01*
X24202287Y-22858857D01*
X24202287Y-22430286D01*
X24130858Y-22287429D01*
X24059430Y-22216000D01*
X23916572Y-22144571D01*
X23702287Y-22144571D01*
X23559430Y-22216000D01*
X23488001Y-22287429D01*
X23416572Y-22430286D01*
X23416572Y-22858857D01*
X23488001Y-23001714D01*
X23559430Y-23073143D01*
X23702287Y-23144571D01*
X23916572Y-23144571D01*
X22773715Y-23144571D02*
X22773715Y-22144571D01*
X22773715Y-22287429D02*
X22702287Y-22216000D01*
X22559429Y-22144571D01*
X22345144Y-22144571D01*
X22202287Y-22216000D01*
X22130858Y-22358857D01*
X22130858Y-23144571D01*
X22130858Y-22358857D02*
X22059429Y-22216000D01*
X21916572Y-22144571D01*
X21702287Y-22144571D01*
X21559429Y-22216000D01*
X21488001Y-22358857D01*
X21488001Y-23144571D01*
X20130858Y-23144571D02*
X20130858Y-22358857D01*
X20202287Y-22216000D01*
X20345144Y-22144571D01*
X20630858Y-22144571D01*
X20773715Y-22216000D01*
X20130858Y-23073143D02*
X20273715Y-23144571D01*
X20630858Y-23144571D01*
X20773715Y-23073143D01*
X20845144Y-22930286D01*
X20845144Y-22787429D01*
X20773715Y-22644571D01*
X20630858Y-22573143D01*
X20273715Y-22573143D01*
X20130858Y-22501714D01*
X19416572Y-22144571D02*
X19416572Y-23144571D01*
X19416572Y-22287429D02*
X19345144Y-22216000D01*
X19202286Y-22144571D01*
X18988001Y-22144571D01*
X18845144Y-22216000D01*
X18773715Y-22358857D01*
X18773715Y-23144571D01*
X17416572Y-23073143D02*
X17559429Y-23144571D01*
X17845143Y-23144571D01*
X17988001Y-23073143D01*
X18059429Y-23001714D01*
X18130858Y-22858857D01*
X18130858Y-22430286D01*
X18059429Y-22287429D01*
X17988001Y-22216000D01*
X17845143Y-22144571D01*
X17559429Y-22144571D01*
X17416572Y-22216000D01*
X16916572Y-22144571D02*
X16559429Y-23144571D01*
X16202287Y-22144571D02*
X16559429Y-23144571D01*
X16702287Y-23501714D01*
X16773715Y-23573143D01*
X16916572Y-23644571D01*
D12*
X54864000Y-69088000D03*
D13*
X52324000Y-69088000D03*
X54864000Y-71628000D03*
X52324000Y-71628000D03*
X54864000Y-74168000D03*
X52324000Y-74168000D03*
D14*
X57200800Y-59055000D03*
D15*
X57200800Y-56515000D03*
X57200800Y-53975000D03*
X57200800Y-51435000D03*
X57200800Y-48895000D03*
X57200800Y-46355000D03*
X57200800Y-43815000D03*
X57200800Y-41275000D03*
X57200800Y-38735000D03*
X57200800Y-36195000D03*
X57200800Y-33655000D03*
X57200800Y-31115000D03*
X57200800Y-28575000D03*
X57200800Y-26035000D03*
X57200800Y-23495000D03*
X57200800Y-20955000D03*
D16*
X57658000Y-90932000D03*
X57658000Y-14732000D03*
X93726000Y-14732000D03*
X93726000Y-90932000D03*
D14*
X19558000Y-79502000D03*
D15*
X19558000Y-76962000D03*
X19558000Y-74422000D03*
X19558000Y-71882000D03*
X19558000Y-69342000D03*
X19558000Y-66802000D03*
X19558000Y-64262000D03*
X19558000Y-61722000D03*
X19558000Y-59182000D03*
X19558000Y-56642000D03*
X19558000Y-54102000D03*
D17*
X19342540Y-36361100D03*
X19342540Y-41361100D03*
D18*
X16642540Y-35361100D03*
X16642540Y-42361100D03*
D19*
X40894000Y-64262000D03*
X45974000Y-64262000D03*
D20*
X40894000Y-79502000D03*
X43434000Y-79502000D03*
X45974000Y-79502000D03*
D21*
X58928000Y-73232000D03*
X58928000Y-70532000D03*
M02*
