G04 #@! TF.FileFunction,Copper,L2,Bot,Signal*
%FSLAX46Y46*%
G04 Gerber Fmt 4.6, Leading zero omitted, Abs format (unit mm)*
G04 Created by KiCad (PCBNEW 0.201508140901+6091~28~ubuntu14.04.1-product) date Tue 23 Feb 2016 10:02:54 PM EST*
%MOMM*%
G01*
G04 APERTURE LIST*
%ADD10C,0.100000*%
%ADD11R,1.727200X1.727200*%
%ADD12O,1.727200X1.727200*%
%ADD13R,2.032000X1.727200*%
%ADD14O,2.032000X1.727200*%
%ADD15C,2.794000*%
%ADD16O,0.950000X1.250000*%
%ADD17O,1.550000X1.000000*%
%ADD18O,1.524000X2.032000*%
%ADD19C,1.524000*%
%ADD20R,1.300000X1.500000*%
%ADD21C,0.600000*%
%ADD22C,0.250000*%
%ADD23C,0.254000*%
G04 APERTURE END LIST*
D10*
D11*
X54864000Y-69088000D03*
D12*
X52324000Y-69088000D03*
X54864000Y-71628000D03*
X52324000Y-71628000D03*
X54864000Y-74168000D03*
X52324000Y-74168000D03*
D13*
X57200800Y-59055000D03*
D14*
X57200800Y-56515000D03*
X57200800Y-53975000D03*
X57200800Y-51435000D03*
X57200800Y-48895000D03*
X57200800Y-46355000D03*
X57200800Y-43815000D03*
X57200800Y-41275000D03*
X57200800Y-38735000D03*
X57200800Y-36195000D03*
X57200800Y-33655000D03*
X57200800Y-31115000D03*
X57200800Y-28575000D03*
X57200800Y-26035000D03*
X57200800Y-23495000D03*
X57200800Y-20955000D03*
D15*
X57658000Y-90932000D03*
X57658000Y-14732000D03*
X93726000Y-14732000D03*
X93726000Y-90932000D03*
D13*
X19558000Y-79502000D03*
D14*
X19558000Y-76962000D03*
X19558000Y-74422000D03*
X19558000Y-71882000D03*
X19558000Y-69342000D03*
X19558000Y-66802000D03*
X19558000Y-64262000D03*
X19558000Y-61722000D03*
X19558000Y-59182000D03*
X19558000Y-56642000D03*
X19558000Y-54102000D03*
D16*
X19342540Y-36361100D03*
X19342540Y-41361100D03*
D17*
X16642540Y-35361100D03*
X16642540Y-42361100D03*
D18*
X40894000Y-64262000D03*
X45974000Y-64262000D03*
D19*
X40894000Y-79502000D03*
X43434000Y-79502000D03*
X45974000Y-79502000D03*
D20*
X58928000Y-73232000D03*
X58928000Y-70532000D03*
D21*
X29464000Y-24892000D03*
X35814000Y-67818000D03*
X25654000Y-37592000D03*
X43434000Y-45720000D03*
X45466000Y-33528000D03*
X33782000Y-60960000D03*
X33782000Y-41402000D03*
X32258000Y-41656000D03*
X30226000Y-41910000D03*
X46482000Y-35814000D03*
X46736000Y-34544000D03*
X25146000Y-72644000D03*
X45212000Y-34798000D03*
D22*
X-56769000Y-45923200D02*
X-56845200Y-45923200D01*
X-61849000Y-45923200D02*
X-61849000Y-46101000D01*
X-64389000Y-45923200D02*
X-64465200Y-45923200D01*
X-54229000Y-45923200D02*
X-54229000Y-45847000D01*
X19304000Y-58674000D02*
X19050000Y-58674000D01*
X54864000Y-71628000D02*
X55372000Y-71628000D01*
X55372000Y-71628000D02*
X57658000Y-69342000D01*
X57658000Y-69342000D02*
X57658000Y-65278000D01*
X57658000Y-65278000D02*
X46990000Y-54610000D01*
X46990000Y-54610000D02*
X46990000Y-49276000D01*
X46990000Y-49276000D02*
X43434000Y-45720000D01*
X54864000Y-74168000D02*
X54864000Y-73406000D01*
X55118000Y-74168000D02*
X58928000Y-70358000D01*
X46482000Y-32512000D02*
X45466000Y-33528000D01*
X47498000Y-32512000D02*
X46482000Y-32512000D01*
X49784000Y-34798000D02*
X47498000Y-32512000D01*
X49784000Y-55880000D02*
X49784000Y-34798000D01*
X58928000Y-65024000D02*
X49784000Y-55880000D01*
X58928000Y-70358000D02*
X58928000Y-65024000D01*
X54864000Y-74168000D02*
X54864000Y-73914000D01*
X40894000Y-64262000D02*
X37846000Y-64262000D01*
X34544000Y-60960000D02*
X33782000Y-60960000D01*
X37846000Y-64262000D02*
X34544000Y-60960000D01*
X57200800Y-31115000D02*
X44069000Y-31115000D01*
X44069000Y-31115000D02*
X33782000Y-41402000D01*
X57200800Y-28575000D02*
X45339000Y-28575000D01*
X45339000Y-28575000D02*
X32258000Y-41656000D01*
X57200800Y-26035000D02*
X46101000Y-26035000D01*
X46101000Y-26035000D02*
X30226000Y-41910000D01*
X19558000Y-79502000D02*
X22352000Y-79502000D01*
X27432000Y-54864000D02*
X46482000Y-35814000D01*
X27432000Y-74422000D02*
X27432000Y-54864000D01*
X22352000Y-79502000D02*
X27432000Y-74422000D01*
X26162000Y-55118000D02*
X46736000Y-34544000D01*
X26162000Y-71628000D02*
X26162000Y-55118000D01*
X25146000Y-72644000D02*
X26162000Y-71628000D01*
X19558000Y-74422000D02*
X21336000Y-74422000D01*
X24384000Y-55118000D02*
X45212000Y-34798000D01*
X24638000Y-70104000D02*
X24384000Y-55118000D01*
X21336000Y-74422000D02*
X24638000Y-70104000D01*
D23*
G36*
X55626354Y-14326037D02*
X55625648Y-15134416D01*
X55934350Y-15881532D01*
X56505462Y-16453641D01*
X57252037Y-16763646D01*
X58060416Y-16764352D01*
X58807532Y-16455650D01*
X59379641Y-15884538D01*
X59689646Y-15137963D01*
X59690352Y-14329584D01*
X59520289Y-13918000D01*
X61520000Y-13918000D01*
X61520000Y-81078000D01*
X13918000Y-81078000D01*
X13918000Y-61722000D01*
X17874655Y-61722000D01*
X17988729Y-62295489D01*
X18313585Y-62781670D01*
X18628366Y-62992000D01*
X18313585Y-63202330D01*
X17988729Y-63688511D01*
X17874655Y-64262000D01*
X17988729Y-64835489D01*
X18313585Y-65321670D01*
X18628366Y-65532000D01*
X18313585Y-65742330D01*
X17988729Y-66228511D01*
X17874655Y-66802000D01*
X17988729Y-67375489D01*
X18313585Y-67861670D01*
X18628366Y-68072000D01*
X18313585Y-68282330D01*
X17988729Y-68768511D01*
X17874655Y-69342000D01*
X17988729Y-69915489D01*
X18313585Y-70401670D01*
X18628366Y-70612000D01*
X18313585Y-70822330D01*
X17988729Y-71308511D01*
X17874655Y-71882000D01*
X17988729Y-72455489D01*
X18313585Y-72941670D01*
X18628366Y-73152000D01*
X18313585Y-73362330D01*
X17988729Y-73848511D01*
X17874655Y-74422000D01*
X17988729Y-74995489D01*
X18313585Y-75481670D01*
X18628366Y-75692000D01*
X18313585Y-75902330D01*
X17988729Y-76388511D01*
X17874655Y-76962000D01*
X17988729Y-77535489D01*
X18313585Y-78021670D01*
X18327913Y-78031243D01*
X18306683Y-78035238D01*
X18090559Y-78174310D01*
X17945569Y-78386510D01*
X17894560Y-78638400D01*
X17894560Y-80365600D01*
X17938838Y-80600917D01*
X18077910Y-80817041D01*
X18290110Y-80962031D01*
X18542000Y-81013040D01*
X20574000Y-81013040D01*
X20809317Y-80968762D01*
X21025441Y-80829690D01*
X21170431Y-80617490D01*
X21221440Y-80365600D01*
X21221440Y-80262000D01*
X22352000Y-80262000D01*
X22642839Y-80204148D01*
X22889401Y-80039401D01*
X23150141Y-79778661D01*
X39496758Y-79778661D01*
X39708990Y-80292303D01*
X40101630Y-80685629D01*
X40614900Y-80898757D01*
X41170661Y-80899242D01*
X41684303Y-80687010D01*
X42077629Y-80294370D01*
X42163949Y-80086488D01*
X42248990Y-80292303D01*
X42641630Y-80685629D01*
X43154900Y-80898757D01*
X43710661Y-80899242D01*
X44224303Y-80687010D01*
X44617629Y-80294370D01*
X44703949Y-80086488D01*
X44788990Y-80292303D01*
X45181630Y-80685629D01*
X45694900Y-80898757D01*
X46250661Y-80899242D01*
X46764303Y-80687010D01*
X47157629Y-80294370D01*
X47370757Y-79781100D01*
X47371242Y-79225339D01*
X47159010Y-78711697D01*
X46766370Y-78318371D01*
X46253100Y-78105243D01*
X45697339Y-78104758D01*
X45183697Y-78316990D01*
X44790371Y-78709630D01*
X44704051Y-78917512D01*
X44619010Y-78711697D01*
X44226370Y-78318371D01*
X43713100Y-78105243D01*
X43157339Y-78104758D01*
X42643697Y-78316990D01*
X42250371Y-78709630D01*
X42164051Y-78917512D01*
X42079010Y-78711697D01*
X41686370Y-78318371D01*
X41173100Y-78105243D01*
X40617339Y-78104758D01*
X40103697Y-78316990D01*
X39710371Y-78709630D01*
X39497243Y-79222900D01*
X39496758Y-79778661D01*
X23150141Y-79778661D01*
X27969401Y-74959401D01*
X28134148Y-74712839D01*
X28192000Y-74422000D01*
X28192000Y-61145167D01*
X32846838Y-61145167D01*
X32988883Y-61488943D01*
X33251673Y-61752192D01*
X33595201Y-61894838D01*
X33967167Y-61895162D01*
X34276533Y-61767335D01*
X37308599Y-64799401D01*
X37555160Y-64964148D01*
X37846000Y-65022000D01*
X39591216Y-65022000D01*
X39603340Y-65082954D01*
X39906172Y-65536173D01*
X40359391Y-65839005D01*
X40894000Y-65945345D01*
X41428609Y-65839005D01*
X41881828Y-65536173D01*
X42184660Y-65082954D01*
X42291000Y-64548345D01*
X42291000Y-63975655D01*
X44577000Y-63975655D01*
X44577000Y-64548345D01*
X44683340Y-65082954D01*
X44986172Y-65536173D01*
X45439391Y-65839005D01*
X45974000Y-65945345D01*
X46508609Y-65839005D01*
X46961828Y-65536173D01*
X47264660Y-65082954D01*
X47371000Y-64548345D01*
X47371000Y-63975655D01*
X47264660Y-63441046D01*
X46961828Y-62987827D01*
X46508609Y-62684995D01*
X45974000Y-62578655D01*
X45439391Y-62684995D01*
X44986172Y-62987827D01*
X44683340Y-63441046D01*
X44577000Y-63975655D01*
X42291000Y-63975655D01*
X42184660Y-63441046D01*
X41881828Y-62987827D01*
X41428609Y-62684995D01*
X40894000Y-62578655D01*
X40359391Y-62684995D01*
X39906172Y-62987827D01*
X39603340Y-63441046D01*
X39591216Y-63502000D01*
X38160802Y-63502000D01*
X35081401Y-60422599D01*
X34834839Y-60257852D01*
X34544000Y-60200000D01*
X34344463Y-60200000D01*
X34312327Y-60167808D01*
X33968799Y-60025162D01*
X33596833Y-60024838D01*
X33253057Y-60166883D01*
X32989808Y-60429673D01*
X32847162Y-60773201D01*
X32846838Y-61145167D01*
X28192000Y-61145167D01*
X28192000Y-55178802D01*
X46621680Y-36749122D01*
X46667167Y-36749162D01*
X47010943Y-36607117D01*
X47274192Y-36344327D01*
X47416838Y-36000799D01*
X47417162Y-35628833D01*
X47287375Y-35314724D01*
X47528192Y-35074327D01*
X47670838Y-34730799D01*
X47671162Y-34358833D01*
X47529117Y-34015057D01*
X47266327Y-33751808D01*
X46922799Y-33609162D01*
X46550833Y-33608838D01*
X46400876Y-33670799D01*
X46400879Y-33667923D01*
X46796802Y-33272000D01*
X47183198Y-33272000D01*
X49024000Y-35112802D01*
X49024000Y-55569198D01*
X47750000Y-54295198D01*
X47750000Y-49276000D01*
X47692148Y-48985161D01*
X47692148Y-48985160D01*
X47527401Y-48738599D01*
X44369122Y-45580320D01*
X44369162Y-45534833D01*
X44227117Y-45191057D01*
X43964327Y-44927808D01*
X43620799Y-44785162D01*
X43248833Y-44784838D01*
X42905057Y-44926883D01*
X42641808Y-45189673D01*
X42499162Y-45533201D01*
X42498838Y-45905167D01*
X42640883Y-46248943D01*
X42903673Y-46512192D01*
X43247201Y-46654838D01*
X43294077Y-46654879D01*
X46230000Y-49590802D01*
X46230000Y-54610000D01*
X46287852Y-54900839D01*
X46452599Y-55147401D01*
X56898000Y-65592802D01*
X56898000Y-69027198D01*
X56375040Y-69550158D01*
X56375040Y-68224400D01*
X56330762Y-67989083D01*
X56191690Y-67772959D01*
X55979490Y-67627969D01*
X55727600Y-67576960D01*
X54000400Y-67576960D01*
X53765083Y-67621238D01*
X53548959Y-67760310D01*
X53403969Y-67972510D01*
X53395092Y-68016345D01*
X52926848Y-67703474D01*
X52353359Y-67589400D01*
X52294641Y-67589400D01*
X51721152Y-67703474D01*
X51234971Y-68028330D01*
X50910115Y-68514511D01*
X50796041Y-69088000D01*
X50910115Y-69661489D01*
X51234971Y-70147670D01*
X51558228Y-70363664D01*
X51435510Y-70421179D01*
X51041312Y-70853053D01*
X50869042Y-71268974D01*
X50990183Y-71501000D01*
X52197000Y-71501000D01*
X52197000Y-71481000D01*
X52451000Y-71481000D01*
X52451000Y-71501000D01*
X52471000Y-71501000D01*
X52471000Y-71755000D01*
X52451000Y-71755000D01*
X52451000Y-71775000D01*
X52197000Y-71775000D01*
X52197000Y-71755000D01*
X50990183Y-71755000D01*
X50869042Y-71987026D01*
X51041312Y-72402947D01*
X51435510Y-72834821D01*
X51558228Y-72892336D01*
X51234971Y-73108330D01*
X50910115Y-73594511D01*
X50796041Y-74168000D01*
X50910115Y-74741489D01*
X51234971Y-75227670D01*
X51721152Y-75552526D01*
X52294641Y-75666600D01*
X52353359Y-75666600D01*
X52926848Y-75552526D01*
X53413029Y-75227670D01*
X53594000Y-74956828D01*
X53774971Y-75227670D01*
X54261152Y-75552526D01*
X54834641Y-75666600D01*
X54893359Y-75666600D01*
X55466848Y-75552526D01*
X55953029Y-75227670D01*
X56277885Y-74741489D01*
X56391959Y-74168000D01*
X56358917Y-74001885D01*
X56843052Y-73517750D01*
X57643000Y-73517750D01*
X57643000Y-74108309D01*
X57739673Y-74341698D01*
X57918301Y-74520327D01*
X58151690Y-74617000D01*
X58642250Y-74617000D01*
X58801000Y-74458250D01*
X58801000Y-73359000D01*
X59055000Y-73359000D01*
X59055000Y-74458250D01*
X59213750Y-74617000D01*
X59704310Y-74617000D01*
X59937699Y-74520327D01*
X60116327Y-74341698D01*
X60213000Y-74108309D01*
X60213000Y-73517750D01*
X60054250Y-73359000D01*
X59055000Y-73359000D01*
X58801000Y-73359000D01*
X57801750Y-73359000D01*
X57643000Y-73517750D01*
X56843052Y-73517750D01*
X57643000Y-72717802D01*
X57643000Y-72946250D01*
X57801750Y-73105000D01*
X58801000Y-73105000D01*
X58801000Y-73085000D01*
X59055000Y-73085000D01*
X59055000Y-73105000D01*
X60054250Y-73105000D01*
X60213000Y-72946250D01*
X60213000Y-72355691D01*
X60116327Y-72122302D01*
X59937699Y-71943673D01*
X59801713Y-71887346D01*
X59813317Y-71885162D01*
X60029441Y-71746090D01*
X60174431Y-71533890D01*
X60225440Y-71282000D01*
X60225440Y-69782000D01*
X60181162Y-69546683D01*
X60042090Y-69330559D01*
X59829890Y-69185569D01*
X59688000Y-69156836D01*
X59688000Y-65024000D01*
X59630148Y-64733161D01*
X59465401Y-64486599D01*
X53170202Y-58191400D01*
X55537360Y-58191400D01*
X55537360Y-59918600D01*
X55581638Y-60153917D01*
X55720710Y-60370041D01*
X55932910Y-60515031D01*
X56184800Y-60566040D01*
X58216800Y-60566040D01*
X58452117Y-60521762D01*
X58668241Y-60382690D01*
X58813231Y-60170490D01*
X58864240Y-59918600D01*
X58864240Y-58191400D01*
X58819962Y-57956083D01*
X58680890Y-57739959D01*
X58468690Y-57594969D01*
X58373873Y-57575768D01*
X58551532Y-57417036D01*
X58805509Y-56889791D01*
X58808158Y-56874026D01*
X58687017Y-56642000D01*
X57327800Y-56642000D01*
X57327800Y-56662000D01*
X57073800Y-56662000D01*
X57073800Y-56642000D01*
X55714583Y-56642000D01*
X55593442Y-56874026D01*
X55596091Y-56889791D01*
X55850068Y-57417036D01*
X56025645Y-57573907D01*
X55949483Y-57588238D01*
X55733359Y-57727310D01*
X55588369Y-57939510D01*
X55537360Y-58191400D01*
X53170202Y-58191400D01*
X50544000Y-55565198D01*
X50544000Y-34798000D01*
X50530308Y-34729167D01*
X50486148Y-34507160D01*
X50321401Y-34260599D01*
X48035401Y-31974599D01*
X47886340Y-31875000D01*
X55756152Y-31875000D01*
X55956385Y-32174670D01*
X56271166Y-32385000D01*
X55956385Y-32595330D01*
X55631529Y-33081511D01*
X55517455Y-33655000D01*
X55631529Y-34228489D01*
X55956385Y-34714670D01*
X56271166Y-34925000D01*
X55956385Y-35135330D01*
X55631529Y-35621511D01*
X55517455Y-36195000D01*
X55631529Y-36768489D01*
X55956385Y-37254670D01*
X56271166Y-37465000D01*
X55956385Y-37675330D01*
X55631529Y-38161511D01*
X55517455Y-38735000D01*
X55631529Y-39308489D01*
X55956385Y-39794670D01*
X56271166Y-40005000D01*
X55956385Y-40215330D01*
X55631529Y-40701511D01*
X55517455Y-41275000D01*
X55631529Y-41848489D01*
X55956385Y-42334670D01*
X56271166Y-42545000D01*
X55956385Y-42755330D01*
X55631529Y-43241511D01*
X55517455Y-43815000D01*
X55631529Y-44388489D01*
X55956385Y-44874670D01*
X56271166Y-45085000D01*
X55956385Y-45295330D01*
X55631529Y-45781511D01*
X55517455Y-46355000D01*
X55631529Y-46928489D01*
X55956385Y-47414670D01*
X56271166Y-47625000D01*
X55956385Y-47835330D01*
X55631529Y-48321511D01*
X55517455Y-48895000D01*
X55631529Y-49468489D01*
X55956385Y-49954670D01*
X56271166Y-50165000D01*
X55956385Y-50375330D01*
X55631529Y-50861511D01*
X55517455Y-51435000D01*
X55631529Y-52008489D01*
X55956385Y-52494670D01*
X56271166Y-52705000D01*
X55956385Y-52915330D01*
X55631529Y-53401511D01*
X55517455Y-53975000D01*
X55631529Y-54548489D01*
X55956385Y-55034670D01*
X56265869Y-55241461D01*
X55850068Y-55612964D01*
X55596091Y-56140209D01*
X55593442Y-56155974D01*
X55714583Y-56388000D01*
X57073800Y-56388000D01*
X57073800Y-56368000D01*
X57327800Y-56368000D01*
X57327800Y-56388000D01*
X58687017Y-56388000D01*
X58808158Y-56155974D01*
X58805509Y-56140209D01*
X58551532Y-55612964D01*
X58135731Y-55241461D01*
X58445215Y-55034670D01*
X58770071Y-54548489D01*
X58884145Y-53975000D01*
X58770071Y-53401511D01*
X58445215Y-52915330D01*
X58130434Y-52705000D01*
X58445215Y-52494670D01*
X58770071Y-52008489D01*
X58884145Y-51435000D01*
X58770071Y-50861511D01*
X58445215Y-50375330D01*
X58130434Y-50165000D01*
X58445215Y-49954670D01*
X58770071Y-49468489D01*
X58884145Y-48895000D01*
X58770071Y-48321511D01*
X58445215Y-47835330D01*
X58130434Y-47625000D01*
X58445215Y-47414670D01*
X58770071Y-46928489D01*
X58884145Y-46355000D01*
X58770071Y-45781511D01*
X58445215Y-45295330D01*
X58130434Y-45085000D01*
X58445215Y-44874670D01*
X58770071Y-44388489D01*
X58884145Y-43815000D01*
X58770071Y-43241511D01*
X58445215Y-42755330D01*
X58130434Y-42545000D01*
X58445215Y-42334670D01*
X58770071Y-41848489D01*
X58884145Y-41275000D01*
X58770071Y-40701511D01*
X58445215Y-40215330D01*
X58130434Y-40005000D01*
X58445215Y-39794670D01*
X58770071Y-39308489D01*
X58884145Y-38735000D01*
X58770071Y-38161511D01*
X58445215Y-37675330D01*
X58130434Y-37465000D01*
X58445215Y-37254670D01*
X58770071Y-36768489D01*
X58884145Y-36195000D01*
X58770071Y-35621511D01*
X58445215Y-35135330D01*
X58130434Y-34925000D01*
X58445215Y-34714670D01*
X58770071Y-34228489D01*
X58884145Y-33655000D01*
X58770071Y-33081511D01*
X58445215Y-32595330D01*
X58130434Y-32385000D01*
X58445215Y-32174670D01*
X58770071Y-31688489D01*
X58884145Y-31115000D01*
X58770071Y-30541511D01*
X58445215Y-30055330D01*
X58130434Y-29845000D01*
X58445215Y-29634670D01*
X58770071Y-29148489D01*
X58884145Y-28575000D01*
X58770071Y-28001511D01*
X58445215Y-27515330D01*
X58130434Y-27305000D01*
X58445215Y-27094670D01*
X58770071Y-26608489D01*
X58884145Y-26035000D01*
X58770071Y-25461511D01*
X58445215Y-24975330D01*
X58130434Y-24765000D01*
X58445215Y-24554670D01*
X58770071Y-24068489D01*
X58884145Y-23495000D01*
X58770071Y-22921511D01*
X58445215Y-22435330D01*
X58130434Y-22225000D01*
X58445215Y-22014670D01*
X58770071Y-21528489D01*
X58884145Y-20955000D01*
X58770071Y-20381511D01*
X58445215Y-19895330D01*
X57959034Y-19570474D01*
X57385545Y-19456400D01*
X57016055Y-19456400D01*
X56442566Y-19570474D01*
X55956385Y-19895330D01*
X55631529Y-20381511D01*
X55517455Y-20955000D01*
X55631529Y-21528489D01*
X55956385Y-22014670D01*
X56271166Y-22225000D01*
X55956385Y-22435330D01*
X55631529Y-22921511D01*
X55517455Y-23495000D01*
X55631529Y-24068489D01*
X55956385Y-24554670D01*
X56271166Y-24765000D01*
X55956385Y-24975330D01*
X55756152Y-25275000D01*
X46101000Y-25275000D01*
X45810160Y-25332852D01*
X45563599Y-25497599D01*
X30086320Y-40974878D01*
X30040833Y-40974838D01*
X29697057Y-41116883D01*
X29433808Y-41379673D01*
X29291162Y-41723201D01*
X29290838Y-42095167D01*
X29432883Y-42438943D01*
X29695673Y-42702192D01*
X30039201Y-42844838D01*
X30411167Y-42845162D01*
X30754943Y-42703117D01*
X31018192Y-42440327D01*
X31160838Y-42096799D01*
X31160879Y-42049923D01*
X31336521Y-41874281D01*
X31464883Y-42184943D01*
X31727673Y-42448192D01*
X32071201Y-42590838D01*
X32443167Y-42591162D01*
X32786943Y-42449117D01*
X33050192Y-42186327D01*
X33107074Y-42049340D01*
X33251673Y-42194192D01*
X33595201Y-42336838D01*
X33967167Y-42337162D01*
X34310943Y-42195117D01*
X34574192Y-41932327D01*
X34716838Y-41588799D01*
X34716879Y-41541923D01*
X44383802Y-31875000D01*
X46093660Y-31875000D01*
X45944599Y-31974599D01*
X45326320Y-32592878D01*
X45280833Y-32592838D01*
X44937057Y-32734883D01*
X44673808Y-32997673D01*
X44531162Y-33341201D01*
X44530838Y-33713167D01*
X44660625Y-34027276D01*
X44419808Y-34267673D01*
X44277162Y-34611201D01*
X44277130Y-34648293D01*
X23853274Y-54574006D01*
X23846871Y-54583337D01*
X23837569Y-54589783D01*
X23763205Y-54705266D01*
X23685496Y-54818515D01*
X23683151Y-54829587D01*
X23677024Y-54839102D01*
X23652514Y-54974251D01*
X23624058Y-55108618D01*
X23626129Y-55119744D01*
X23624109Y-55130880D01*
X23873627Y-69852433D01*
X20982961Y-73632535D01*
X20802415Y-73362330D01*
X20487634Y-73152000D01*
X20802415Y-72941670D01*
X21127271Y-72455489D01*
X21241345Y-71882000D01*
X21127271Y-71308511D01*
X20802415Y-70822330D01*
X20487634Y-70612000D01*
X20802415Y-70401670D01*
X21127271Y-69915489D01*
X21241345Y-69342000D01*
X21127271Y-68768511D01*
X20802415Y-68282330D01*
X20487634Y-68072000D01*
X20802415Y-67861670D01*
X21127271Y-67375489D01*
X21241345Y-66802000D01*
X21127271Y-66228511D01*
X20802415Y-65742330D01*
X20487634Y-65532000D01*
X20802415Y-65321670D01*
X21127271Y-64835489D01*
X21241345Y-64262000D01*
X21127271Y-63688511D01*
X20802415Y-63202330D01*
X20487634Y-62992000D01*
X20802415Y-62781670D01*
X21127271Y-62295489D01*
X21241345Y-61722000D01*
X21127271Y-61148511D01*
X20802415Y-60662330D01*
X20492931Y-60455539D01*
X20908732Y-60084036D01*
X21162709Y-59556791D01*
X21165358Y-59541026D01*
X21044217Y-59309000D01*
X19685000Y-59309000D01*
X19685000Y-59329000D01*
X19431000Y-59329000D01*
X19431000Y-59309000D01*
X18071783Y-59309000D01*
X17950642Y-59541026D01*
X17953291Y-59556791D01*
X18207268Y-60084036D01*
X18623069Y-60455539D01*
X18313585Y-60662330D01*
X17988729Y-61148511D01*
X17874655Y-61722000D01*
X13918000Y-61722000D01*
X13918000Y-54102000D01*
X17874655Y-54102000D01*
X17988729Y-54675489D01*
X18313585Y-55161670D01*
X18628366Y-55372000D01*
X18313585Y-55582330D01*
X17988729Y-56068511D01*
X17874655Y-56642000D01*
X17988729Y-57215489D01*
X18313585Y-57701670D01*
X18623069Y-57908461D01*
X18207268Y-58279964D01*
X17953291Y-58807209D01*
X17950642Y-58822974D01*
X18071783Y-59055000D01*
X19431000Y-59055000D01*
X19431000Y-59035000D01*
X19685000Y-59035000D01*
X19685000Y-59055000D01*
X21044217Y-59055000D01*
X21165358Y-58822974D01*
X21162709Y-58807209D01*
X20908732Y-58279964D01*
X20492931Y-57908461D01*
X20802415Y-57701670D01*
X21127271Y-57215489D01*
X21241345Y-56642000D01*
X21127271Y-56068511D01*
X20802415Y-55582330D01*
X20487634Y-55372000D01*
X20802415Y-55161670D01*
X21127271Y-54675489D01*
X21241345Y-54102000D01*
X21127271Y-53528511D01*
X20802415Y-53042330D01*
X20316234Y-52717474D01*
X19742745Y-52603400D01*
X19373255Y-52603400D01*
X18799766Y-52717474D01*
X18313585Y-53042330D01*
X17988729Y-53528511D01*
X17874655Y-54102000D01*
X13918000Y-54102000D01*
X13918000Y-42361100D01*
X15204916Y-42361100D01*
X15291313Y-42795446D01*
X15537350Y-43163666D01*
X15905570Y-43409703D01*
X16339916Y-43496100D01*
X16945164Y-43496100D01*
X17379510Y-43409703D01*
X17747730Y-43163666D01*
X17993767Y-42795446D01*
X18080164Y-42361100D01*
X17993767Y-41926754D01*
X17747730Y-41558534D01*
X17379510Y-41312497D01*
X16945164Y-41226100D01*
X16339916Y-41226100D01*
X15905570Y-41312497D01*
X15537350Y-41558534D01*
X15291313Y-41926754D01*
X15204916Y-42361100D01*
X13918000Y-42361100D01*
X13918000Y-41186415D01*
X18232540Y-41186415D01*
X18232540Y-41535785D01*
X18317034Y-41960564D01*
X18557651Y-42320674D01*
X18917761Y-42561291D01*
X19342540Y-42645785D01*
X19767319Y-42561291D01*
X20127429Y-42320674D01*
X20368046Y-41960564D01*
X20452540Y-41535785D01*
X20452540Y-41186415D01*
X20368046Y-40761636D01*
X20127429Y-40401526D01*
X19767319Y-40160909D01*
X19342540Y-40076415D01*
X18917761Y-40160909D01*
X18557651Y-40401526D01*
X18317034Y-40761636D01*
X18232540Y-41186415D01*
X13918000Y-41186415D01*
X13918000Y-35361100D01*
X15204916Y-35361100D01*
X15291313Y-35795446D01*
X15537350Y-36163666D01*
X15905570Y-36409703D01*
X16339916Y-36496100D01*
X16945164Y-36496100D01*
X17379510Y-36409703D01*
X17713683Y-36186415D01*
X18232540Y-36186415D01*
X18232540Y-36535785D01*
X18317034Y-36960564D01*
X18557651Y-37320674D01*
X18917761Y-37561291D01*
X19342540Y-37645785D01*
X19767319Y-37561291D01*
X20127429Y-37320674D01*
X20368046Y-36960564D01*
X20452540Y-36535785D01*
X20452540Y-36186415D01*
X20368046Y-35761636D01*
X20127429Y-35401526D01*
X19767319Y-35160909D01*
X19342540Y-35076415D01*
X18917761Y-35160909D01*
X18557651Y-35401526D01*
X18317034Y-35761636D01*
X18232540Y-36186415D01*
X17713683Y-36186415D01*
X17747730Y-36163666D01*
X17993767Y-35795446D01*
X18080164Y-35361100D01*
X17993767Y-34926754D01*
X17747730Y-34558534D01*
X17379510Y-34312497D01*
X16945164Y-34226100D01*
X16339916Y-34226100D01*
X15905570Y-34312497D01*
X15537350Y-34558534D01*
X15291313Y-34926754D01*
X15204916Y-35361100D01*
X13918000Y-35361100D01*
X13918000Y-13918000D01*
X55795786Y-13918000D01*
X55626354Y-14326037D01*
X55626354Y-14326037D01*
G37*
X55626354Y-14326037D02*
X55625648Y-15134416D01*
X55934350Y-15881532D01*
X56505462Y-16453641D01*
X57252037Y-16763646D01*
X58060416Y-16764352D01*
X58807532Y-16455650D01*
X59379641Y-15884538D01*
X59689646Y-15137963D01*
X59690352Y-14329584D01*
X59520289Y-13918000D01*
X61520000Y-13918000D01*
X61520000Y-81078000D01*
X13918000Y-81078000D01*
X13918000Y-61722000D01*
X17874655Y-61722000D01*
X17988729Y-62295489D01*
X18313585Y-62781670D01*
X18628366Y-62992000D01*
X18313585Y-63202330D01*
X17988729Y-63688511D01*
X17874655Y-64262000D01*
X17988729Y-64835489D01*
X18313585Y-65321670D01*
X18628366Y-65532000D01*
X18313585Y-65742330D01*
X17988729Y-66228511D01*
X17874655Y-66802000D01*
X17988729Y-67375489D01*
X18313585Y-67861670D01*
X18628366Y-68072000D01*
X18313585Y-68282330D01*
X17988729Y-68768511D01*
X17874655Y-69342000D01*
X17988729Y-69915489D01*
X18313585Y-70401670D01*
X18628366Y-70612000D01*
X18313585Y-70822330D01*
X17988729Y-71308511D01*
X17874655Y-71882000D01*
X17988729Y-72455489D01*
X18313585Y-72941670D01*
X18628366Y-73152000D01*
X18313585Y-73362330D01*
X17988729Y-73848511D01*
X17874655Y-74422000D01*
X17988729Y-74995489D01*
X18313585Y-75481670D01*
X18628366Y-75692000D01*
X18313585Y-75902330D01*
X17988729Y-76388511D01*
X17874655Y-76962000D01*
X17988729Y-77535489D01*
X18313585Y-78021670D01*
X18327913Y-78031243D01*
X18306683Y-78035238D01*
X18090559Y-78174310D01*
X17945569Y-78386510D01*
X17894560Y-78638400D01*
X17894560Y-80365600D01*
X17938838Y-80600917D01*
X18077910Y-80817041D01*
X18290110Y-80962031D01*
X18542000Y-81013040D01*
X20574000Y-81013040D01*
X20809317Y-80968762D01*
X21025441Y-80829690D01*
X21170431Y-80617490D01*
X21221440Y-80365600D01*
X21221440Y-80262000D01*
X22352000Y-80262000D01*
X22642839Y-80204148D01*
X22889401Y-80039401D01*
X23150141Y-79778661D01*
X39496758Y-79778661D01*
X39708990Y-80292303D01*
X40101630Y-80685629D01*
X40614900Y-80898757D01*
X41170661Y-80899242D01*
X41684303Y-80687010D01*
X42077629Y-80294370D01*
X42163949Y-80086488D01*
X42248990Y-80292303D01*
X42641630Y-80685629D01*
X43154900Y-80898757D01*
X43710661Y-80899242D01*
X44224303Y-80687010D01*
X44617629Y-80294370D01*
X44703949Y-80086488D01*
X44788990Y-80292303D01*
X45181630Y-80685629D01*
X45694900Y-80898757D01*
X46250661Y-80899242D01*
X46764303Y-80687010D01*
X47157629Y-80294370D01*
X47370757Y-79781100D01*
X47371242Y-79225339D01*
X47159010Y-78711697D01*
X46766370Y-78318371D01*
X46253100Y-78105243D01*
X45697339Y-78104758D01*
X45183697Y-78316990D01*
X44790371Y-78709630D01*
X44704051Y-78917512D01*
X44619010Y-78711697D01*
X44226370Y-78318371D01*
X43713100Y-78105243D01*
X43157339Y-78104758D01*
X42643697Y-78316990D01*
X42250371Y-78709630D01*
X42164051Y-78917512D01*
X42079010Y-78711697D01*
X41686370Y-78318371D01*
X41173100Y-78105243D01*
X40617339Y-78104758D01*
X40103697Y-78316990D01*
X39710371Y-78709630D01*
X39497243Y-79222900D01*
X39496758Y-79778661D01*
X23150141Y-79778661D01*
X27969401Y-74959401D01*
X28134148Y-74712839D01*
X28192000Y-74422000D01*
X28192000Y-61145167D01*
X32846838Y-61145167D01*
X32988883Y-61488943D01*
X33251673Y-61752192D01*
X33595201Y-61894838D01*
X33967167Y-61895162D01*
X34276533Y-61767335D01*
X37308599Y-64799401D01*
X37555160Y-64964148D01*
X37846000Y-65022000D01*
X39591216Y-65022000D01*
X39603340Y-65082954D01*
X39906172Y-65536173D01*
X40359391Y-65839005D01*
X40894000Y-65945345D01*
X41428609Y-65839005D01*
X41881828Y-65536173D01*
X42184660Y-65082954D01*
X42291000Y-64548345D01*
X42291000Y-63975655D01*
X44577000Y-63975655D01*
X44577000Y-64548345D01*
X44683340Y-65082954D01*
X44986172Y-65536173D01*
X45439391Y-65839005D01*
X45974000Y-65945345D01*
X46508609Y-65839005D01*
X46961828Y-65536173D01*
X47264660Y-65082954D01*
X47371000Y-64548345D01*
X47371000Y-63975655D01*
X47264660Y-63441046D01*
X46961828Y-62987827D01*
X46508609Y-62684995D01*
X45974000Y-62578655D01*
X45439391Y-62684995D01*
X44986172Y-62987827D01*
X44683340Y-63441046D01*
X44577000Y-63975655D01*
X42291000Y-63975655D01*
X42184660Y-63441046D01*
X41881828Y-62987827D01*
X41428609Y-62684995D01*
X40894000Y-62578655D01*
X40359391Y-62684995D01*
X39906172Y-62987827D01*
X39603340Y-63441046D01*
X39591216Y-63502000D01*
X38160802Y-63502000D01*
X35081401Y-60422599D01*
X34834839Y-60257852D01*
X34544000Y-60200000D01*
X34344463Y-60200000D01*
X34312327Y-60167808D01*
X33968799Y-60025162D01*
X33596833Y-60024838D01*
X33253057Y-60166883D01*
X32989808Y-60429673D01*
X32847162Y-60773201D01*
X32846838Y-61145167D01*
X28192000Y-61145167D01*
X28192000Y-55178802D01*
X46621680Y-36749122D01*
X46667167Y-36749162D01*
X47010943Y-36607117D01*
X47274192Y-36344327D01*
X47416838Y-36000799D01*
X47417162Y-35628833D01*
X47287375Y-35314724D01*
X47528192Y-35074327D01*
X47670838Y-34730799D01*
X47671162Y-34358833D01*
X47529117Y-34015057D01*
X47266327Y-33751808D01*
X46922799Y-33609162D01*
X46550833Y-33608838D01*
X46400876Y-33670799D01*
X46400879Y-33667923D01*
X46796802Y-33272000D01*
X47183198Y-33272000D01*
X49024000Y-35112802D01*
X49024000Y-55569198D01*
X47750000Y-54295198D01*
X47750000Y-49276000D01*
X47692148Y-48985161D01*
X47692148Y-48985160D01*
X47527401Y-48738599D01*
X44369122Y-45580320D01*
X44369162Y-45534833D01*
X44227117Y-45191057D01*
X43964327Y-44927808D01*
X43620799Y-44785162D01*
X43248833Y-44784838D01*
X42905057Y-44926883D01*
X42641808Y-45189673D01*
X42499162Y-45533201D01*
X42498838Y-45905167D01*
X42640883Y-46248943D01*
X42903673Y-46512192D01*
X43247201Y-46654838D01*
X43294077Y-46654879D01*
X46230000Y-49590802D01*
X46230000Y-54610000D01*
X46287852Y-54900839D01*
X46452599Y-55147401D01*
X56898000Y-65592802D01*
X56898000Y-69027198D01*
X56375040Y-69550158D01*
X56375040Y-68224400D01*
X56330762Y-67989083D01*
X56191690Y-67772959D01*
X55979490Y-67627969D01*
X55727600Y-67576960D01*
X54000400Y-67576960D01*
X53765083Y-67621238D01*
X53548959Y-67760310D01*
X53403969Y-67972510D01*
X53395092Y-68016345D01*
X52926848Y-67703474D01*
X52353359Y-67589400D01*
X52294641Y-67589400D01*
X51721152Y-67703474D01*
X51234971Y-68028330D01*
X50910115Y-68514511D01*
X50796041Y-69088000D01*
X50910115Y-69661489D01*
X51234971Y-70147670D01*
X51558228Y-70363664D01*
X51435510Y-70421179D01*
X51041312Y-70853053D01*
X50869042Y-71268974D01*
X50990183Y-71501000D01*
X52197000Y-71501000D01*
X52197000Y-71481000D01*
X52451000Y-71481000D01*
X52451000Y-71501000D01*
X52471000Y-71501000D01*
X52471000Y-71755000D01*
X52451000Y-71755000D01*
X52451000Y-71775000D01*
X52197000Y-71775000D01*
X52197000Y-71755000D01*
X50990183Y-71755000D01*
X50869042Y-71987026D01*
X51041312Y-72402947D01*
X51435510Y-72834821D01*
X51558228Y-72892336D01*
X51234971Y-73108330D01*
X50910115Y-73594511D01*
X50796041Y-74168000D01*
X50910115Y-74741489D01*
X51234971Y-75227670D01*
X51721152Y-75552526D01*
X52294641Y-75666600D01*
X52353359Y-75666600D01*
X52926848Y-75552526D01*
X53413029Y-75227670D01*
X53594000Y-74956828D01*
X53774971Y-75227670D01*
X54261152Y-75552526D01*
X54834641Y-75666600D01*
X54893359Y-75666600D01*
X55466848Y-75552526D01*
X55953029Y-75227670D01*
X56277885Y-74741489D01*
X56391959Y-74168000D01*
X56358917Y-74001885D01*
X56843052Y-73517750D01*
X57643000Y-73517750D01*
X57643000Y-74108309D01*
X57739673Y-74341698D01*
X57918301Y-74520327D01*
X58151690Y-74617000D01*
X58642250Y-74617000D01*
X58801000Y-74458250D01*
X58801000Y-73359000D01*
X59055000Y-73359000D01*
X59055000Y-74458250D01*
X59213750Y-74617000D01*
X59704310Y-74617000D01*
X59937699Y-74520327D01*
X60116327Y-74341698D01*
X60213000Y-74108309D01*
X60213000Y-73517750D01*
X60054250Y-73359000D01*
X59055000Y-73359000D01*
X58801000Y-73359000D01*
X57801750Y-73359000D01*
X57643000Y-73517750D01*
X56843052Y-73517750D01*
X57643000Y-72717802D01*
X57643000Y-72946250D01*
X57801750Y-73105000D01*
X58801000Y-73105000D01*
X58801000Y-73085000D01*
X59055000Y-73085000D01*
X59055000Y-73105000D01*
X60054250Y-73105000D01*
X60213000Y-72946250D01*
X60213000Y-72355691D01*
X60116327Y-72122302D01*
X59937699Y-71943673D01*
X59801713Y-71887346D01*
X59813317Y-71885162D01*
X60029441Y-71746090D01*
X60174431Y-71533890D01*
X60225440Y-71282000D01*
X60225440Y-69782000D01*
X60181162Y-69546683D01*
X60042090Y-69330559D01*
X59829890Y-69185569D01*
X59688000Y-69156836D01*
X59688000Y-65024000D01*
X59630148Y-64733161D01*
X59465401Y-64486599D01*
X53170202Y-58191400D01*
X55537360Y-58191400D01*
X55537360Y-59918600D01*
X55581638Y-60153917D01*
X55720710Y-60370041D01*
X55932910Y-60515031D01*
X56184800Y-60566040D01*
X58216800Y-60566040D01*
X58452117Y-60521762D01*
X58668241Y-60382690D01*
X58813231Y-60170490D01*
X58864240Y-59918600D01*
X58864240Y-58191400D01*
X58819962Y-57956083D01*
X58680890Y-57739959D01*
X58468690Y-57594969D01*
X58373873Y-57575768D01*
X58551532Y-57417036D01*
X58805509Y-56889791D01*
X58808158Y-56874026D01*
X58687017Y-56642000D01*
X57327800Y-56642000D01*
X57327800Y-56662000D01*
X57073800Y-56662000D01*
X57073800Y-56642000D01*
X55714583Y-56642000D01*
X55593442Y-56874026D01*
X55596091Y-56889791D01*
X55850068Y-57417036D01*
X56025645Y-57573907D01*
X55949483Y-57588238D01*
X55733359Y-57727310D01*
X55588369Y-57939510D01*
X55537360Y-58191400D01*
X53170202Y-58191400D01*
X50544000Y-55565198D01*
X50544000Y-34798000D01*
X50530308Y-34729167D01*
X50486148Y-34507160D01*
X50321401Y-34260599D01*
X48035401Y-31974599D01*
X47886340Y-31875000D01*
X55756152Y-31875000D01*
X55956385Y-32174670D01*
X56271166Y-32385000D01*
X55956385Y-32595330D01*
X55631529Y-33081511D01*
X55517455Y-33655000D01*
X55631529Y-34228489D01*
X55956385Y-34714670D01*
X56271166Y-34925000D01*
X55956385Y-35135330D01*
X55631529Y-35621511D01*
X55517455Y-36195000D01*
X55631529Y-36768489D01*
X55956385Y-37254670D01*
X56271166Y-37465000D01*
X55956385Y-37675330D01*
X55631529Y-38161511D01*
X55517455Y-38735000D01*
X55631529Y-39308489D01*
X55956385Y-39794670D01*
X56271166Y-40005000D01*
X55956385Y-40215330D01*
X55631529Y-40701511D01*
X55517455Y-41275000D01*
X55631529Y-41848489D01*
X55956385Y-42334670D01*
X56271166Y-42545000D01*
X55956385Y-42755330D01*
X55631529Y-43241511D01*
X55517455Y-43815000D01*
X55631529Y-44388489D01*
X55956385Y-44874670D01*
X56271166Y-45085000D01*
X55956385Y-45295330D01*
X55631529Y-45781511D01*
X55517455Y-46355000D01*
X55631529Y-46928489D01*
X55956385Y-47414670D01*
X56271166Y-47625000D01*
X55956385Y-47835330D01*
X55631529Y-48321511D01*
X55517455Y-48895000D01*
X55631529Y-49468489D01*
X55956385Y-49954670D01*
X56271166Y-50165000D01*
X55956385Y-50375330D01*
X55631529Y-50861511D01*
X55517455Y-51435000D01*
X55631529Y-52008489D01*
X55956385Y-52494670D01*
X56271166Y-52705000D01*
X55956385Y-52915330D01*
X55631529Y-53401511D01*
X55517455Y-53975000D01*
X55631529Y-54548489D01*
X55956385Y-55034670D01*
X56265869Y-55241461D01*
X55850068Y-55612964D01*
X55596091Y-56140209D01*
X55593442Y-56155974D01*
X55714583Y-56388000D01*
X57073800Y-56388000D01*
X57073800Y-56368000D01*
X57327800Y-56368000D01*
X57327800Y-56388000D01*
X58687017Y-56388000D01*
X58808158Y-56155974D01*
X58805509Y-56140209D01*
X58551532Y-55612964D01*
X58135731Y-55241461D01*
X58445215Y-55034670D01*
X58770071Y-54548489D01*
X58884145Y-53975000D01*
X58770071Y-53401511D01*
X58445215Y-52915330D01*
X58130434Y-52705000D01*
X58445215Y-52494670D01*
X58770071Y-52008489D01*
X58884145Y-51435000D01*
X58770071Y-50861511D01*
X58445215Y-50375330D01*
X58130434Y-50165000D01*
X58445215Y-49954670D01*
X58770071Y-49468489D01*
X58884145Y-48895000D01*
X58770071Y-48321511D01*
X58445215Y-47835330D01*
X58130434Y-47625000D01*
X58445215Y-47414670D01*
X58770071Y-46928489D01*
X58884145Y-46355000D01*
X58770071Y-45781511D01*
X58445215Y-45295330D01*
X58130434Y-45085000D01*
X58445215Y-44874670D01*
X58770071Y-44388489D01*
X58884145Y-43815000D01*
X58770071Y-43241511D01*
X58445215Y-42755330D01*
X58130434Y-42545000D01*
X58445215Y-42334670D01*
X58770071Y-41848489D01*
X58884145Y-41275000D01*
X58770071Y-40701511D01*
X58445215Y-40215330D01*
X58130434Y-40005000D01*
X58445215Y-39794670D01*
X58770071Y-39308489D01*
X58884145Y-38735000D01*
X58770071Y-38161511D01*
X58445215Y-37675330D01*
X58130434Y-37465000D01*
X58445215Y-37254670D01*
X58770071Y-36768489D01*
X58884145Y-36195000D01*
X58770071Y-35621511D01*
X58445215Y-35135330D01*
X58130434Y-34925000D01*
X58445215Y-34714670D01*
X58770071Y-34228489D01*
X58884145Y-33655000D01*
X58770071Y-33081511D01*
X58445215Y-32595330D01*
X58130434Y-32385000D01*
X58445215Y-32174670D01*
X58770071Y-31688489D01*
X58884145Y-31115000D01*
X58770071Y-30541511D01*
X58445215Y-30055330D01*
X58130434Y-29845000D01*
X58445215Y-29634670D01*
X58770071Y-29148489D01*
X58884145Y-28575000D01*
X58770071Y-28001511D01*
X58445215Y-27515330D01*
X58130434Y-27305000D01*
X58445215Y-27094670D01*
X58770071Y-26608489D01*
X58884145Y-26035000D01*
X58770071Y-25461511D01*
X58445215Y-24975330D01*
X58130434Y-24765000D01*
X58445215Y-24554670D01*
X58770071Y-24068489D01*
X58884145Y-23495000D01*
X58770071Y-22921511D01*
X58445215Y-22435330D01*
X58130434Y-22225000D01*
X58445215Y-22014670D01*
X58770071Y-21528489D01*
X58884145Y-20955000D01*
X58770071Y-20381511D01*
X58445215Y-19895330D01*
X57959034Y-19570474D01*
X57385545Y-19456400D01*
X57016055Y-19456400D01*
X56442566Y-19570474D01*
X55956385Y-19895330D01*
X55631529Y-20381511D01*
X55517455Y-20955000D01*
X55631529Y-21528489D01*
X55956385Y-22014670D01*
X56271166Y-22225000D01*
X55956385Y-22435330D01*
X55631529Y-22921511D01*
X55517455Y-23495000D01*
X55631529Y-24068489D01*
X55956385Y-24554670D01*
X56271166Y-24765000D01*
X55956385Y-24975330D01*
X55756152Y-25275000D01*
X46101000Y-25275000D01*
X45810160Y-25332852D01*
X45563599Y-25497599D01*
X30086320Y-40974878D01*
X30040833Y-40974838D01*
X29697057Y-41116883D01*
X29433808Y-41379673D01*
X29291162Y-41723201D01*
X29290838Y-42095167D01*
X29432883Y-42438943D01*
X29695673Y-42702192D01*
X30039201Y-42844838D01*
X30411167Y-42845162D01*
X30754943Y-42703117D01*
X31018192Y-42440327D01*
X31160838Y-42096799D01*
X31160879Y-42049923D01*
X31336521Y-41874281D01*
X31464883Y-42184943D01*
X31727673Y-42448192D01*
X32071201Y-42590838D01*
X32443167Y-42591162D01*
X32786943Y-42449117D01*
X33050192Y-42186327D01*
X33107074Y-42049340D01*
X33251673Y-42194192D01*
X33595201Y-42336838D01*
X33967167Y-42337162D01*
X34310943Y-42195117D01*
X34574192Y-41932327D01*
X34716838Y-41588799D01*
X34716879Y-41541923D01*
X44383802Y-31875000D01*
X46093660Y-31875000D01*
X45944599Y-31974599D01*
X45326320Y-32592878D01*
X45280833Y-32592838D01*
X44937057Y-32734883D01*
X44673808Y-32997673D01*
X44531162Y-33341201D01*
X44530838Y-33713167D01*
X44660625Y-34027276D01*
X44419808Y-34267673D01*
X44277162Y-34611201D01*
X44277130Y-34648293D01*
X23853274Y-54574006D01*
X23846871Y-54583337D01*
X23837569Y-54589783D01*
X23763205Y-54705266D01*
X23685496Y-54818515D01*
X23683151Y-54829587D01*
X23677024Y-54839102D01*
X23652514Y-54974251D01*
X23624058Y-55108618D01*
X23626129Y-55119744D01*
X23624109Y-55130880D01*
X23873627Y-69852433D01*
X20982961Y-73632535D01*
X20802415Y-73362330D01*
X20487634Y-73152000D01*
X20802415Y-72941670D01*
X21127271Y-72455489D01*
X21241345Y-71882000D01*
X21127271Y-71308511D01*
X20802415Y-70822330D01*
X20487634Y-70612000D01*
X20802415Y-70401670D01*
X21127271Y-69915489D01*
X21241345Y-69342000D01*
X21127271Y-68768511D01*
X20802415Y-68282330D01*
X20487634Y-68072000D01*
X20802415Y-67861670D01*
X21127271Y-67375489D01*
X21241345Y-66802000D01*
X21127271Y-66228511D01*
X20802415Y-65742330D01*
X20487634Y-65532000D01*
X20802415Y-65321670D01*
X21127271Y-64835489D01*
X21241345Y-64262000D01*
X21127271Y-63688511D01*
X20802415Y-63202330D01*
X20487634Y-62992000D01*
X20802415Y-62781670D01*
X21127271Y-62295489D01*
X21241345Y-61722000D01*
X21127271Y-61148511D01*
X20802415Y-60662330D01*
X20492931Y-60455539D01*
X20908732Y-60084036D01*
X21162709Y-59556791D01*
X21165358Y-59541026D01*
X21044217Y-59309000D01*
X19685000Y-59309000D01*
X19685000Y-59329000D01*
X19431000Y-59329000D01*
X19431000Y-59309000D01*
X18071783Y-59309000D01*
X17950642Y-59541026D01*
X17953291Y-59556791D01*
X18207268Y-60084036D01*
X18623069Y-60455539D01*
X18313585Y-60662330D01*
X17988729Y-61148511D01*
X17874655Y-61722000D01*
X13918000Y-61722000D01*
X13918000Y-54102000D01*
X17874655Y-54102000D01*
X17988729Y-54675489D01*
X18313585Y-55161670D01*
X18628366Y-55372000D01*
X18313585Y-55582330D01*
X17988729Y-56068511D01*
X17874655Y-56642000D01*
X17988729Y-57215489D01*
X18313585Y-57701670D01*
X18623069Y-57908461D01*
X18207268Y-58279964D01*
X17953291Y-58807209D01*
X17950642Y-58822974D01*
X18071783Y-59055000D01*
X19431000Y-59055000D01*
X19431000Y-59035000D01*
X19685000Y-59035000D01*
X19685000Y-59055000D01*
X21044217Y-59055000D01*
X21165358Y-58822974D01*
X21162709Y-58807209D01*
X20908732Y-58279964D01*
X20492931Y-57908461D01*
X20802415Y-57701670D01*
X21127271Y-57215489D01*
X21241345Y-56642000D01*
X21127271Y-56068511D01*
X20802415Y-55582330D01*
X20487634Y-55372000D01*
X20802415Y-55161670D01*
X21127271Y-54675489D01*
X21241345Y-54102000D01*
X21127271Y-53528511D01*
X20802415Y-53042330D01*
X20316234Y-52717474D01*
X19742745Y-52603400D01*
X19373255Y-52603400D01*
X18799766Y-52717474D01*
X18313585Y-53042330D01*
X17988729Y-53528511D01*
X17874655Y-54102000D01*
X13918000Y-54102000D01*
X13918000Y-42361100D01*
X15204916Y-42361100D01*
X15291313Y-42795446D01*
X15537350Y-43163666D01*
X15905570Y-43409703D01*
X16339916Y-43496100D01*
X16945164Y-43496100D01*
X17379510Y-43409703D01*
X17747730Y-43163666D01*
X17993767Y-42795446D01*
X18080164Y-42361100D01*
X17993767Y-41926754D01*
X17747730Y-41558534D01*
X17379510Y-41312497D01*
X16945164Y-41226100D01*
X16339916Y-41226100D01*
X15905570Y-41312497D01*
X15537350Y-41558534D01*
X15291313Y-41926754D01*
X15204916Y-42361100D01*
X13918000Y-42361100D01*
X13918000Y-41186415D01*
X18232540Y-41186415D01*
X18232540Y-41535785D01*
X18317034Y-41960564D01*
X18557651Y-42320674D01*
X18917761Y-42561291D01*
X19342540Y-42645785D01*
X19767319Y-42561291D01*
X20127429Y-42320674D01*
X20368046Y-41960564D01*
X20452540Y-41535785D01*
X20452540Y-41186415D01*
X20368046Y-40761636D01*
X20127429Y-40401526D01*
X19767319Y-40160909D01*
X19342540Y-40076415D01*
X18917761Y-40160909D01*
X18557651Y-40401526D01*
X18317034Y-40761636D01*
X18232540Y-41186415D01*
X13918000Y-41186415D01*
X13918000Y-35361100D01*
X15204916Y-35361100D01*
X15291313Y-35795446D01*
X15537350Y-36163666D01*
X15905570Y-36409703D01*
X16339916Y-36496100D01*
X16945164Y-36496100D01*
X17379510Y-36409703D01*
X17713683Y-36186415D01*
X18232540Y-36186415D01*
X18232540Y-36535785D01*
X18317034Y-36960564D01*
X18557651Y-37320674D01*
X18917761Y-37561291D01*
X19342540Y-37645785D01*
X19767319Y-37561291D01*
X20127429Y-37320674D01*
X20368046Y-36960564D01*
X20452540Y-36535785D01*
X20452540Y-36186415D01*
X20368046Y-35761636D01*
X20127429Y-35401526D01*
X19767319Y-35160909D01*
X19342540Y-35076415D01*
X18917761Y-35160909D01*
X18557651Y-35401526D01*
X18317034Y-35761636D01*
X18232540Y-36186415D01*
X17713683Y-36186415D01*
X17747730Y-36163666D01*
X17993767Y-35795446D01*
X18080164Y-35361100D01*
X17993767Y-34926754D01*
X17747730Y-34558534D01*
X17379510Y-34312497D01*
X16945164Y-34226100D01*
X16339916Y-34226100D01*
X15905570Y-34312497D01*
X15537350Y-34558534D01*
X15291313Y-34926754D01*
X15204916Y-35361100D01*
X13918000Y-35361100D01*
X13918000Y-13918000D01*
X55795786Y-13918000D01*
X55626354Y-14326037D01*
M02*
