G04 #@! TF.FileFunction,Copper,L1,Top,Signal*
%FSLAX46Y46*%
G04 Gerber Fmt 4.6, Leading zero omitted, Abs format (unit mm)*
G04 Created by KiCad (PCBNEW 0.201508140901+6091~28~ubuntu14.04.1-product) date Tue 23 Feb 2016 10:02:54 PM EST*
%MOMM*%
G01*
G04 APERTURE LIST*
%ADD10C,0.100000*%
%ADD11R,1.727200X1.727200*%
%ADD12O,1.727200X1.727200*%
%ADD13R,1.000000X3.200000*%
%ADD14R,1.524000X1.270000*%
%ADD15R,2.032000X1.727200*%
%ADD16O,2.032000X1.727200*%
%ADD17C,2.794000*%
%ADD18R,1.350000X0.400000*%
%ADD19O,0.950000X1.250000*%
%ADD20O,1.550000X1.000000*%
%ADD21O,1.524000X2.032000*%
%ADD22C,1.524000*%
%ADD23R,2.499360X1.800860*%
%ADD24R,1.500000X1.250000*%
%ADD25R,1.500000X1.300000*%
%ADD26C,0.600000*%
%ADD27C,0.250000*%
%ADD28C,0.254000*%
G04 APERTURE END LIST*
D10*
D11*
X54864000Y-69088000D03*
D12*
X52324000Y-69088000D03*
X54864000Y-71628000D03*
X52324000Y-71628000D03*
X54864000Y-74168000D03*
X52324000Y-74168000D03*
D13*
X31528000Y-71784000D03*
X31528000Y-78584000D03*
X35528000Y-78584000D03*
X35528000Y-71784000D03*
D10*
G36*
X38854555Y-33505666D02*
X39243464Y-33116757D01*
X40374835Y-34248128D01*
X39985926Y-34637037D01*
X38854555Y-33505666D01*
X38854555Y-33505666D01*
G37*
G36*
X38288870Y-34071352D02*
X38677779Y-33682443D01*
X39809150Y-34813814D01*
X39420241Y-35202723D01*
X38288870Y-34071352D01*
X38288870Y-34071352D01*
G37*
G36*
X37723184Y-34637037D02*
X38112093Y-34248128D01*
X39243464Y-35379499D01*
X38854555Y-35768408D01*
X37723184Y-34637037D01*
X37723184Y-34637037D01*
G37*
G36*
X37157499Y-35202722D02*
X37546408Y-34813813D01*
X38677779Y-35945184D01*
X38288870Y-36334093D01*
X37157499Y-35202722D01*
X37157499Y-35202722D01*
G37*
G36*
X36591813Y-35768408D02*
X36980722Y-35379499D01*
X38112093Y-36510870D01*
X37723184Y-36899779D01*
X36591813Y-35768408D01*
X36591813Y-35768408D01*
G37*
G36*
X36026128Y-36334093D02*
X36415037Y-35945184D01*
X37546408Y-37076555D01*
X37157499Y-37465464D01*
X36026128Y-36334093D01*
X36026128Y-36334093D01*
G37*
G36*
X35460443Y-36899779D02*
X35849352Y-36510870D01*
X36980723Y-37642241D01*
X36591814Y-38031150D01*
X35460443Y-36899779D01*
X35460443Y-36899779D01*
G37*
G36*
X34894757Y-37465464D02*
X35283666Y-37076555D01*
X36415037Y-38207926D01*
X36026128Y-38596835D01*
X34894757Y-37465464D01*
X34894757Y-37465464D01*
G37*
G36*
X35283666Y-40647445D02*
X34894757Y-40258536D01*
X36026128Y-39127165D01*
X36415037Y-39516074D01*
X35283666Y-40647445D01*
X35283666Y-40647445D01*
G37*
G36*
X35849352Y-41213130D02*
X35460443Y-40824221D01*
X36591814Y-39692850D01*
X36980723Y-40081759D01*
X35849352Y-41213130D01*
X35849352Y-41213130D01*
G37*
G36*
X36415037Y-41778816D02*
X36026128Y-41389907D01*
X37157499Y-40258536D01*
X37546408Y-40647445D01*
X36415037Y-41778816D01*
X36415037Y-41778816D01*
G37*
G36*
X36980722Y-42344501D02*
X36591813Y-41955592D01*
X37723184Y-40824221D01*
X38112093Y-41213130D01*
X36980722Y-42344501D01*
X36980722Y-42344501D01*
G37*
G36*
X37546408Y-42910187D02*
X37157499Y-42521278D01*
X38288870Y-41389907D01*
X38677779Y-41778816D01*
X37546408Y-42910187D01*
X37546408Y-42910187D01*
G37*
G36*
X38112093Y-43475872D02*
X37723184Y-43086963D01*
X38854555Y-41955592D01*
X39243464Y-42344501D01*
X38112093Y-43475872D01*
X38112093Y-43475872D01*
G37*
G36*
X38677779Y-44041557D02*
X38288870Y-43652648D01*
X39420241Y-42521277D01*
X39809150Y-42910186D01*
X38677779Y-44041557D01*
X38677779Y-44041557D01*
G37*
G36*
X39243464Y-44607243D02*
X38854555Y-44218334D01*
X39985926Y-43086963D01*
X40374835Y-43475872D01*
X39243464Y-44607243D01*
X39243464Y-44607243D01*
G37*
G36*
X40905165Y-43475872D02*
X41294074Y-43086963D01*
X42425445Y-44218334D01*
X42036536Y-44607243D01*
X40905165Y-43475872D01*
X40905165Y-43475872D01*
G37*
G36*
X41470850Y-42910186D02*
X41859759Y-42521277D01*
X42991130Y-43652648D01*
X42602221Y-44041557D01*
X41470850Y-42910186D01*
X41470850Y-42910186D01*
G37*
G36*
X42036536Y-42344501D02*
X42425445Y-41955592D01*
X43556816Y-43086963D01*
X43167907Y-43475872D01*
X42036536Y-42344501D01*
X42036536Y-42344501D01*
G37*
G36*
X42602221Y-41778816D02*
X42991130Y-41389907D01*
X44122501Y-42521278D01*
X43733592Y-42910187D01*
X42602221Y-41778816D01*
X42602221Y-41778816D01*
G37*
G36*
X43167907Y-41213130D02*
X43556816Y-40824221D01*
X44688187Y-41955592D01*
X44299278Y-42344501D01*
X43167907Y-41213130D01*
X43167907Y-41213130D01*
G37*
G36*
X43733592Y-40647445D02*
X44122501Y-40258536D01*
X45253872Y-41389907D01*
X44864963Y-41778816D01*
X43733592Y-40647445D01*
X43733592Y-40647445D01*
G37*
G36*
X44299277Y-40081759D02*
X44688186Y-39692850D01*
X45819557Y-40824221D01*
X45430648Y-41213130D01*
X44299277Y-40081759D01*
X44299277Y-40081759D01*
G37*
G36*
X44864963Y-39516074D02*
X45253872Y-39127165D01*
X46385243Y-40258536D01*
X45996334Y-40647445D01*
X44864963Y-39516074D01*
X44864963Y-39516074D01*
G37*
G36*
X45253872Y-38596835D02*
X44864963Y-38207926D01*
X45996334Y-37076555D01*
X46385243Y-37465464D01*
X45253872Y-38596835D01*
X45253872Y-38596835D01*
G37*
G36*
X44688186Y-38031150D02*
X44299277Y-37642241D01*
X45430648Y-36510870D01*
X45819557Y-36899779D01*
X44688186Y-38031150D01*
X44688186Y-38031150D01*
G37*
G36*
X44122501Y-37465464D02*
X43733592Y-37076555D01*
X44864963Y-35945184D01*
X45253872Y-36334093D01*
X44122501Y-37465464D01*
X44122501Y-37465464D01*
G37*
G36*
X43556816Y-36899779D02*
X43167907Y-36510870D01*
X44299278Y-35379499D01*
X44688187Y-35768408D01*
X43556816Y-36899779D01*
X43556816Y-36899779D01*
G37*
G36*
X42991130Y-36334093D02*
X42602221Y-35945184D01*
X43733592Y-34813813D01*
X44122501Y-35202722D01*
X42991130Y-36334093D01*
X42991130Y-36334093D01*
G37*
G36*
X42425445Y-35768408D02*
X42036536Y-35379499D01*
X43167907Y-34248128D01*
X43556816Y-34637037D01*
X42425445Y-35768408D01*
X42425445Y-35768408D01*
G37*
G36*
X41859759Y-35202723D02*
X41470850Y-34813814D01*
X42602221Y-33682443D01*
X42991130Y-34071352D01*
X41859759Y-35202723D01*
X41859759Y-35202723D01*
G37*
G36*
X41294074Y-34637037D02*
X40905165Y-34248128D01*
X42036536Y-33116757D01*
X42425445Y-33505666D01*
X41294074Y-34637037D01*
X41294074Y-34637037D01*
G37*
D14*
X39878000Y-52578000D03*
X44958000Y-53848000D03*
X39878000Y-55118000D03*
D15*
X57200800Y-59055000D03*
D16*
X57200800Y-56515000D03*
X57200800Y-53975000D03*
X57200800Y-51435000D03*
X57200800Y-48895000D03*
X57200800Y-46355000D03*
X57200800Y-43815000D03*
X57200800Y-41275000D03*
X57200800Y-38735000D03*
X57200800Y-36195000D03*
X57200800Y-33655000D03*
X57200800Y-31115000D03*
X57200800Y-28575000D03*
X57200800Y-26035000D03*
X57200800Y-23495000D03*
X57200800Y-20955000D03*
D17*
X57658000Y-90932000D03*
X57658000Y-14732000D03*
X93726000Y-14732000D03*
X93726000Y-90932000D03*
D15*
X19558000Y-79502000D03*
D16*
X19558000Y-76962000D03*
X19558000Y-74422000D03*
X19558000Y-71882000D03*
X19558000Y-69342000D03*
X19558000Y-66802000D03*
X19558000Y-64262000D03*
X19558000Y-61722000D03*
X19558000Y-59182000D03*
X19558000Y-56642000D03*
X19558000Y-54102000D03*
D18*
X19342540Y-37561100D03*
X19342540Y-38211100D03*
X19342540Y-38861100D03*
X19342540Y-39511100D03*
X19342540Y-40161100D03*
D19*
X19342540Y-36361100D03*
X19342540Y-41361100D03*
D20*
X16642540Y-35361100D03*
X16642540Y-42361100D03*
D21*
X40894000Y-64262000D03*
X45974000Y-64262000D03*
D22*
X40894000Y-79502000D03*
X43434000Y-79502000D03*
X45974000Y-79502000D03*
D23*
X15781020Y-25908000D03*
X19778980Y-25908000D03*
X15781020Y-19050000D03*
X19778980Y-19050000D03*
D24*
X34564000Y-23622000D03*
X37064000Y-23622000D03*
X32278000Y-28956000D03*
X34778000Y-28956000D03*
D25*
X34116000Y-65024000D03*
X31416000Y-65024000D03*
X30654000Y-58420000D03*
X33354000Y-58420000D03*
X28622000Y-35306000D03*
X31322000Y-35306000D03*
X25066000Y-18796000D03*
X27766000Y-18796000D03*
D26*
X29464000Y-24892000D03*
X35814000Y-67818000D03*
X25654000Y-37592000D03*
X43434000Y-45720000D03*
X45466000Y-33528000D03*
X33782000Y-60960000D03*
X33782000Y-41402000D03*
X32258000Y-41656000D03*
X30226000Y-41910000D03*
X46482000Y-35814000D03*
X46736000Y-34544000D03*
X25146000Y-72644000D03*
X45212000Y-34798000D03*
D27*
X34778000Y-28956000D02*
X34778000Y-27412000D01*
X27766000Y-23194000D02*
X29464000Y-24892000D01*
X27766000Y-23194000D02*
X27766000Y-18796000D01*
X32258000Y-24892000D02*
X29464000Y-24892000D01*
X34778000Y-27412000D02*
X32258000Y-24892000D01*
X34116000Y-65024000D02*
X34116000Y-66120000D01*
X34116000Y-66120000D02*
X35814000Y-67818000D01*
X30654000Y-58420000D02*
X20320000Y-58420000D01*
X20320000Y-58420000D02*
X19558000Y-59182000D01*
X39878000Y-55118000D02*
X42360002Y-55118000D01*
X43757002Y-56515000D02*
X57200800Y-56515000D01*
X42360002Y-55118000D02*
X43757002Y-56515000D01*
X19342540Y-37561100D02*
X25623100Y-37561100D01*
X25623100Y-37561100D02*
X25654000Y-37592000D01*
X27766000Y-18796000D02*
X34290000Y-18796000D01*
X34290000Y-18796000D02*
X37064000Y-21570000D01*
X37064000Y-21570000D02*
X37064000Y-23622000D01*
X37064000Y-23622000D02*
X37064000Y-34720314D01*
X37064000Y-34720314D02*
X37917639Y-35573953D01*
X34778000Y-28956000D02*
X34778000Y-34697056D01*
X34778000Y-34697056D02*
X36786268Y-36705324D01*
X54864000Y-69088000D02*
X54864000Y-66802000D01*
X38354000Y-45107798D02*
X39614695Y-43847103D01*
X38354000Y-56642000D02*
X38354000Y-45107798D01*
X39116000Y-57404000D02*
X38354000Y-56642000D01*
X45466000Y-57404000D02*
X39116000Y-57404000D01*
X54864000Y-66802000D02*
X45466000Y-57404000D01*
X52324000Y-69088000D02*
X52324000Y-65786000D01*
X37592000Y-44738427D02*
X39049010Y-43281417D01*
X37592000Y-57658000D02*
X37592000Y-44738427D01*
X38608000Y-58674000D02*
X37592000Y-57658000D01*
X45212000Y-58674000D02*
X38608000Y-58674000D01*
X52324000Y-65786000D02*
X45212000Y-58674000D01*
X43434000Y-45720000D02*
X41665305Y-43951305D01*
X41665305Y-43951305D02*
X41665305Y-43847103D01*
X45466000Y-33528000D02*
X43420047Y-35573953D01*
X43420047Y-35573953D02*
X43362361Y-35573953D01*
X31528000Y-78584000D02*
X31528000Y-71784000D01*
X31528000Y-71784000D02*
X31528000Y-65136000D01*
X31528000Y-65136000D02*
X31416000Y-65024000D01*
X31416000Y-65024000D02*
X31750000Y-65024000D01*
X31750000Y-65024000D02*
X35052000Y-61722000D01*
X35052000Y-61722000D02*
X35052000Y-43942000D01*
X35052000Y-43942000D02*
X37351953Y-41642047D01*
X37351953Y-41642047D02*
X37351953Y-41584361D01*
X33354000Y-60532000D02*
X33354000Y-58420000D01*
X33782000Y-60960000D02*
X33354000Y-60532000D01*
X36220583Y-37271010D02*
X36220583Y-37236583D01*
X36220583Y-37236583D02*
X32258000Y-33274000D01*
X32258000Y-33274000D02*
X30480000Y-33274000D01*
X30480000Y-33274000D02*
X29972000Y-33782000D01*
X29972000Y-33782000D02*
X29972000Y-39624000D01*
X29972000Y-39624000D02*
X28702000Y-40894000D01*
X28702000Y-40894000D02*
X28702000Y-47752000D01*
X28702000Y-47752000D02*
X33354000Y-52404000D01*
X33354000Y-52404000D02*
X33354000Y-58420000D01*
X57200800Y-36195000D02*
X55499000Y-36195000D01*
X44027592Y-29464000D02*
X39614695Y-33876897D01*
X48768000Y-29464000D02*
X44027592Y-29464000D01*
X55499000Y-36195000D02*
X48768000Y-29464000D01*
X57200800Y-33655000D02*
X55245000Y-33655000D01*
X38100000Y-33493573D02*
X39049010Y-34442583D01*
X38100000Y-32258000D02*
X38100000Y-33493573D01*
X41910000Y-28448000D02*
X38100000Y-32258000D01*
X50038000Y-28448000D02*
X41910000Y-28448000D01*
X55245000Y-33655000D02*
X50038000Y-28448000D01*
X35654897Y-37836695D02*
X33852695Y-37836695D01*
X33852695Y-37836695D02*
X31322000Y-35306000D01*
X33782000Y-41402000D02*
X35296695Y-39887305D01*
X35296695Y-39887305D02*
X35654897Y-39887305D01*
X33747573Y-42926000D02*
X36220583Y-40452990D01*
X33528000Y-42926000D02*
X33747573Y-42926000D01*
X32258000Y-41656000D02*
X33528000Y-42926000D01*
X33862944Y-43942000D02*
X36786268Y-41018676D01*
X32258000Y-43942000D02*
X33862944Y-43942000D01*
X30226000Y-41910000D02*
X32258000Y-43942000D01*
X40894000Y-79502000D02*
X40894000Y-69850000D01*
X35814000Y-44253686D02*
X37917639Y-42150047D01*
X35814000Y-64770000D02*
X35814000Y-44253686D01*
X40894000Y-69850000D02*
X35814000Y-64770000D01*
X45974000Y-79502000D02*
X45974000Y-72898000D01*
X36830000Y-44369056D02*
X38483324Y-42715732D01*
X36830000Y-63754000D02*
X36830000Y-44369056D01*
X45974000Y-72898000D02*
X36830000Y-63754000D01*
X57200800Y-51435000D02*
X56041427Y-51435000D01*
X56041427Y-51435000D02*
X45059417Y-40452990D01*
X45625103Y-39887305D02*
X45729305Y-39887305D01*
X45729305Y-39887305D02*
X54737000Y-48895000D01*
X54737000Y-48895000D02*
X57200800Y-48895000D01*
X57200800Y-46355000D02*
X54143408Y-46355000D01*
X54143408Y-46355000D02*
X45625103Y-37836695D01*
X46482000Y-35814000D02*
X45059417Y-37236583D01*
X45059417Y-37236583D02*
X45059417Y-37271010D01*
X45059417Y-37236583D02*
X45059417Y-37271010D01*
X19558000Y-71882000D02*
X24384000Y-71882000D01*
X46736000Y-34544000D02*
X44574676Y-36705324D01*
X24384000Y-71882000D02*
X25146000Y-72644000D01*
X44574676Y-36705324D02*
X44493732Y-36705324D01*
X44574676Y-36705324D02*
X44493732Y-36705324D01*
X45212000Y-34798000D02*
X43928047Y-36081953D01*
X43928047Y-36081953D02*
X43928047Y-36139639D01*
X43928047Y-36081953D02*
X43928047Y-36139639D01*
X57200800Y-43815000D02*
X57200800Y-43484800D01*
X57200800Y-43484800D02*
X46482000Y-32766000D01*
X46482000Y-32766000D02*
X45038944Y-32766000D01*
X45038944Y-32766000D02*
X42796676Y-35008268D01*
X57200800Y-41275000D02*
X57023000Y-41275000D01*
X57023000Y-41275000D02*
X47244000Y-31496000D01*
X47244000Y-31496000D02*
X45177573Y-31496000D01*
X45177573Y-31496000D02*
X42230990Y-34442583D01*
X57200800Y-38735000D02*
X56515000Y-38735000D01*
X56515000Y-38735000D02*
X48260000Y-30480000D01*
X48260000Y-30480000D02*
X45062202Y-30480000D01*
X45062202Y-30480000D02*
X41665305Y-33876897D01*
X57200800Y-53975000D02*
X45085000Y-53975000D01*
X45085000Y-53975000D02*
X44958000Y-53848000D01*
X28622000Y-35306000D02*
X28622000Y-34751020D01*
X28622000Y-34751020D02*
X19778980Y-25908000D01*
X20286980Y-26416000D02*
X19778980Y-25908000D01*
X25066000Y-18796000D02*
X20032980Y-18796000D01*
X20032980Y-18796000D02*
X19778980Y-19050000D01*
D28*
G36*
X55626354Y-14326037D02*
X55625648Y-15134416D01*
X55934350Y-15881532D01*
X56505462Y-16453641D01*
X57252037Y-16763646D01*
X58060416Y-16764352D01*
X58807532Y-16455650D01*
X59379641Y-15884538D01*
X59689646Y-15137963D01*
X59690352Y-14329584D01*
X59520289Y-13918000D01*
X61520000Y-13918000D01*
X61520000Y-81078000D01*
X13918000Y-81078000D01*
X13918000Y-64262000D01*
X17874655Y-64262000D01*
X17988729Y-64835489D01*
X18313585Y-65321670D01*
X18628366Y-65532000D01*
X18313585Y-65742330D01*
X17988729Y-66228511D01*
X17874655Y-66802000D01*
X17988729Y-67375489D01*
X18313585Y-67861670D01*
X18628366Y-68072000D01*
X18313585Y-68282330D01*
X17988729Y-68768511D01*
X17874655Y-69342000D01*
X17988729Y-69915489D01*
X18313585Y-70401670D01*
X18628366Y-70612000D01*
X18313585Y-70822330D01*
X17988729Y-71308511D01*
X17874655Y-71882000D01*
X17988729Y-72455489D01*
X18313585Y-72941670D01*
X18628366Y-73152000D01*
X18313585Y-73362330D01*
X17988729Y-73848511D01*
X17874655Y-74422000D01*
X17988729Y-74995489D01*
X18313585Y-75481670D01*
X18628366Y-75692000D01*
X18313585Y-75902330D01*
X17988729Y-76388511D01*
X17874655Y-76962000D01*
X17988729Y-77535489D01*
X18313585Y-78021670D01*
X18327913Y-78031243D01*
X18306683Y-78035238D01*
X18090559Y-78174310D01*
X17945569Y-78386510D01*
X17894560Y-78638400D01*
X17894560Y-80365600D01*
X17938838Y-80600917D01*
X18077910Y-80817041D01*
X18290110Y-80962031D01*
X18542000Y-81013040D01*
X20574000Y-81013040D01*
X20809317Y-80968762D01*
X21025441Y-80829690D01*
X21170431Y-80617490D01*
X21221440Y-80365600D01*
X21221440Y-78638400D01*
X21177162Y-78403083D01*
X21038090Y-78186959D01*
X20825890Y-78041969D01*
X20784561Y-78033600D01*
X20802415Y-78021670D01*
X21127271Y-77535489D01*
X21241345Y-76962000D01*
X21127271Y-76388511D01*
X20802415Y-75902330D01*
X20487634Y-75692000D01*
X20802415Y-75481670D01*
X21127271Y-74995489D01*
X21241345Y-74422000D01*
X21127271Y-73848511D01*
X20802415Y-73362330D01*
X20487634Y-73152000D01*
X20802415Y-72941670D01*
X21002648Y-72642000D01*
X24069198Y-72642000D01*
X24210878Y-72783680D01*
X24210838Y-72829167D01*
X24352883Y-73172943D01*
X24615673Y-73436192D01*
X24959201Y-73578838D01*
X25331167Y-73579162D01*
X25674943Y-73437117D01*
X25938192Y-73174327D01*
X26080838Y-72830799D01*
X26081162Y-72458833D01*
X25939117Y-72115057D01*
X25676327Y-71851808D01*
X25332799Y-71709162D01*
X25285923Y-71709121D01*
X24921401Y-71344599D01*
X24674839Y-71179852D01*
X24384000Y-71122000D01*
X21002648Y-71122000D01*
X20802415Y-70822330D01*
X20487634Y-70612000D01*
X20802415Y-70401670D01*
X21127271Y-69915489D01*
X21241345Y-69342000D01*
X21127271Y-68768511D01*
X20802415Y-68282330D01*
X20487634Y-68072000D01*
X20802415Y-67861670D01*
X21127271Y-67375489D01*
X21241345Y-66802000D01*
X21127271Y-66228511D01*
X20802415Y-65742330D01*
X20487634Y-65532000D01*
X20802415Y-65321670D01*
X21127271Y-64835489D01*
X21241345Y-64262000D01*
X21127271Y-63688511D01*
X20802415Y-63202330D01*
X20492931Y-62995539D01*
X20908732Y-62624036D01*
X21162709Y-62096791D01*
X21165358Y-62081026D01*
X21044217Y-61849000D01*
X19685000Y-61849000D01*
X19685000Y-61869000D01*
X19431000Y-61869000D01*
X19431000Y-61849000D01*
X18071783Y-61849000D01*
X17950642Y-62081026D01*
X17953291Y-62096791D01*
X18207268Y-62624036D01*
X18623069Y-62995539D01*
X18313585Y-63202330D01*
X17988729Y-63688511D01*
X17874655Y-64262000D01*
X13918000Y-64262000D01*
X13918000Y-54102000D01*
X17874655Y-54102000D01*
X17988729Y-54675489D01*
X18313585Y-55161670D01*
X18628366Y-55372000D01*
X18313585Y-55582330D01*
X17988729Y-56068511D01*
X17874655Y-56642000D01*
X17988729Y-57215489D01*
X18313585Y-57701670D01*
X18628366Y-57912000D01*
X18313585Y-58122330D01*
X17988729Y-58608511D01*
X17874655Y-59182000D01*
X17988729Y-59755489D01*
X18313585Y-60241670D01*
X18623069Y-60448461D01*
X18207268Y-60819964D01*
X17953291Y-61347209D01*
X17950642Y-61362974D01*
X18071783Y-61595000D01*
X19431000Y-61595000D01*
X19431000Y-61575000D01*
X19685000Y-61575000D01*
X19685000Y-61595000D01*
X21044217Y-61595000D01*
X21165358Y-61362974D01*
X21162709Y-61347209D01*
X20908732Y-60819964D01*
X20492931Y-60448461D01*
X20802415Y-60241670D01*
X21127271Y-59755489D01*
X21241345Y-59182000D01*
X21240947Y-59180000D01*
X29277258Y-59180000D01*
X29300838Y-59305317D01*
X29439910Y-59521441D01*
X29652110Y-59666431D01*
X29904000Y-59717440D01*
X31404000Y-59717440D01*
X31639317Y-59673162D01*
X31855441Y-59534090D01*
X32000431Y-59321890D01*
X32003081Y-59308803D01*
X32139910Y-59521441D01*
X32352110Y-59666431D01*
X32594000Y-59715415D01*
X32594000Y-60532000D01*
X32651852Y-60822839D01*
X32816599Y-61069401D01*
X32846878Y-61099680D01*
X32846838Y-61145167D01*
X32988883Y-61488943D01*
X33251673Y-61752192D01*
X33595201Y-61894838D01*
X33804178Y-61895020D01*
X31972638Y-63726560D01*
X30666000Y-63726560D01*
X30430683Y-63770838D01*
X30214559Y-63909910D01*
X30069569Y-64122110D01*
X30018560Y-64374000D01*
X30018560Y-65674000D01*
X30062838Y-65909317D01*
X30201910Y-66125441D01*
X30414110Y-66270431D01*
X30666000Y-66321440D01*
X30768000Y-66321440D01*
X30768000Y-69596721D01*
X30576559Y-69719910D01*
X30431569Y-69932110D01*
X30380560Y-70184000D01*
X30380560Y-73384000D01*
X30424838Y-73619317D01*
X30563910Y-73835441D01*
X30768000Y-73974890D01*
X30768000Y-76396721D01*
X30576559Y-76519910D01*
X30431569Y-76732110D01*
X30380560Y-76984000D01*
X30380560Y-80184000D01*
X30424838Y-80419317D01*
X30563910Y-80635441D01*
X30776110Y-80780431D01*
X31028000Y-80831440D01*
X32028000Y-80831440D01*
X32263317Y-80787162D01*
X32479441Y-80648090D01*
X32624431Y-80435890D01*
X32675440Y-80184000D01*
X32675440Y-78869750D01*
X34393000Y-78869750D01*
X34393000Y-80310309D01*
X34489673Y-80543698D01*
X34668301Y-80722327D01*
X34901690Y-80819000D01*
X35242250Y-80819000D01*
X35401000Y-80660250D01*
X35401000Y-78711000D01*
X35655000Y-78711000D01*
X35655000Y-80660250D01*
X35813750Y-80819000D01*
X36154310Y-80819000D01*
X36387699Y-80722327D01*
X36566327Y-80543698D01*
X36663000Y-80310309D01*
X36663000Y-78869750D01*
X36504250Y-78711000D01*
X35655000Y-78711000D01*
X35401000Y-78711000D01*
X34551750Y-78711000D01*
X34393000Y-78869750D01*
X32675440Y-78869750D01*
X32675440Y-76984000D01*
X32651674Y-76857691D01*
X34393000Y-76857691D01*
X34393000Y-78298250D01*
X34551750Y-78457000D01*
X35401000Y-78457000D01*
X35401000Y-76507750D01*
X35655000Y-76507750D01*
X35655000Y-78457000D01*
X36504250Y-78457000D01*
X36663000Y-78298250D01*
X36663000Y-76857691D01*
X36566327Y-76624302D01*
X36387699Y-76445673D01*
X36154310Y-76349000D01*
X35813750Y-76349000D01*
X35655000Y-76507750D01*
X35401000Y-76507750D01*
X35242250Y-76349000D01*
X34901690Y-76349000D01*
X34668301Y-76445673D01*
X34489673Y-76624302D01*
X34393000Y-76857691D01*
X32651674Y-76857691D01*
X32631162Y-76748683D01*
X32492090Y-76532559D01*
X32288000Y-76393110D01*
X32288000Y-73971279D01*
X32479441Y-73848090D01*
X32624431Y-73635890D01*
X32675440Y-73384000D01*
X32675440Y-72069750D01*
X34393000Y-72069750D01*
X34393000Y-73510309D01*
X34489673Y-73743698D01*
X34668301Y-73922327D01*
X34901690Y-74019000D01*
X35242250Y-74019000D01*
X35401000Y-73860250D01*
X35401000Y-71911000D01*
X35655000Y-71911000D01*
X35655000Y-73860250D01*
X35813750Y-74019000D01*
X36154310Y-74019000D01*
X36387699Y-73922327D01*
X36566327Y-73743698D01*
X36663000Y-73510309D01*
X36663000Y-72069750D01*
X36504250Y-71911000D01*
X35655000Y-71911000D01*
X35401000Y-71911000D01*
X34551750Y-71911000D01*
X34393000Y-72069750D01*
X32675440Y-72069750D01*
X32675440Y-70184000D01*
X32651674Y-70057691D01*
X34393000Y-70057691D01*
X34393000Y-71498250D01*
X34551750Y-71657000D01*
X35401000Y-71657000D01*
X35401000Y-69707750D01*
X35655000Y-69707750D01*
X35655000Y-71657000D01*
X36504250Y-71657000D01*
X36663000Y-71498250D01*
X36663000Y-70057691D01*
X36566327Y-69824302D01*
X36387699Y-69645673D01*
X36154310Y-69549000D01*
X35813750Y-69549000D01*
X35655000Y-69707750D01*
X35401000Y-69707750D01*
X35242250Y-69549000D01*
X34901690Y-69549000D01*
X34668301Y-69645673D01*
X34489673Y-69824302D01*
X34393000Y-70057691D01*
X32651674Y-70057691D01*
X32631162Y-69948683D01*
X32492090Y-69732559D01*
X32288000Y-69593110D01*
X32288000Y-66298484D01*
X32401317Y-66277162D01*
X32617441Y-66138090D01*
X32762431Y-65925890D01*
X32765081Y-65912803D01*
X32901910Y-66125441D01*
X33114110Y-66270431D01*
X33366000Y-66321440D01*
X33396069Y-66321440D01*
X33413852Y-66410839D01*
X33578599Y-66657401D01*
X34878878Y-67957680D01*
X34878838Y-68003167D01*
X35020883Y-68346943D01*
X35283673Y-68610192D01*
X35627201Y-68752838D01*
X35999167Y-68753162D01*
X36342943Y-68611117D01*
X36606192Y-68348327D01*
X36748838Y-68004799D01*
X36749162Y-67632833D01*
X36607117Y-67289057D01*
X36344327Y-67025808D01*
X36000799Y-66883162D01*
X35953923Y-66883121D01*
X35251393Y-66180591D01*
X35317441Y-66138090D01*
X35462431Y-65925890D01*
X35513440Y-65674000D01*
X35513440Y-65544242D01*
X40134000Y-70164802D01*
X40134000Y-78304469D01*
X40103697Y-78316990D01*
X39710371Y-78709630D01*
X39497243Y-79222900D01*
X39496758Y-79778661D01*
X39708990Y-80292303D01*
X40101630Y-80685629D01*
X40614900Y-80898757D01*
X41170661Y-80899242D01*
X41684303Y-80687010D01*
X41889457Y-80482213D01*
X42633392Y-80482213D01*
X42702857Y-80724397D01*
X43226302Y-80911144D01*
X43781368Y-80883362D01*
X44165143Y-80724397D01*
X44234608Y-80482213D01*
X43434000Y-79681605D01*
X42633392Y-80482213D01*
X41889457Y-80482213D01*
X42077629Y-80294370D01*
X42157395Y-80102273D01*
X42211603Y-80233143D01*
X42453787Y-80302608D01*
X43254395Y-79502000D01*
X42453787Y-78701392D01*
X42211603Y-78770857D01*
X42161491Y-78911318D01*
X42079010Y-78711697D01*
X41889432Y-78521787D01*
X42633392Y-78521787D01*
X43434000Y-79322395D01*
X44234608Y-78521787D01*
X44165143Y-78279603D01*
X43641698Y-78092856D01*
X43086632Y-78120638D01*
X42702857Y-78279603D01*
X42633392Y-78521787D01*
X41889432Y-78521787D01*
X41686370Y-78318371D01*
X41654000Y-78304930D01*
X41654000Y-69850000D01*
X41605035Y-69603837D01*
X45214000Y-73212802D01*
X45214000Y-78304469D01*
X45183697Y-78316990D01*
X44790371Y-78709630D01*
X44710605Y-78901727D01*
X44656397Y-78770857D01*
X44414213Y-78701392D01*
X43613605Y-79502000D01*
X44414213Y-80302608D01*
X44656397Y-80233143D01*
X44706509Y-80092682D01*
X44788990Y-80292303D01*
X45181630Y-80685629D01*
X45694900Y-80898757D01*
X46250661Y-80899242D01*
X46764303Y-80687010D01*
X47157629Y-80294370D01*
X47370757Y-79781100D01*
X47371242Y-79225339D01*
X47159010Y-78711697D01*
X46766370Y-78318371D01*
X46734000Y-78304930D01*
X46734000Y-74527026D01*
X50869042Y-74527026D01*
X51041312Y-74942947D01*
X51435510Y-75374821D01*
X51964973Y-75622968D01*
X52197000Y-75502469D01*
X52197000Y-74295000D01*
X50990183Y-74295000D01*
X50869042Y-74527026D01*
X46734000Y-74527026D01*
X46734000Y-72898000D01*
X46676148Y-72607161D01*
X46511401Y-72360599D01*
X38126457Y-63975655D01*
X39497000Y-63975655D01*
X39497000Y-64548345D01*
X39603340Y-65082954D01*
X39906172Y-65536173D01*
X40359391Y-65839005D01*
X40894000Y-65945345D01*
X41428609Y-65839005D01*
X41881828Y-65536173D01*
X42184660Y-65082954D01*
X42291000Y-64548345D01*
X42291000Y-64389000D01*
X44577000Y-64389000D01*
X44577000Y-64643000D01*
X44731941Y-65167941D01*
X45075974Y-65593630D01*
X45556723Y-65855260D01*
X45630930Y-65870220D01*
X45847000Y-65747720D01*
X45847000Y-64389000D01*
X46101000Y-64389000D01*
X46101000Y-65747720D01*
X46317070Y-65870220D01*
X46391277Y-65855260D01*
X46872026Y-65593630D01*
X47216059Y-65167941D01*
X47371000Y-64643000D01*
X47371000Y-64389000D01*
X46101000Y-64389000D01*
X45847000Y-64389000D01*
X44577000Y-64389000D01*
X42291000Y-64389000D01*
X42291000Y-63975655D01*
X42272173Y-63881000D01*
X44577000Y-63881000D01*
X44577000Y-64135000D01*
X45847000Y-64135000D01*
X45847000Y-62776280D01*
X46101000Y-62776280D01*
X46101000Y-64135000D01*
X47371000Y-64135000D01*
X47371000Y-63881000D01*
X47216059Y-63356059D01*
X46872026Y-62930370D01*
X46391277Y-62668740D01*
X46317070Y-62653780D01*
X46101000Y-62776280D01*
X45847000Y-62776280D01*
X45630930Y-62653780D01*
X45556723Y-62668740D01*
X45075974Y-62930370D01*
X44731941Y-63356059D01*
X44577000Y-63881000D01*
X42272173Y-63881000D01*
X42184660Y-63441046D01*
X41881828Y-62987827D01*
X41428609Y-62684995D01*
X40894000Y-62578655D01*
X40359391Y-62684995D01*
X39906172Y-62987827D01*
X39603340Y-63441046D01*
X39497000Y-63975655D01*
X38126457Y-63975655D01*
X37590000Y-63439198D01*
X37590000Y-58730802D01*
X38070599Y-59211401D01*
X38317161Y-59376148D01*
X38608000Y-59434000D01*
X44897198Y-59434000D01*
X51564000Y-66100802D01*
X51564000Y-67808480D01*
X51234971Y-68028330D01*
X50910115Y-68514511D01*
X50796041Y-69088000D01*
X50910115Y-69661489D01*
X51234971Y-70147670D01*
X51549752Y-70358000D01*
X51234971Y-70568330D01*
X50910115Y-71054511D01*
X50796041Y-71628000D01*
X50910115Y-72201489D01*
X51234971Y-72687670D01*
X51558228Y-72903664D01*
X51435510Y-72961179D01*
X51041312Y-73393053D01*
X50869042Y-73808974D01*
X50990183Y-74041000D01*
X52197000Y-74041000D01*
X52197000Y-74021000D01*
X52451000Y-74021000D01*
X52451000Y-74041000D01*
X52471000Y-74041000D01*
X52471000Y-74295000D01*
X52451000Y-74295000D01*
X52451000Y-75502469D01*
X52683027Y-75622968D01*
X53212490Y-75374821D01*
X53594008Y-74956839D01*
X53774971Y-75227670D01*
X54261152Y-75552526D01*
X54834641Y-75666600D01*
X54893359Y-75666600D01*
X55466848Y-75552526D01*
X55953029Y-75227670D01*
X56277885Y-74741489D01*
X56391959Y-74168000D01*
X56277885Y-73594511D01*
X55953029Y-73108330D01*
X55638248Y-72898000D01*
X55953029Y-72687670D01*
X56277885Y-72201489D01*
X56391959Y-71628000D01*
X56277885Y-71054511D01*
X55953029Y-70568330D01*
X55939358Y-70559195D01*
X55962917Y-70554762D01*
X56179041Y-70415690D01*
X56324031Y-70203490D01*
X56375040Y-69951600D01*
X56375040Y-68224400D01*
X56330762Y-67989083D01*
X56191690Y-67772959D01*
X55979490Y-67627969D01*
X55727600Y-67576960D01*
X55624000Y-67576960D01*
X55624000Y-66802000D01*
X55566148Y-66511161D01*
X55401401Y-66264599D01*
X48477552Y-59340750D01*
X55549800Y-59340750D01*
X55549800Y-60044910D01*
X55646473Y-60278299D01*
X55825102Y-60456927D01*
X56058491Y-60553600D01*
X56915050Y-60553600D01*
X57073800Y-60394850D01*
X57073800Y-59182000D01*
X57327800Y-59182000D01*
X57327800Y-60394850D01*
X57486550Y-60553600D01*
X58343109Y-60553600D01*
X58576498Y-60456927D01*
X58755127Y-60278299D01*
X58851800Y-60044910D01*
X58851800Y-59340750D01*
X58693050Y-59182000D01*
X57327800Y-59182000D01*
X57073800Y-59182000D01*
X55708550Y-59182000D01*
X55549800Y-59340750D01*
X48477552Y-59340750D01*
X46411802Y-57275000D01*
X55756152Y-57275000D01*
X55956385Y-57574670D01*
X55978580Y-57589500D01*
X55825102Y-57653073D01*
X55646473Y-57831701D01*
X55549800Y-58065090D01*
X55549800Y-58769250D01*
X55708550Y-58928000D01*
X57073800Y-58928000D01*
X57073800Y-58908000D01*
X57327800Y-58908000D01*
X57327800Y-58928000D01*
X58693050Y-58928000D01*
X58851800Y-58769250D01*
X58851800Y-58065090D01*
X58755127Y-57831701D01*
X58576498Y-57653073D01*
X58423020Y-57589500D01*
X58445215Y-57574670D01*
X58770071Y-57088489D01*
X58884145Y-56515000D01*
X58770071Y-55941511D01*
X58445215Y-55455330D01*
X58130434Y-55245000D01*
X58445215Y-55034670D01*
X58770071Y-54548489D01*
X58884145Y-53975000D01*
X58770071Y-53401511D01*
X58445215Y-52915330D01*
X58130434Y-52705000D01*
X58445215Y-52494670D01*
X58770071Y-52008489D01*
X58884145Y-51435000D01*
X58770071Y-50861511D01*
X58445215Y-50375330D01*
X58130434Y-50165000D01*
X58445215Y-49954670D01*
X58770071Y-49468489D01*
X58884145Y-48895000D01*
X58770071Y-48321511D01*
X58445215Y-47835330D01*
X58130434Y-47625000D01*
X58445215Y-47414670D01*
X58770071Y-46928489D01*
X58884145Y-46355000D01*
X58770071Y-45781511D01*
X58445215Y-45295330D01*
X58130434Y-45085000D01*
X58445215Y-44874670D01*
X58770071Y-44388489D01*
X58884145Y-43815000D01*
X58770071Y-43241511D01*
X58445215Y-42755330D01*
X58130434Y-42545000D01*
X58445215Y-42334670D01*
X58770071Y-41848489D01*
X58884145Y-41275000D01*
X58770071Y-40701511D01*
X58445215Y-40215330D01*
X58130434Y-40005000D01*
X58445215Y-39794670D01*
X58770071Y-39308489D01*
X58884145Y-38735000D01*
X58770071Y-38161511D01*
X58445215Y-37675330D01*
X58130434Y-37465000D01*
X58445215Y-37254670D01*
X58770071Y-36768489D01*
X58884145Y-36195000D01*
X58770071Y-35621511D01*
X58445215Y-35135330D01*
X58130434Y-34925000D01*
X58445215Y-34714670D01*
X58770071Y-34228489D01*
X58884145Y-33655000D01*
X58770071Y-33081511D01*
X58445215Y-32595330D01*
X58130434Y-32385000D01*
X58445215Y-32174670D01*
X58770071Y-31688489D01*
X58884145Y-31115000D01*
X58770071Y-30541511D01*
X58445215Y-30055330D01*
X58130434Y-29845000D01*
X58445215Y-29634670D01*
X58770071Y-29148489D01*
X58884145Y-28575000D01*
X58770071Y-28001511D01*
X58445215Y-27515330D01*
X58130434Y-27305000D01*
X58445215Y-27094670D01*
X58770071Y-26608489D01*
X58884145Y-26035000D01*
X58770071Y-25461511D01*
X58445215Y-24975330D01*
X58130434Y-24765000D01*
X58445215Y-24554670D01*
X58770071Y-24068489D01*
X58884145Y-23495000D01*
X58770071Y-22921511D01*
X58445215Y-22435330D01*
X58130434Y-22225000D01*
X58445215Y-22014670D01*
X58770071Y-21528489D01*
X58884145Y-20955000D01*
X58770071Y-20381511D01*
X58445215Y-19895330D01*
X57959034Y-19570474D01*
X57385545Y-19456400D01*
X57016055Y-19456400D01*
X56442566Y-19570474D01*
X55956385Y-19895330D01*
X55631529Y-20381511D01*
X55517455Y-20955000D01*
X55631529Y-21528489D01*
X55956385Y-22014670D01*
X56271166Y-22225000D01*
X55956385Y-22435330D01*
X55631529Y-22921511D01*
X55517455Y-23495000D01*
X55631529Y-24068489D01*
X55956385Y-24554670D01*
X56271166Y-24765000D01*
X55956385Y-24975330D01*
X55631529Y-25461511D01*
X55517455Y-26035000D01*
X55631529Y-26608489D01*
X55956385Y-27094670D01*
X56271166Y-27305000D01*
X55956385Y-27515330D01*
X55631529Y-28001511D01*
X55517455Y-28575000D01*
X55631529Y-29148489D01*
X55956385Y-29634670D01*
X56271166Y-29845000D01*
X55956385Y-30055330D01*
X55631529Y-30541511D01*
X55517455Y-31115000D01*
X55631529Y-31688489D01*
X55956385Y-32174670D01*
X56271166Y-32385000D01*
X55956385Y-32595330D01*
X55756152Y-32895000D01*
X55559802Y-32895000D01*
X50575401Y-27910599D01*
X50328839Y-27745852D01*
X50038000Y-27688000D01*
X41910000Y-27688000D01*
X41619161Y-27745852D01*
X41372599Y-27910599D01*
X37824000Y-31459198D01*
X37824000Y-24892558D01*
X38049317Y-24850162D01*
X38265441Y-24711090D01*
X38410431Y-24498890D01*
X38461440Y-24247000D01*
X38461440Y-22997000D01*
X38417162Y-22761683D01*
X38278090Y-22545559D01*
X38065890Y-22400569D01*
X37824000Y-22351585D01*
X37824000Y-21570000D01*
X37766148Y-21279161D01*
X37766148Y-21279160D01*
X37601401Y-21032599D01*
X34827401Y-18258599D01*
X34580839Y-18093852D01*
X34290000Y-18036000D01*
X29142742Y-18036000D01*
X29119162Y-17910683D01*
X28980090Y-17694559D01*
X28767890Y-17549569D01*
X28516000Y-17498560D01*
X27016000Y-17498560D01*
X26780683Y-17542838D01*
X26564559Y-17681910D01*
X26419569Y-17894110D01*
X26416919Y-17907197D01*
X26280090Y-17694559D01*
X26067890Y-17549569D01*
X25816000Y-17498560D01*
X24316000Y-17498560D01*
X24080683Y-17542838D01*
X23864559Y-17681910D01*
X23719569Y-17894110D01*
X23690836Y-18036000D01*
X21654730Y-18036000D01*
X21631822Y-17914253D01*
X21492750Y-17698129D01*
X21280550Y-17553139D01*
X21028660Y-17502130D01*
X18529300Y-17502130D01*
X18293983Y-17546408D01*
X18077859Y-17685480D01*
X17932869Y-17897680D01*
X17881860Y-18149570D01*
X17881860Y-19950430D01*
X17926138Y-20185747D01*
X18065210Y-20401871D01*
X18277410Y-20546861D01*
X18529300Y-20597870D01*
X21028660Y-20597870D01*
X21263977Y-20553592D01*
X21480101Y-20414520D01*
X21625091Y-20202320D01*
X21676100Y-19950430D01*
X21676100Y-19556000D01*
X23689258Y-19556000D01*
X23712838Y-19681317D01*
X23851910Y-19897441D01*
X24064110Y-20042431D01*
X24316000Y-20093440D01*
X25816000Y-20093440D01*
X26051317Y-20049162D01*
X26267441Y-19910090D01*
X26412431Y-19697890D01*
X26415081Y-19684803D01*
X26551910Y-19897441D01*
X26764110Y-20042431D01*
X27006000Y-20091415D01*
X27006000Y-23194000D01*
X27063852Y-23484839D01*
X27228599Y-23731401D01*
X28528878Y-25031680D01*
X28528838Y-25077167D01*
X28670883Y-25420943D01*
X28933673Y-25684192D01*
X29277201Y-25826838D01*
X29649167Y-25827162D01*
X29992943Y-25685117D01*
X30026118Y-25652000D01*
X31943198Y-25652000D01*
X33983190Y-27691992D01*
X33792683Y-27727838D01*
X33576559Y-27866910D01*
X33530031Y-27935006D01*
X33387698Y-27792673D01*
X33154309Y-27696000D01*
X32563750Y-27696000D01*
X32405000Y-27854750D01*
X32405000Y-28829000D01*
X32425000Y-28829000D01*
X32425000Y-29083000D01*
X32405000Y-29083000D01*
X32405000Y-30057250D01*
X32563750Y-30216000D01*
X33154309Y-30216000D01*
X33387698Y-30119327D01*
X33528936Y-29978090D01*
X33563910Y-30032441D01*
X33776110Y-30177431D01*
X34018000Y-30226415D01*
X34018000Y-33959198D01*
X32795401Y-32736599D01*
X32548839Y-32571852D01*
X32258000Y-32514000D01*
X30480000Y-32514000D01*
X30189161Y-32571852D01*
X30154024Y-32595330D01*
X29942599Y-32736599D01*
X29434599Y-33244599D01*
X29269852Y-33491161D01*
X29212000Y-33782000D01*
X29212000Y-34008560D01*
X28954342Y-34008560D01*
X24187532Y-29241750D01*
X30893000Y-29241750D01*
X30893000Y-29707310D01*
X30989673Y-29940699D01*
X31168302Y-30119327D01*
X31401691Y-30216000D01*
X31992250Y-30216000D01*
X32151000Y-30057250D01*
X32151000Y-29083000D01*
X31051750Y-29083000D01*
X30893000Y-29241750D01*
X24187532Y-29241750D01*
X23150472Y-28204690D01*
X30893000Y-28204690D01*
X30893000Y-28670250D01*
X31051750Y-28829000D01*
X32151000Y-28829000D01*
X32151000Y-27854750D01*
X31992250Y-27696000D01*
X31401691Y-27696000D01*
X31168302Y-27792673D01*
X30989673Y-27971301D01*
X30893000Y-28204690D01*
X23150472Y-28204690D01*
X21676100Y-26730318D01*
X21676100Y-25007570D01*
X21631822Y-24772253D01*
X21492750Y-24556129D01*
X21280550Y-24411139D01*
X21028660Y-24360130D01*
X18529300Y-24360130D01*
X18293983Y-24404408D01*
X18077859Y-24543480D01*
X17932869Y-24755680D01*
X17881860Y-25007570D01*
X17881860Y-26808430D01*
X17926138Y-27043747D01*
X18065210Y-27259871D01*
X18277410Y-27404861D01*
X18529300Y-27455870D01*
X20252048Y-27455870D01*
X27262891Y-34466713D01*
X27224560Y-34656000D01*
X27224560Y-35956000D01*
X27268838Y-36191317D01*
X27407910Y-36407441D01*
X27620110Y-36552431D01*
X27872000Y-36603440D01*
X29212000Y-36603440D01*
X29212000Y-39309198D01*
X28164599Y-40356599D01*
X27999852Y-40603161D01*
X27942000Y-40894000D01*
X27942000Y-47752000D01*
X27999852Y-48042839D01*
X28164599Y-48289401D01*
X32594000Y-52718803D01*
X32594000Y-57124442D01*
X32368683Y-57166838D01*
X32152559Y-57305910D01*
X32007569Y-57518110D01*
X32004919Y-57531197D01*
X31868090Y-57318559D01*
X31655890Y-57173569D01*
X31404000Y-57122560D01*
X29904000Y-57122560D01*
X29668683Y-57166838D01*
X29452559Y-57305910D01*
X29307569Y-57518110D01*
X29278836Y-57660000D01*
X20830258Y-57660000D01*
X21127271Y-57215489D01*
X21241345Y-56642000D01*
X21127271Y-56068511D01*
X20802415Y-55582330D01*
X20487634Y-55372000D01*
X20802415Y-55161670D01*
X21127271Y-54675489D01*
X21241345Y-54102000D01*
X21127271Y-53528511D01*
X20802415Y-53042330D01*
X20316234Y-52717474D01*
X19742745Y-52603400D01*
X19373255Y-52603400D01*
X18799766Y-52717474D01*
X18313585Y-53042330D01*
X17988729Y-53528511D01*
X17874655Y-54102000D01*
X13918000Y-54102000D01*
X13918000Y-42361100D01*
X15204916Y-42361100D01*
X15291313Y-42795446D01*
X15537350Y-43163666D01*
X15905570Y-43409703D01*
X16339916Y-43496100D01*
X16945164Y-43496100D01*
X17379510Y-43409703D01*
X17747730Y-43163666D01*
X17993767Y-42795446D01*
X18080164Y-42361100D01*
X17993767Y-41926754D01*
X17747730Y-41558534D01*
X17379510Y-41312497D01*
X16945164Y-41226100D01*
X16339916Y-41226100D01*
X15905570Y-41312497D01*
X15537350Y-41558534D01*
X15291313Y-41926754D01*
X15204916Y-42361100D01*
X13918000Y-42361100D01*
X13918000Y-37361100D01*
X18020100Y-37361100D01*
X18020100Y-37761100D01*
X18044484Y-37890689D01*
X18020100Y-38011100D01*
X18020100Y-38411100D01*
X18044484Y-38540689D01*
X18020100Y-38661100D01*
X18020100Y-39061100D01*
X18039990Y-39166805D01*
X18032540Y-39184790D01*
X18032540Y-39252350D01*
X18061544Y-39281354D01*
X18064378Y-39296417D01*
X18203450Y-39512541D01*
X18204839Y-39513490D01*
X18071109Y-39709210D01*
X18065505Y-39736885D01*
X18032540Y-39769850D01*
X18032540Y-39837410D01*
X18041008Y-39857853D01*
X18020100Y-39961100D01*
X18020100Y-40361100D01*
X18064378Y-40596417D01*
X18203450Y-40812541D01*
X18294530Y-40874773D01*
X18232540Y-41186415D01*
X18232540Y-41535785D01*
X18317034Y-41960564D01*
X18557651Y-42320674D01*
X18917761Y-42561291D01*
X19342540Y-42645785D01*
X19767319Y-42561291D01*
X20127429Y-42320674D01*
X20368046Y-41960564D01*
X20452540Y-41535785D01*
X20452540Y-41186415D01*
X20390707Y-40875558D01*
X20468981Y-40825190D01*
X20613971Y-40612990D01*
X20664980Y-40361100D01*
X20664980Y-39961100D01*
X20645090Y-39855395D01*
X20652540Y-39837410D01*
X20652540Y-39769850D01*
X20623536Y-39740846D01*
X20620702Y-39725783D01*
X20481630Y-39509659D01*
X20480241Y-39508710D01*
X20613971Y-39312990D01*
X20619575Y-39285315D01*
X20652540Y-39252350D01*
X20652540Y-39184790D01*
X20644072Y-39164347D01*
X20664980Y-39061100D01*
X20664980Y-38661100D01*
X20640596Y-38531511D01*
X20664980Y-38411100D01*
X20664980Y-38321100D01*
X25060691Y-38321100D01*
X25123673Y-38384192D01*
X25467201Y-38526838D01*
X25839167Y-38527162D01*
X26182943Y-38385117D01*
X26446192Y-38122327D01*
X26588838Y-37778799D01*
X26589162Y-37406833D01*
X26447117Y-37063057D01*
X26184327Y-36799808D01*
X25840799Y-36657162D01*
X25468833Y-36656838D01*
X25125057Y-36798883D01*
X25122836Y-36801100D01*
X20399765Y-36801100D01*
X20452540Y-36535785D01*
X20452540Y-36186415D01*
X20368046Y-35761636D01*
X20127429Y-35401526D01*
X19767319Y-35160909D01*
X19342540Y-35076415D01*
X18917761Y-35160909D01*
X18557651Y-35401526D01*
X18317034Y-35761636D01*
X18232540Y-36186415D01*
X18232540Y-36535785D01*
X18294373Y-36846642D01*
X18216099Y-36897010D01*
X18071109Y-37109210D01*
X18020100Y-37361100D01*
X13918000Y-37361100D01*
X13918000Y-35361100D01*
X15204916Y-35361100D01*
X15291313Y-35795446D01*
X15537350Y-36163666D01*
X15905570Y-36409703D01*
X16339916Y-36496100D01*
X16945164Y-36496100D01*
X17379510Y-36409703D01*
X17747730Y-36163666D01*
X17993767Y-35795446D01*
X18080164Y-35361100D01*
X17993767Y-34926754D01*
X17747730Y-34558534D01*
X17379510Y-34312497D01*
X16945164Y-34226100D01*
X16339916Y-34226100D01*
X15905570Y-34312497D01*
X15537350Y-34558534D01*
X15291313Y-34926754D01*
X15204916Y-35361100D01*
X13918000Y-35361100D01*
X13918000Y-26987032D01*
X13993013Y-27168129D01*
X14171642Y-27346757D01*
X14405031Y-27443430D01*
X15495270Y-27443430D01*
X15654020Y-27284680D01*
X15654020Y-26035000D01*
X15908020Y-26035000D01*
X15908020Y-27284680D01*
X16066770Y-27443430D01*
X17157009Y-27443430D01*
X17390398Y-27346757D01*
X17569027Y-27168129D01*
X17665700Y-26934740D01*
X17665700Y-26193750D01*
X17506950Y-26035000D01*
X15908020Y-26035000D01*
X15654020Y-26035000D01*
X15634020Y-26035000D01*
X15634020Y-25781000D01*
X15654020Y-25781000D01*
X15654020Y-24531320D01*
X15908020Y-24531320D01*
X15908020Y-25781000D01*
X17506950Y-25781000D01*
X17665700Y-25622250D01*
X17665700Y-24881260D01*
X17569027Y-24647871D01*
X17390398Y-24469243D01*
X17157009Y-24372570D01*
X16066770Y-24372570D01*
X15908020Y-24531320D01*
X15654020Y-24531320D01*
X15495270Y-24372570D01*
X14405031Y-24372570D01*
X14171642Y-24469243D01*
X13993013Y-24647871D01*
X13918000Y-24828968D01*
X13918000Y-20129032D01*
X13993013Y-20310129D01*
X14171642Y-20488757D01*
X14405031Y-20585430D01*
X15495270Y-20585430D01*
X15654020Y-20426680D01*
X15654020Y-19177000D01*
X15908020Y-19177000D01*
X15908020Y-20426680D01*
X16066770Y-20585430D01*
X17157009Y-20585430D01*
X17390398Y-20488757D01*
X17569027Y-20310129D01*
X17665700Y-20076740D01*
X17665700Y-19335750D01*
X17506950Y-19177000D01*
X15908020Y-19177000D01*
X15654020Y-19177000D01*
X15634020Y-19177000D01*
X15634020Y-18923000D01*
X15654020Y-18923000D01*
X15654020Y-17673320D01*
X15908020Y-17673320D01*
X15908020Y-18923000D01*
X17506950Y-18923000D01*
X17665700Y-18764250D01*
X17665700Y-18023260D01*
X17569027Y-17789871D01*
X17390398Y-17611243D01*
X17157009Y-17514570D01*
X16066770Y-17514570D01*
X15908020Y-17673320D01*
X15654020Y-17673320D01*
X15495270Y-17514570D01*
X14405031Y-17514570D01*
X14171642Y-17611243D01*
X13993013Y-17789871D01*
X13918000Y-17970968D01*
X13918000Y-13918000D01*
X55795786Y-13918000D01*
X55626354Y-14326037D01*
X55626354Y-14326037D01*
G37*
X55626354Y-14326037D02*
X55625648Y-15134416D01*
X55934350Y-15881532D01*
X56505462Y-16453641D01*
X57252037Y-16763646D01*
X58060416Y-16764352D01*
X58807532Y-16455650D01*
X59379641Y-15884538D01*
X59689646Y-15137963D01*
X59690352Y-14329584D01*
X59520289Y-13918000D01*
X61520000Y-13918000D01*
X61520000Y-81078000D01*
X13918000Y-81078000D01*
X13918000Y-64262000D01*
X17874655Y-64262000D01*
X17988729Y-64835489D01*
X18313585Y-65321670D01*
X18628366Y-65532000D01*
X18313585Y-65742330D01*
X17988729Y-66228511D01*
X17874655Y-66802000D01*
X17988729Y-67375489D01*
X18313585Y-67861670D01*
X18628366Y-68072000D01*
X18313585Y-68282330D01*
X17988729Y-68768511D01*
X17874655Y-69342000D01*
X17988729Y-69915489D01*
X18313585Y-70401670D01*
X18628366Y-70612000D01*
X18313585Y-70822330D01*
X17988729Y-71308511D01*
X17874655Y-71882000D01*
X17988729Y-72455489D01*
X18313585Y-72941670D01*
X18628366Y-73152000D01*
X18313585Y-73362330D01*
X17988729Y-73848511D01*
X17874655Y-74422000D01*
X17988729Y-74995489D01*
X18313585Y-75481670D01*
X18628366Y-75692000D01*
X18313585Y-75902330D01*
X17988729Y-76388511D01*
X17874655Y-76962000D01*
X17988729Y-77535489D01*
X18313585Y-78021670D01*
X18327913Y-78031243D01*
X18306683Y-78035238D01*
X18090559Y-78174310D01*
X17945569Y-78386510D01*
X17894560Y-78638400D01*
X17894560Y-80365600D01*
X17938838Y-80600917D01*
X18077910Y-80817041D01*
X18290110Y-80962031D01*
X18542000Y-81013040D01*
X20574000Y-81013040D01*
X20809317Y-80968762D01*
X21025441Y-80829690D01*
X21170431Y-80617490D01*
X21221440Y-80365600D01*
X21221440Y-78638400D01*
X21177162Y-78403083D01*
X21038090Y-78186959D01*
X20825890Y-78041969D01*
X20784561Y-78033600D01*
X20802415Y-78021670D01*
X21127271Y-77535489D01*
X21241345Y-76962000D01*
X21127271Y-76388511D01*
X20802415Y-75902330D01*
X20487634Y-75692000D01*
X20802415Y-75481670D01*
X21127271Y-74995489D01*
X21241345Y-74422000D01*
X21127271Y-73848511D01*
X20802415Y-73362330D01*
X20487634Y-73152000D01*
X20802415Y-72941670D01*
X21002648Y-72642000D01*
X24069198Y-72642000D01*
X24210878Y-72783680D01*
X24210838Y-72829167D01*
X24352883Y-73172943D01*
X24615673Y-73436192D01*
X24959201Y-73578838D01*
X25331167Y-73579162D01*
X25674943Y-73437117D01*
X25938192Y-73174327D01*
X26080838Y-72830799D01*
X26081162Y-72458833D01*
X25939117Y-72115057D01*
X25676327Y-71851808D01*
X25332799Y-71709162D01*
X25285923Y-71709121D01*
X24921401Y-71344599D01*
X24674839Y-71179852D01*
X24384000Y-71122000D01*
X21002648Y-71122000D01*
X20802415Y-70822330D01*
X20487634Y-70612000D01*
X20802415Y-70401670D01*
X21127271Y-69915489D01*
X21241345Y-69342000D01*
X21127271Y-68768511D01*
X20802415Y-68282330D01*
X20487634Y-68072000D01*
X20802415Y-67861670D01*
X21127271Y-67375489D01*
X21241345Y-66802000D01*
X21127271Y-66228511D01*
X20802415Y-65742330D01*
X20487634Y-65532000D01*
X20802415Y-65321670D01*
X21127271Y-64835489D01*
X21241345Y-64262000D01*
X21127271Y-63688511D01*
X20802415Y-63202330D01*
X20492931Y-62995539D01*
X20908732Y-62624036D01*
X21162709Y-62096791D01*
X21165358Y-62081026D01*
X21044217Y-61849000D01*
X19685000Y-61849000D01*
X19685000Y-61869000D01*
X19431000Y-61869000D01*
X19431000Y-61849000D01*
X18071783Y-61849000D01*
X17950642Y-62081026D01*
X17953291Y-62096791D01*
X18207268Y-62624036D01*
X18623069Y-62995539D01*
X18313585Y-63202330D01*
X17988729Y-63688511D01*
X17874655Y-64262000D01*
X13918000Y-64262000D01*
X13918000Y-54102000D01*
X17874655Y-54102000D01*
X17988729Y-54675489D01*
X18313585Y-55161670D01*
X18628366Y-55372000D01*
X18313585Y-55582330D01*
X17988729Y-56068511D01*
X17874655Y-56642000D01*
X17988729Y-57215489D01*
X18313585Y-57701670D01*
X18628366Y-57912000D01*
X18313585Y-58122330D01*
X17988729Y-58608511D01*
X17874655Y-59182000D01*
X17988729Y-59755489D01*
X18313585Y-60241670D01*
X18623069Y-60448461D01*
X18207268Y-60819964D01*
X17953291Y-61347209D01*
X17950642Y-61362974D01*
X18071783Y-61595000D01*
X19431000Y-61595000D01*
X19431000Y-61575000D01*
X19685000Y-61575000D01*
X19685000Y-61595000D01*
X21044217Y-61595000D01*
X21165358Y-61362974D01*
X21162709Y-61347209D01*
X20908732Y-60819964D01*
X20492931Y-60448461D01*
X20802415Y-60241670D01*
X21127271Y-59755489D01*
X21241345Y-59182000D01*
X21240947Y-59180000D01*
X29277258Y-59180000D01*
X29300838Y-59305317D01*
X29439910Y-59521441D01*
X29652110Y-59666431D01*
X29904000Y-59717440D01*
X31404000Y-59717440D01*
X31639317Y-59673162D01*
X31855441Y-59534090D01*
X32000431Y-59321890D01*
X32003081Y-59308803D01*
X32139910Y-59521441D01*
X32352110Y-59666431D01*
X32594000Y-59715415D01*
X32594000Y-60532000D01*
X32651852Y-60822839D01*
X32816599Y-61069401D01*
X32846878Y-61099680D01*
X32846838Y-61145167D01*
X32988883Y-61488943D01*
X33251673Y-61752192D01*
X33595201Y-61894838D01*
X33804178Y-61895020D01*
X31972638Y-63726560D01*
X30666000Y-63726560D01*
X30430683Y-63770838D01*
X30214559Y-63909910D01*
X30069569Y-64122110D01*
X30018560Y-64374000D01*
X30018560Y-65674000D01*
X30062838Y-65909317D01*
X30201910Y-66125441D01*
X30414110Y-66270431D01*
X30666000Y-66321440D01*
X30768000Y-66321440D01*
X30768000Y-69596721D01*
X30576559Y-69719910D01*
X30431569Y-69932110D01*
X30380560Y-70184000D01*
X30380560Y-73384000D01*
X30424838Y-73619317D01*
X30563910Y-73835441D01*
X30768000Y-73974890D01*
X30768000Y-76396721D01*
X30576559Y-76519910D01*
X30431569Y-76732110D01*
X30380560Y-76984000D01*
X30380560Y-80184000D01*
X30424838Y-80419317D01*
X30563910Y-80635441D01*
X30776110Y-80780431D01*
X31028000Y-80831440D01*
X32028000Y-80831440D01*
X32263317Y-80787162D01*
X32479441Y-80648090D01*
X32624431Y-80435890D01*
X32675440Y-80184000D01*
X32675440Y-78869750D01*
X34393000Y-78869750D01*
X34393000Y-80310309D01*
X34489673Y-80543698D01*
X34668301Y-80722327D01*
X34901690Y-80819000D01*
X35242250Y-80819000D01*
X35401000Y-80660250D01*
X35401000Y-78711000D01*
X35655000Y-78711000D01*
X35655000Y-80660250D01*
X35813750Y-80819000D01*
X36154310Y-80819000D01*
X36387699Y-80722327D01*
X36566327Y-80543698D01*
X36663000Y-80310309D01*
X36663000Y-78869750D01*
X36504250Y-78711000D01*
X35655000Y-78711000D01*
X35401000Y-78711000D01*
X34551750Y-78711000D01*
X34393000Y-78869750D01*
X32675440Y-78869750D01*
X32675440Y-76984000D01*
X32651674Y-76857691D01*
X34393000Y-76857691D01*
X34393000Y-78298250D01*
X34551750Y-78457000D01*
X35401000Y-78457000D01*
X35401000Y-76507750D01*
X35655000Y-76507750D01*
X35655000Y-78457000D01*
X36504250Y-78457000D01*
X36663000Y-78298250D01*
X36663000Y-76857691D01*
X36566327Y-76624302D01*
X36387699Y-76445673D01*
X36154310Y-76349000D01*
X35813750Y-76349000D01*
X35655000Y-76507750D01*
X35401000Y-76507750D01*
X35242250Y-76349000D01*
X34901690Y-76349000D01*
X34668301Y-76445673D01*
X34489673Y-76624302D01*
X34393000Y-76857691D01*
X32651674Y-76857691D01*
X32631162Y-76748683D01*
X32492090Y-76532559D01*
X32288000Y-76393110D01*
X32288000Y-73971279D01*
X32479441Y-73848090D01*
X32624431Y-73635890D01*
X32675440Y-73384000D01*
X32675440Y-72069750D01*
X34393000Y-72069750D01*
X34393000Y-73510309D01*
X34489673Y-73743698D01*
X34668301Y-73922327D01*
X34901690Y-74019000D01*
X35242250Y-74019000D01*
X35401000Y-73860250D01*
X35401000Y-71911000D01*
X35655000Y-71911000D01*
X35655000Y-73860250D01*
X35813750Y-74019000D01*
X36154310Y-74019000D01*
X36387699Y-73922327D01*
X36566327Y-73743698D01*
X36663000Y-73510309D01*
X36663000Y-72069750D01*
X36504250Y-71911000D01*
X35655000Y-71911000D01*
X35401000Y-71911000D01*
X34551750Y-71911000D01*
X34393000Y-72069750D01*
X32675440Y-72069750D01*
X32675440Y-70184000D01*
X32651674Y-70057691D01*
X34393000Y-70057691D01*
X34393000Y-71498250D01*
X34551750Y-71657000D01*
X35401000Y-71657000D01*
X35401000Y-69707750D01*
X35655000Y-69707750D01*
X35655000Y-71657000D01*
X36504250Y-71657000D01*
X36663000Y-71498250D01*
X36663000Y-70057691D01*
X36566327Y-69824302D01*
X36387699Y-69645673D01*
X36154310Y-69549000D01*
X35813750Y-69549000D01*
X35655000Y-69707750D01*
X35401000Y-69707750D01*
X35242250Y-69549000D01*
X34901690Y-69549000D01*
X34668301Y-69645673D01*
X34489673Y-69824302D01*
X34393000Y-70057691D01*
X32651674Y-70057691D01*
X32631162Y-69948683D01*
X32492090Y-69732559D01*
X32288000Y-69593110D01*
X32288000Y-66298484D01*
X32401317Y-66277162D01*
X32617441Y-66138090D01*
X32762431Y-65925890D01*
X32765081Y-65912803D01*
X32901910Y-66125441D01*
X33114110Y-66270431D01*
X33366000Y-66321440D01*
X33396069Y-66321440D01*
X33413852Y-66410839D01*
X33578599Y-66657401D01*
X34878878Y-67957680D01*
X34878838Y-68003167D01*
X35020883Y-68346943D01*
X35283673Y-68610192D01*
X35627201Y-68752838D01*
X35999167Y-68753162D01*
X36342943Y-68611117D01*
X36606192Y-68348327D01*
X36748838Y-68004799D01*
X36749162Y-67632833D01*
X36607117Y-67289057D01*
X36344327Y-67025808D01*
X36000799Y-66883162D01*
X35953923Y-66883121D01*
X35251393Y-66180591D01*
X35317441Y-66138090D01*
X35462431Y-65925890D01*
X35513440Y-65674000D01*
X35513440Y-65544242D01*
X40134000Y-70164802D01*
X40134000Y-78304469D01*
X40103697Y-78316990D01*
X39710371Y-78709630D01*
X39497243Y-79222900D01*
X39496758Y-79778661D01*
X39708990Y-80292303D01*
X40101630Y-80685629D01*
X40614900Y-80898757D01*
X41170661Y-80899242D01*
X41684303Y-80687010D01*
X41889457Y-80482213D01*
X42633392Y-80482213D01*
X42702857Y-80724397D01*
X43226302Y-80911144D01*
X43781368Y-80883362D01*
X44165143Y-80724397D01*
X44234608Y-80482213D01*
X43434000Y-79681605D01*
X42633392Y-80482213D01*
X41889457Y-80482213D01*
X42077629Y-80294370D01*
X42157395Y-80102273D01*
X42211603Y-80233143D01*
X42453787Y-80302608D01*
X43254395Y-79502000D01*
X42453787Y-78701392D01*
X42211603Y-78770857D01*
X42161491Y-78911318D01*
X42079010Y-78711697D01*
X41889432Y-78521787D01*
X42633392Y-78521787D01*
X43434000Y-79322395D01*
X44234608Y-78521787D01*
X44165143Y-78279603D01*
X43641698Y-78092856D01*
X43086632Y-78120638D01*
X42702857Y-78279603D01*
X42633392Y-78521787D01*
X41889432Y-78521787D01*
X41686370Y-78318371D01*
X41654000Y-78304930D01*
X41654000Y-69850000D01*
X41605035Y-69603837D01*
X45214000Y-73212802D01*
X45214000Y-78304469D01*
X45183697Y-78316990D01*
X44790371Y-78709630D01*
X44710605Y-78901727D01*
X44656397Y-78770857D01*
X44414213Y-78701392D01*
X43613605Y-79502000D01*
X44414213Y-80302608D01*
X44656397Y-80233143D01*
X44706509Y-80092682D01*
X44788990Y-80292303D01*
X45181630Y-80685629D01*
X45694900Y-80898757D01*
X46250661Y-80899242D01*
X46764303Y-80687010D01*
X47157629Y-80294370D01*
X47370757Y-79781100D01*
X47371242Y-79225339D01*
X47159010Y-78711697D01*
X46766370Y-78318371D01*
X46734000Y-78304930D01*
X46734000Y-74527026D01*
X50869042Y-74527026D01*
X51041312Y-74942947D01*
X51435510Y-75374821D01*
X51964973Y-75622968D01*
X52197000Y-75502469D01*
X52197000Y-74295000D01*
X50990183Y-74295000D01*
X50869042Y-74527026D01*
X46734000Y-74527026D01*
X46734000Y-72898000D01*
X46676148Y-72607161D01*
X46511401Y-72360599D01*
X38126457Y-63975655D01*
X39497000Y-63975655D01*
X39497000Y-64548345D01*
X39603340Y-65082954D01*
X39906172Y-65536173D01*
X40359391Y-65839005D01*
X40894000Y-65945345D01*
X41428609Y-65839005D01*
X41881828Y-65536173D01*
X42184660Y-65082954D01*
X42291000Y-64548345D01*
X42291000Y-64389000D01*
X44577000Y-64389000D01*
X44577000Y-64643000D01*
X44731941Y-65167941D01*
X45075974Y-65593630D01*
X45556723Y-65855260D01*
X45630930Y-65870220D01*
X45847000Y-65747720D01*
X45847000Y-64389000D01*
X46101000Y-64389000D01*
X46101000Y-65747720D01*
X46317070Y-65870220D01*
X46391277Y-65855260D01*
X46872026Y-65593630D01*
X47216059Y-65167941D01*
X47371000Y-64643000D01*
X47371000Y-64389000D01*
X46101000Y-64389000D01*
X45847000Y-64389000D01*
X44577000Y-64389000D01*
X42291000Y-64389000D01*
X42291000Y-63975655D01*
X42272173Y-63881000D01*
X44577000Y-63881000D01*
X44577000Y-64135000D01*
X45847000Y-64135000D01*
X45847000Y-62776280D01*
X46101000Y-62776280D01*
X46101000Y-64135000D01*
X47371000Y-64135000D01*
X47371000Y-63881000D01*
X47216059Y-63356059D01*
X46872026Y-62930370D01*
X46391277Y-62668740D01*
X46317070Y-62653780D01*
X46101000Y-62776280D01*
X45847000Y-62776280D01*
X45630930Y-62653780D01*
X45556723Y-62668740D01*
X45075974Y-62930370D01*
X44731941Y-63356059D01*
X44577000Y-63881000D01*
X42272173Y-63881000D01*
X42184660Y-63441046D01*
X41881828Y-62987827D01*
X41428609Y-62684995D01*
X40894000Y-62578655D01*
X40359391Y-62684995D01*
X39906172Y-62987827D01*
X39603340Y-63441046D01*
X39497000Y-63975655D01*
X38126457Y-63975655D01*
X37590000Y-63439198D01*
X37590000Y-58730802D01*
X38070599Y-59211401D01*
X38317161Y-59376148D01*
X38608000Y-59434000D01*
X44897198Y-59434000D01*
X51564000Y-66100802D01*
X51564000Y-67808480D01*
X51234971Y-68028330D01*
X50910115Y-68514511D01*
X50796041Y-69088000D01*
X50910115Y-69661489D01*
X51234971Y-70147670D01*
X51549752Y-70358000D01*
X51234971Y-70568330D01*
X50910115Y-71054511D01*
X50796041Y-71628000D01*
X50910115Y-72201489D01*
X51234971Y-72687670D01*
X51558228Y-72903664D01*
X51435510Y-72961179D01*
X51041312Y-73393053D01*
X50869042Y-73808974D01*
X50990183Y-74041000D01*
X52197000Y-74041000D01*
X52197000Y-74021000D01*
X52451000Y-74021000D01*
X52451000Y-74041000D01*
X52471000Y-74041000D01*
X52471000Y-74295000D01*
X52451000Y-74295000D01*
X52451000Y-75502469D01*
X52683027Y-75622968D01*
X53212490Y-75374821D01*
X53594008Y-74956839D01*
X53774971Y-75227670D01*
X54261152Y-75552526D01*
X54834641Y-75666600D01*
X54893359Y-75666600D01*
X55466848Y-75552526D01*
X55953029Y-75227670D01*
X56277885Y-74741489D01*
X56391959Y-74168000D01*
X56277885Y-73594511D01*
X55953029Y-73108330D01*
X55638248Y-72898000D01*
X55953029Y-72687670D01*
X56277885Y-72201489D01*
X56391959Y-71628000D01*
X56277885Y-71054511D01*
X55953029Y-70568330D01*
X55939358Y-70559195D01*
X55962917Y-70554762D01*
X56179041Y-70415690D01*
X56324031Y-70203490D01*
X56375040Y-69951600D01*
X56375040Y-68224400D01*
X56330762Y-67989083D01*
X56191690Y-67772959D01*
X55979490Y-67627969D01*
X55727600Y-67576960D01*
X55624000Y-67576960D01*
X55624000Y-66802000D01*
X55566148Y-66511161D01*
X55401401Y-66264599D01*
X48477552Y-59340750D01*
X55549800Y-59340750D01*
X55549800Y-60044910D01*
X55646473Y-60278299D01*
X55825102Y-60456927D01*
X56058491Y-60553600D01*
X56915050Y-60553600D01*
X57073800Y-60394850D01*
X57073800Y-59182000D01*
X57327800Y-59182000D01*
X57327800Y-60394850D01*
X57486550Y-60553600D01*
X58343109Y-60553600D01*
X58576498Y-60456927D01*
X58755127Y-60278299D01*
X58851800Y-60044910D01*
X58851800Y-59340750D01*
X58693050Y-59182000D01*
X57327800Y-59182000D01*
X57073800Y-59182000D01*
X55708550Y-59182000D01*
X55549800Y-59340750D01*
X48477552Y-59340750D01*
X46411802Y-57275000D01*
X55756152Y-57275000D01*
X55956385Y-57574670D01*
X55978580Y-57589500D01*
X55825102Y-57653073D01*
X55646473Y-57831701D01*
X55549800Y-58065090D01*
X55549800Y-58769250D01*
X55708550Y-58928000D01*
X57073800Y-58928000D01*
X57073800Y-58908000D01*
X57327800Y-58908000D01*
X57327800Y-58928000D01*
X58693050Y-58928000D01*
X58851800Y-58769250D01*
X58851800Y-58065090D01*
X58755127Y-57831701D01*
X58576498Y-57653073D01*
X58423020Y-57589500D01*
X58445215Y-57574670D01*
X58770071Y-57088489D01*
X58884145Y-56515000D01*
X58770071Y-55941511D01*
X58445215Y-55455330D01*
X58130434Y-55245000D01*
X58445215Y-55034670D01*
X58770071Y-54548489D01*
X58884145Y-53975000D01*
X58770071Y-53401511D01*
X58445215Y-52915330D01*
X58130434Y-52705000D01*
X58445215Y-52494670D01*
X58770071Y-52008489D01*
X58884145Y-51435000D01*
X58770071Y-50861511D01*
X58445215Y-50375330D01*
X58130434Y-50165000D01*
X58445215Y-49954670D01*
X58770071Y-49468489D01*
X58884145Y-48895000D01*
X58770071Y-48321511D01*
X58445215Y-47835330D01*
X58130434Y-47625000D01*
X58445215Y-47414670D01*
X58770071Y-46928489D01*
X58884145Y-46355000D01*
X58770071Y-45781511D01*
X58445215Y-45295330D01*
X58130434Y-45085000D01*
X58445215Y-44874670D01*
X58770071Y-44388489D01*
X58884145Y-43815000D01*
X58770071Y-43241511D01*
X58445215Y-42755330D01*
X58130434Y-42545000D01*
X58445215Y-42334670D01*
X58770071Y-41848489D01*
X58884145Y-41275000D01*
X58770071Y-40701511D01*
X58445215Y-40215330D01*
X58130434Y-40005000D01*
X58445215Y-39794670D01*
X58770071Y-39308489D01*
X58884145Y-38735000D01*
X58770071Y-38161511D01*
X58445215Y-37675330D01*
X58130434Y-37465000D01*
X58445215Y-37254670D01*
X58770071Y-36768489D01*
X58884145Y-36195000D01*
X58770071Y-35621511D01*
X58445215Y-35135330D01*
X58130434Y-34925000D01*
X58445215Y-34714670D01*
X58770071Y-34228489D01*
X58884145Y-33655000D01*
X58770071Y-33081511D01*
X58445215Y-32595330D01*
X58130434Y-32385000D01*
X58445215Y-32174670D01*
X58770071Y-31688489D01*
X58884145Y-31115000D01*
X58770071Y-30541511D01*
X58445215Y-30055330D01*
X58130434Y-29845000D01*
X58445215Y-29634670D01*
X58770071Y-29148489D01*
X58884145Y-28575000D01*
X58770071Y-28001511D01*
X58445215Y-27515330D01*
X58130434Y-27305000D01*
X58445215Y-27094670D01*
X58770071Y-26608489D01*
X58884145Y-26035000D01*
X58770071Y-25461511D01*
X58445215Y-24975330D01*
X58130434Y-24765000D01*
X58445215Y-24554670D01*
X58770071Y-24068489D01*
X58884145Y-23495000D01*
X58770071Y-22921511D01*
X58445215Y-22435330D01*
X58130434Y-22225000D01*
X58445215Y-22014670D01*
X58770071Y-21528489D01*
X58884145Y-20955000D01*
X58770071Y-20381511D01*
X58445215Y-19895330D01*
X57959034Y-19570474D01*
X57385545Y-19456400D01*
X57016055Y-19456400D01*
X56442566Y-19570474D01*
X55956385Y-19895330D01*
X55631529Y-20381511D01*
X55517455Y-20955000D01*
X55631529Y-21528489D01*
X55956385Y-22014670D01*
X56271166Y-22225000D01*
X55956385Y-22435330D01*
X55631529Y-22921511D01*
X55517455Y-23495000D01*
X55631529Y-24068489D01*
X55956385Y-24554670D01*
X56271166Y-24765000D01*
X55956385Y-24975330D01*
X55631529Y-25461511D01*
X55517455Y-26035000D01*
X55631529Y-26608489D01*
X55956385Y-27094670D01*
X56271166Y-27305000D01*
X55956385Y-27515330D01*
X55631529Y-28001511D01*
X55517455Y-28575000D01*
X55631529Y-29148489D01*
X55956385Y-29634670D01*
X56271166Y-29845000D01*
X55956385Y-30055330D01*
X55631529Y-30541511D01*
X55517455Y-31115000D01*
X55631529Y-31688489D01*
X55956385Y-32174670D01*
X56271166Y-32385000D01*
X55956385Y-32595330D01*
X55756152Y-32895000D01*
X55559802Y-32895000D01*
X50575401Y-27910599D01*
X50328839Y-27745852D01*
X50038000Y-27688000D01*
X41910000Y-27688000D01*
X41619161Y-27745852D01*
X41372599Y-27910599D01*
X37824000Y-31459198D01*
X37824000Y-24892558D01*
X38049317Y-24850162D01*
X38265441Y-24711090D01*
X38410431Y-24498890D01*
X38461440Y-24247000D01*
X38461440Y-22997000D01*
X38417162Y-22761683D01*
X38278090Y-22545559D01*
X38065890Y-22400569D01*
X37824000Y-22351585D01*
X37824000Y-21570000D01*
X37766148Y-21279161D01*
X37766148Y-21279160D01*
X37601401Y-21032599D01*
X34827401Y-18258599D01*
X34580839Y-18093852D01*
X34290000Y-18036000D01*
X29142742Y-18036000D01*
X29119162Y-17910683D01*
X28980090Y-17694559D01*
X28767890Y-17549569D01*
X28516000Y-17498560D01*
X27016000Y-17498560D01*
X26780683Y-17542838D01*
X26564559Y-17681910D01*
X26419569Y-17894110D01*
X26416919Y-17907197D01*
X26280090Y-17694559D01*
X26067890Y-17549569D01*
X25816000Y-17498560D01*
X24316000Y-17498560D01*
X24080683Y-17542838D01*
X23864559Y-17681910D01*
X23719569Y-17894110D01*
X23690836Y-18036000D01*
X21654730Y-18036000D01*
X21631822Y-17914253D01*
X21492750Y-17698129D01*
X21280550Y-17553139D01*
X21028660Y-17502130D01*
X18529300Y-17502130D01*
X18293983Y-17546408D01*
X18077859Y-17685480D01*
X17932869Y-17897680D01*
X17881860Y-18149570D01*
X17881860Y-19950430D01*
X17926138Y-20185747D01*
X18065210Y-20401871D01*
X18277410Y-20546861D01*
X18529300Y-20597870D01*
X21028660Y-20597870D01*
X21263977Y-20553592D01*
X21480101Y-20414520D01*
X21625091Y-20202320D01*
X21676100Y-19950430D01*
X21676100Y-19556000D01*
X23689258Y-19556000D01*
X23712838Y-19681317D01*
X23851910Y-19897441D01*
X24064110Y-20042431D01*
X24316000Y-20093440D01*
X25816000Y-20093440D01*
X26051317Y-20049162D01*
X26267441Y-19910090D01*
X26412431Y-19697890D01*
X26415081Y-19684803D01*
X26551910Y-19897441D01*
X26764110Y-20042431D01*
X27006000Y-20091415D01*
X27006000Y-23194000D01*
X27063852Y-23484839D01*
X27228599Y-23731401D01*
X28528878Y-25031680D01*
X28528838Y-25077167D01*
X28670883Y-25420943D01*
X28933673Y-25684192D01*
X29277201Y-25826838D01*
X29649167Y-25827162D01*
X29992943Y-25685117D01*
X30026118Y-25652000D01*
X31943198Y-25652000D01*
X33983190Y-27691992D01*
X33792683Y-27727838D01*
X33576559Y-27866910D01*
X33530031Y-27935006D01*
X33387698Y-27792673D01*
X33154309Y-27696000D01*
X32563750Y-27696000D01*
X32405000Y-27854750D01*
X32405000Y-28829000D01*
X32425000Y-28829000D01*
X32425000Y-29083000D01*
X32405000Y-29083000D01*
X32405000Y-30057250D01*
X32563750Y-30216000D01*
X33154309Y-30216000D01*
X33387698Y-30119327D01*
X33528936Y-29978090D01*
X33563910Y-30032441D01*
X33776110Y-30177431D01*
X34018000Y-30226415D01*
X34018000Y-33959198D01*
X32795401Y-32736599D01*
X32548839Y-32571852D01*
X32258000Y-32514000D01*
X30480000Y-32514000D01*
X30189161Y-32571852D01*
X30154024Y-32595330D01*
X29942599Y-32736599D01*
X29434599Y-33244599D01*
X29269852Y-33491161D01*
X29212000Y-33782000D01*
X29212000Y-34008560D01*
X28954342Y-34008560D01*
X24187532Y-29241750D01*
X30893000Y-29241750D01*
X30893000Y-29707310D01*
X30989673Y-29940699D01*
X31168302Y-30119327D01*
X31401691Y-30216000D01*
X31992250Y-30216000D01*
X32151000Y-30057250D01*
X32151000Y-29083000D01*
X31051750Y-29083000D01*
X30893000Y-29241750D01*
X24187532Y-29241750D01*
X23150472Y-28204690D01*
X30893000Y-28204690D01*
X30893000Y-28670250D01*
X31051750Y-28829000D01*
X32151000Y-28829000D01*
X32151000Y-27854750D01*
X31992250Y-27696000D01*
X31401691Y-27696000D01*
X31168302Y-27792673D01*
X30989673Y-27971301D01*
X30893000Y-28204690D01*
X23150472Y-28204690D01*
X21676100Y-26730318D01*
X21676100Y-25007570D01*
X21631822Y-24772253D01*
X21492750Y-24556129D01*
X21280550Y-24411139D01*
X21028660Y-24360130D01*
X18529300Y-24360130D01*
X18293983Y-24404408D01*
X18077859Y-24543480D01*
X17932869Y-24755680D01*
X17881860Y-25007570D01*
X17881860Y-26808430D01*
X17926138Y-27043747D01*
X18065210Y-27259871D01*
X18277410Y-27404861D01*
X18529300Y-27455870D01*
X20252048Y-27455870D01*
X27262891Y-34466713D01*
X27224560Y-34656000D01*
X27224560Y-35956000D01*
X27268838Y-36191317D01*
X27407910Y-36407441D01*
X27620110Y-36552431D01*
X27872000Y-36603440D01*
X29212000Y-36603440D01*
X29212000Y-39309198D01*
X28164599Y-40356599D01*
X27999852Y-40603161D01*
X27942000Y-40894000D01*
X27942000Y-47752000D01*
X27999852Y-48042839D01*
X28164599Y-48289401D01*
X32594000Y-52718803D01*
X32594000Y-57124442D01*
X32368683Y-57166838D01*
X32152559Y-57305910D01*
X32007569Y-57518110D01*
X32004919Y-57531197D01*
X31868090Y-57318559D01*
X31655890Y-57173569D01*
X31404000Y-57122560D01*
X29904000Y-57122560D01*
X29668683Y-57166838D01*
X29452559Y-57305910D01*
X29307569Y-57518110D01*
X29278836Y-57660000D01*
X20830258Y-57660000D01*
X21127271Y-57215489D01*
X21241345Y-56642000D01*
X21127271Y-56068511D01*
X20802415Y-55582330D01*
X20487634Y-55372000D01*
X20802415Y-55161670D01*
X21127271Y-54675489D01*
X21241345Y-54102000D01*
X21127271Y-53528511D01*
X20802415Y-53042330D01*
X20316234Y-52717474D01*
X19742745Y-52603400D01*
X19373255Y-52603400D01*
X18799766Y-52717474D01*
X18313585Y-53042330D01*
X17988729Y-53528511D01*
X17874655Y-54102000D01*
X13918000Y-54102000D01*
X13918000Y-42361100D01*
X15204916Y-42361100D01*
X15291313Y-42795446D01*
X15537350Y-43163666D01*
X15905570Y-43409703D01*
X16339916Y-43496100D01*
X16945164Y-43496100D01*
X17379510Y-43409703D01*
X17747730Y-43163666D01*
X17993767Y-42795446D01*
X18080164Y-42361100D01*
X17993767Y-41926754D01*
X17747730Y-41558534D01*
X17379510Y-41312497D01*
X16945164Y-41226100D01*
X16339916Y-41226100D01*
X15905570Y-41312497D01*
X15537350Y-41558534D01*
X15291313Y-41926754D01*
X15204916Y-42361100D01*
X13918000Y-42361100D01*
X13918000Y-37361100D01*
X18020100Y-37361100D01*
X18020100Y-37761100D01*
X18044484Y-37890689D01*
X18020100Y-38011100D01*
X18020100Y-38411100D01*
X18044484Y-38540689D01*
X18020100Y-38661100D01*
X18020100Y-39061100D01*
X18039990Y-39166805D01*
X18032540Y-39184790D01*
X18032540Y-39252350D01*
X18061544Y-39281354D01*
X18064378Y-39296417D01*
X18203450Y-39512541D01*
X18204839Y-39513490D01*
X18071109Y-39709210D01*
X18065505Y-39736885D01*
X18032540Y-39769850D01*
X18032540Y-39837410D01*
X18041008Y-39857853D01*
X18020100Y-39961100D01*
X18020100Y-40361100D01*
X18064378Y-40596417D01*
X18203450Y-40812541D01*
X18294530Y-40874773D01*
X18232540Y-41186415D01*
X18232540Y-41535785D01*
X18317034Y-41960564D01*
X18557651Y-42320674D01*
X18917761Y-42561291D01*
X19342540Y-42645785D01*
X19767319Y-42561291D01*
X20127429Y-42320674D01*
X20368046Y-41960564D01*
X20452540Y-41535785D01*
X20452540Y-41186415D01*
X20390707Y-40875558D01*
X20468981Y-40825190D01*
X20613971Y-40612990D01*
X20664980Y-40361100D01*
X20664980Y-39961100D01*
X20645090Y-39855395D01*
X20652540Y-39837410D01*
X20652540Y-39769850D01*
X20623536Y-39740846D01*
X20620702Y-39725783D01*
X20481630Y-39509659D01*
X20480241Y-39508710D01*
X20613971Y-39312990D01*
X20619575Y-39285315D01*
X20652540Y-39252350D01*
X20652540Y-39184790D01*
X20644072Y-39164347D01*
X20664980Y-39061100D01*
X20664980Y-38661100D01*
X20640596Y-38531511D01*
X20664980Y-38411100D01*
X20664980Y-38321100D01*
X25060691Y-38321100D01*
X25123673Y-38384192D01*
X25467201Y-38526838D01*
X25839167Y-38527162D01*
X26182943Y-38385117D01*
X26446192Y-38122327D01*
X26588838Y-37778799D01*
X26589162Y-37406833D01*
X26447117Y-37063057D01*
X26184327Y-36799808D01*
X25840799Y-36657162D01*
X25468833Y-36656838D01*
X25125057Y-36798883D01*
X25122836Y-36801100D01*
X20399765Y-36801100D01*
X20452540Y-36535785D01*
X20452540Y-36186415D01*
X20368046Y-35761636D01*
X20127429Y-35401526D01*
X19767319Y-35160909D01*
X19342540Y-35076415D01*
X18917761Y-35160909D01*
X18557651Y-35401526D01*
X18317034Y-35761636D01*
X18232540Y-36186415D01*
X18232540Y-36535785D01*
X18294373Y-36846642D01*
X18216099Y-36897010D01*
X18071109Y-37109210D01*
X18020100Y-37361100D01*
X13918000Y-37361100D01*
X13918000Y-35361100D01*
X15204916Y-35361100D01*
X15291313Y-35795446D01*
X15537350Y-36163666D01*
X15905570Y-36409703D01*
X16339916Y-36496100D01*
X16945164Y-36496100D01*
X17379510Y-36409703D01*
X17747730Y-36163666D01*
X17993767Y-35795446D01*
X18080164Y-35361100D01*
X17993767Y-34926754D01*
X17747730Y-34558534D01*
X17379510Y-34312497D01*
X16945164Y-34226100D01*
X16339916Y-34226100D01*
X15905570Y-34312497D01*
X15537350Y-34558534D01*
X15291313Y-34926754D01*
X15204916Y-35361100D01*
X13918000Y-35361100D01*
X13918000Y-26987032D01*
X13993013Y-27168129D01*
X14171642Y-27346757D01*
X14405031Y-27443430D01*
X15495270Y-27443430D01*
X15654020Y-27284680D01*
X15654020Y-26035000D01*
X15908020Y-26035000D01*
X15908020Y-27284680D01*
X16066770Y-27443430D01*
X17157009Y-27443430D01*
X17390398Y-27346757D01*
X17569027Y-27168129D01*
X17665700Y-26934740D01*
X17665700Y-26193750D01*
X17506950Y-26035000D01*
X15908020Y-26035000D01*
X15654020Y-26035000D01*
X15634020Y-26035000D01*
X15634020Y-25781000D01*
X15654020Y-25781000D01*
X15654020Y-24531320D01*
X15908020Y-24531320D01*
X15908020Y-25781000D01*
X17506950Y-25781000D01*
X17665700Y-25622250D01*
X17665700Y-24881260D01*
X17569027Y-24647871D01*
X17390398Y-24469243D01*
X17157009Y-24372570D01*
X16066770Y-24372570D01*
X15908020Y-24531320D01*
X15654020Y-24531320D01*
X15495270Y-24372570D01*
X14405031Y-24372570D01*
X14171642Y-24469243D01*
X13993013Y-24647871D01*
X13918000Y-24828968D01*
X13918000Y-20129032D01*
X13993013Y-20310129D01*
X14171642Y-20488757D01*
X14405031Y-20585430D01*
X15495270Y-20585430D01*
X15654020Y-20426680D01*
X15654020Y-19177000D01*
X15908020Y-19177000D01*
X15908020Y-20426680D01*
X16066770Y-20585430D01*
X17157009Y-20585430D01*
X17390398Y-20488757D01*
X17569027Y-20310129D01*
X17665700Y-20076740D01*
X17665700Y-19335750D01*
X17506950Y-19177000D01*
X15908020Y-19177000D01*
X15654020Y-19177000D01*
X15634020Y-19177000D01*
X15634020Y-18923000D01*
X15654020Y-18923000D01*
X15654020Y-17673320D01*
X15908020Y-17673320D01*
X15908020Y-18923000D01*
X17506950Y-18923000D01*
X17665700Y-18764250D01*
X17665700Y-18023260D01*
X17569027Y-17789871D01*
X17390398Y-17611243D01*
X17157009Y-17514570D01*
X16066770Y-17514570D01*
X15908020Y-17673320D01*
X15654020Y-17673320D01*
X15495270Y-17514570D01*
X14405031Y-17514570D01*
X14171642Y-17611243D01*
X13993013Y-17789871D01*
X13918000Y-17970968D01*
X13918000Y-13918000D01*
X55795786Y-13918000D01*
X55626354Y-14326037D01*
G36*
X55504026Y-51972401D02*
X55690806Y-52097203D01*
X55956385Y-52494670D01*
X56271166Y-52705000D01*
X55956385Y-52915330D01*
X55756152Y-53215000D01*
X46367440Y-53215000D01*
X46367440Y-53213000D01*
X46323162Y-52977683D01*
X46184090Y-52761559D01*
X45971890Y-52616569D01*
X45720000Y-52565560D01*
X44196000Y-52565560D01*
X43960683Y-52609838D01*
X43744559Y-52748910D01*
X43599569Y-52961110D01*
X43548560Y-53213000D01*
X43548560Y-54483000D01*
X43592838Y-54718317D01*
X43731910Y-54934441D01*
X43944110Y-55079431D01*
X44196000Y-55130440D01*
X45720000Y-55130440D01*
X45955317Y-55086162D01*
X46171441Y-54947090D01*
X46316356Y-54735000D01*
X55756152Y-54735000D01*
X55956385Y-55034670D01*
X56271166Y-55245000D01*
X55956385Y-55455330D01*
X55756152Y-55755000D01*
X44071804Y-55755000D01*
X42897403Y-54580599D01*
X42650841Y-54415852D01*
X42360002Y-54358000D01*
X41263920Y-54358000D01*
X41243162Y-54247683D01*
X41104090Y-54031559D01*
X40891890Y-53886569D01*
X40701431Y-53848000D01*
X40766310Y-53848000D01*
X40999699Y-53751327D01*
X41178327Y-53572698D01*
X41275000Y-53339309D01*
X41275000Y-52863750D01*
X41116250Y-52705000D01*
X40005000Y-52705000D01*
X40005000Y-52725000D01*
X39751000Y-52725000D01*
X39751000Y-52705000D01*
X39731000Y-52705000D01*
X39731000Y-52451000D01*
X39751000Y-52451000D01*
X39751000Y-51466750D01*
X40005000Y-51466750D01*
X40005000Y-52451000D01*
X41116250Y-52451000D01*
X41275000Y-52292250D01*
X41275000Y-51816691D01*
X41178327Y-51583302D01*
X40999699Y-51404673D01*
X40766310Y-51308000D01*
X40163750Y-51308000D01*
X40005000Y-51466750D01*
X39751000Y-51466750D01*
X39592250Y-51308000D01*
X39114000Y-51308000D01*
X39114000Y-45422600D01*
X39292979Y-45243621D01*
X39487091Y-45207097D01*
X39701273Y-45065052D01*
X40640000Y-44126325D01*
X41578727Y-45065052D01*
X41776430Y-45200137D01*
X41856761Y-45217563D01*
X42498878Y-45859680D01*
X42498838Y-45905167D01*
X42640883Y-46248943D01*
X42903673Y-46512192D01*
X43247201Y-46654838D01*
X43619167Y-46655162D01*
X43962943Y-46513117D01*
X44226192Y-46250327D01*
X44368838Y-45906799D01*
X44369162Y-45534833D01*
X44227117Y-45191057D01*
X43964327Y-44927808D01*
X43620799Y-44785162D01*
X43573923Y-44785121D01*
X43174099Y-44385297D01*
X43448939Y-44110457D01*
X43523329Y-44001584D01*
X43625716Y-43933681D01*
X44014625Y-43544772D01*
X44089016Y-43435898D01*
X44191401Y-43367996D01*
X44580310Y-42979087D01*
X44640991Y-42890278D01*
X44658976Y-42882828D01*
X44740689Y-42801115D01*
X44740689Y-42664783D01*
X44769879Y-42530222D01*
X44745806Y-42402286D01*
X44856019Y-42426194D01*
X45011157Y-42397003D01*
X45144801Y-42397003D01*
X45226514Y-42315290D01*
X45234982Y-42294847D01*
X45322772Y-42236625D01*
X45545511Y-42013886D01*
X55504026Y-51972401D01*
X55504026Y-51972401D01*
G37*
X55504026Y-51972401D02*
X55690806Y-52097203D01*
X55956385Y-52494670D01*
X56271166Y-52705000D01*
X55956385Y-52915330D01*
X55756152Y-53215000D01*
X46367440Y-53215000D01*
X46367440Y-53213000D01*
X46323162Y-52977683D01*
X46184090Y-52761559D01*
X45971890Y-52616569D01*
X45720000Y-52565560D01*
X44196000Y-52565560D01*
X43960683Y-52609838D01*
X43744559Y-52748910D01*
X43599569Y-52961110D01*
X43548560Y-53213000D01*
X43548560Y-54483000D01*
X43592838Y-54718317D01*
X43731910Y-54934441D01*
X43944110Y-55079431D01*
X44196000Y-55130440D01*
X45720000Y-55130440D01*
X45955317Y-55086162D01*
X46171441Y-54947090D01*
X46316356Y-54735000D01*
X55756152Y-54735000D01*
X55956385Y-55034670D01*
X56271166Y-55245000D01*
X55956385Y-55455330D01*
X55756152Y-55755000D01*
X44071804Y-55755000D01*
X42897403Y-54580599D01*
X42650841Y-54415852D01*
X42360002Y-54358000D01*
X41263920Y-54358000D01*
X41243162Y-54247683D01*
X41104090Y-54031559D01*
X40891890Y-53886569D01*
X40701431Y-53848000D01*
X40766310Y-53848000D01*
X40999699Y-53751327D01*
X41178327Y-53572698D01*
X41275000Y-53339309D01*
X41275000Y-52863750D01*
X41116250Y-52705000D01*
X40005000Y-52705000D01*
X40005000Y-52725000D01*
X39751000Y-52725000D01*
X39751000Y-52705000D01*
X39731000Y-52705000D01*
X39731000Y-52451000D01*
X39751000Y-52451000D01*
X39751000Y-51466750D01*
X40005000Y-51466750D01*
X40005000Y-52451000D01*
X41116250Y-52451000D01*
X41275000Y-52292250D01*
X41275000Y-51816691D01*
X41178327Y-51583302D01*
X40999699Y-51404673D01*
X40766310Y-51308000D01*
X40163750Y-51308000D01*
X40005000Y-51466750D01*
X39751000Y-51466750D01*
X39592250Y-51308000D01*
X39114000Y-51308000D01*
X39114000Y-45422600D01*
X39292979Y-45243621D01*
X39487091Y-45207097D01*
X39701273Y-45065052D01*
X40640000Y-44126325D01*
X41578727Y-45065052D01*
X41776430Y-45200137D01*
X41856761Y-45217563D01*
X42498878Y-45859680D01*
X42498838Y-45905167D01*
X42640883Y-46248943D01*
X42903673Y-46512192D01*
X43247201Y-46654838D01*
X43619167Y-46655162D01*
X43962943Y-46513117D01*
X44226192Y-46250327D01*
X44368838Y-45906799D01*
X44369162Y-45534833D01*
X44227117Y-45191057D01*
X43964327Y-44927808D01*
X43620799Y-44785162D01*
X43573923Y-44785121D01*
X43174099Y-44385297D01*
X43448939Y-44110457D01*
X43523329Y-44001584D01*
X43625716Y-43933681D01*
X44014625Y-43544772D01*
X44089016Y-43435898D01*
X44191401Y-43367996D01*
X44580310Y-42979087D01*
X44640991Y-42890278D01*
X44658976Y-42882828D01*
X44740689Y-42801115D01*
X44740689Y-42664783D01*
X44769879Y-42530222D01*
X44745806Y-42402286D01*
X44856019Y-42426194D01*
X45011157Y-42397003D01*
X45144801Y-42397003D01*
X45226514Y-42315290D01*
X45234982Y-42294847D01*
X45322772Y-42236625D01*
X45545511Y-42013886D01*
X55504026Y-51972401D01*
G36*
X36304000Y-21884802D02*
X36304000Y-22351442D01*
X36078683Y-22393838D01*
X35862559Y-22532910D01*
X35816031Y-22601006D01*
X35673698Y-22458673D01*
X35440309Y-22362000D01*
X34849750Y-22362000D01*
X34691000Y-22520750D01*
X34691000Y-23495000D01*
X34711000Y-23495000D01*
X34711000Y-23749000D01*
X34691000Y-23749000D01*
X34691000Y-24723250D01*
X34849750Y-24882000D01*
X35440309Y-24882000D01*
X35673698Y-24785327D01*
X35814936Y-24644090D01*
X35849910Y-24698441D01*
X36062110Y-24843431D01*
X36304000Y-24892415D01*
X36304000Y-34720314D01*
X36361852Y-35011153D01*
X36520408Y-35248450D01*
X36534194Y-35321714D01*
X36461744Y-35305998D01*
X35538000Y-34382254D01*
X35538000Y-30226558D01*
X35763317Y-30184162D01*
X35979441Y-30045090D01*
X36124431Y-29832890D01*
X36175440Y-29581000D01*
X36175440Y-28331000D01*
X36131162Y-28095683D01*
X35992090Y-27879559D01*
X35779890Y-27734569D01*
X35538000Y-27685585D01*
X35538000Y-27412000D01*
X35512674Y-27284680D01*
X35480148Y-27121160D01*
X35315401Y-26874599D01*
X32795401Y-24354599D01*
X32548839Y-24189852D01*
X32258000Y-24132000D01*
X30026463Y-24132000D01*
X29994327Y-24099808D01*
X29650799Y-23957162D01*
X29603923Y-23957121D01*
X29554552Y-23907750D01*
X33179000Y-23907750D01*
X33179000Y-24373310D01*
X33275673Y-24606699D01*
X33454302Y-24785327D01*
X33687691Y-24882000D01*
X34278250Y-24882000D01*
X34437000Y-24723250D01*
X34437000Y-23749000D01*
X33337750Y-23749000D01*
X33179000Y-23907750D01*
X29554552Y-23907750D01*
X28526000Y-22879198D01*
X28526000Y-22870690D01*
X33179000Y-22870690D01*
X33179000Y-23336250D01*
X33337750Y-23495000D01*
X34437000Y-23495000D01*
X34437000Y-22520750D01*
X34278250Y-22362000D01*
X33687691Y-22362000D01*
X33454302Y-22458673D01*
X33275673Y-22637301D01*
X33179000Y-22870690D01*
X28526000Y-22870690D01*
X28526000Y-20091558D01*
X28751317Y-20049162D01*
X28967441Y-19910090D01*
X29112431Y-19697890D01*
X29141164Y-19556000D01*
X33975198Y-19556000D01*
X36304000Y-21884802D01*
X36304000Y-21884802D01*
G37*
X36304000Y-21884802D02*
X36304000Y-22351442D01*
X36078683Y-22393838D01*
X35862559Y-22532910D01*
X35816031Y-22601006D01*
X35673698Y-22458673D01*
X35440309Y-22362000D01*
X34849750Y-22362000D01*
X34691000Y-22520750D01*
X34691000Y-23495000D01*
X34711000Y-23495000D01*
X34711000Y-23749000D01*
X34691000Y-23749000D01*
X34691000Y-24723250D01*
X34849750Y-24882000D01*
X35440309Y-24882000D01*
X35673698Y-24785327D01*
X35814936Y-24644090D01*
X35849910Y-24698441D01*
X36062110Y-24843431D01*
X36304000Y-24892415D01*
X36304000Y-34720314D01*
X36361852Y-35011153D01*
X36520408Y-35248450D01*
X36534194Y-35321714D01*
X36461744Y-35305998D01*
X35538000Y-34382254D01*
X35538000Y-30226558D01*
X35763317Y-30184162D01*
X35979441Y-30045090D01*
X36124431Y-29832890D01*
X36175440Y-29581000D01*
X36175440Y-28331000D01*
X36131162Y-28095683D01*
X35992090Y-27879559D01*
X35779890Y-27734569D01*
X35538000Y-27685585D01*
X35538000Y-27412000D01*
X35512674Y-27284680D01*
X35480148Y-27121160D01*
X35315401Y-26874599D01*
X32795401Y-24354599D01*
X32548839Y-24189852D01*
X32258000Y-24132000D01*
X30026463Y-24132000D01*
X29994327Y-24099808D01*
X29650799Y-23957162D01*
X29603923Y-23957121D01*
X29554552Y-23907750D01*
X33179000Y-23907750D01*
X33179000Y-24373310D01*
X33275673Y-24606699D01*
X33454302Y-24785327D01*
X33687691Y-24882000D01*
X34278250Y-24882000D01*
X34437000Y-24723250D01*
X34437000Y-23749000D01*
X33337750Y-23749000D01*
X33179000Y-23907750D01*
X29554552Y-23907750D01*
X28526000Y-22879198D01*
X28526000Y-22870690D01*
X33179000Y-22870690D01*
X33179000Y-23336250D01*
X33337750Y-23495000D01*
X34437000Y-23495000D01*
X34437000Y-22520750D01*
X34278250Y-22362000D01*
X33687691Y-22362000D01*
X33454302Y-22458673D01*
X33275673Y-22637301D01*
X33179000Y-22870690D01*
X28526000Y-22870690D01*
X28526000Y-20091558D01*
X28751317Y-20049162D01*
X28967441Y-19910090D01*
X29112431Y-19697890D01*
X29141164Y-19556000D01*
X33975198Y-19556000D01*
X36304000Y-21884802D01*
M02*
