M48
INCH,TZ
T1C0.016
T2C0.020
T3C0.022
T4C0.030
T5C0.040
%
G90
G05
T1
X9900Y-28600
X10300Y-14600
X11900Y-16500
X12700Y-16400
X13100Y-10300
X13300Y-16300
X13300Y-24000
X14100Y-26700
X14592Y-10200
X17100Y-18000
X17800Y-13700
X17900Y-13200
X18300Y-14100
X18400Y-13600
T4
X16100Y-31300
X17100Y-31300
X18100Y-31300
T5
X7700Y-21300
X7700Y-22300
X7700Y-23300
X7700Y-24300
X7700Y-25300
X7700Y-26300
X7700Y-27300
X7700Y-28300
X7700Y-29300
X7700Y-30300
X7700Y-31300
X20600Y-27200
X20600Y-28200
X20600Y-29200
X21600Y-27200
X21600Y-28200
X21600Y-29200
X22820Y-8200
X22820Y-9200
X22820Y-10200
X22820Y-11200
X22820Y-12200
X22820Y-13200
X22820Y-14200
X22820Y-15200
X22820Y-16200
X22820Y-17200
X22820Y-18200
X22820Y-19200
X22820Y-20200
X22820Y-21200
X22820Y-22200
X22820Y-23200
T2
X7724Y-13722G85X7980Y-13722
G05
X7724Y-16478G85X7980Y-16478
G05
T3
X8915Y-14056G85X8915Y-14174
G05
X8915Y-16025G85X8915Y-16143
G05
T4
X16100Y-25200G85X16100Y-25400
G05
X18100Y-25200G85X18100Y-25400
G05
T0
M30
