M48
INCH,TZ
T1C0.016
T2C0.020
T3C0.022
T4C0.030
T5C0.040
%
G90
G05
T1
X9900Y-28600
X10100Y-14800
X11600Y-9800
X11900Y-16500
X12700Y-16400
X13300Y-16300
X13300Y-24000
X14100Y-26700
X17100Y-18000
X17800Y-13700
X17900Y-13200
X18300Y-14100
X18400Y-13600
T4
X16100Y-31300
X17100Y-31300
X18100Y-31300
T5
X7700Y-21300
X7700Y-22300
X7700Y-23300
X7700Y-24300
X7700Y-25300
X7700Y-26300
X7700Y-27300
X7700Y-28300
X7700Y-29300
X7700Y-30300
X7700Y-31300
X20600Y-27200
X20600Y-28200
X20600Y-29200
X21600Y-27200
X21600Y-28200
X21600Y-29200
X22520Y-8250
X22520Y-9250
X22520Y-10250
X22520Y-11250
X22520Y-12250
X22520Y-13250
X22520Y-14250
X22520Y-15250
X22520Y-16250
X22520Y-17250
X22520Y-18250
X22520Y-19250
X22520Y-20250
X22520Y-21250
X22520Y-22250
X22520Y-23250
T2
X6424Y-13922G85X6680Y-13922
G05
X6424Y-16678G85X6680Y-16678
G05
T3
X7615Y-14256G85X7615Y-14374
G05
X7615Y-16225G85X7615Y-16343
G05
T4
X16100Y-25200G85X16100Y-25400
G05
X18100Y-25200G85X18100Y-25400
G05
T0
M30
